<svg width="136" height="105" viewBox="0 0 136 105" fill="none" xmlns="http://www.w3.org/2000/svg">
<g clip-path="url(#clip0_257_306)">
<path d="M6.75889 105C4.88554 105 3.35586 104.605 2.17659 103.829C0.997324 103.053 0.276286 101.955 0.0134774 100.537C-0.0336934 100.202 0.0404321 99.9347 0.222376 99.7339C0.411059 99.5399 0.680606 99.4395 1.04449 99.4395H3.81409C4.09712 99.4395 4.31275 99.4997 4.44753 99.6269C4.5823 99.7473 4.71034 99.9481 4.83163 100.222C5.10792 101.025 5.74809 101.434 6.75889 101.434C7.27777 101.434 7.72926 101.313 8.09989 101.066C8.47052 100.818 8.6592 100.497 8.6592 100.115C8.6592 99.7808 8.49747 99.4864 8.18749 99.2388C7.87751 98.9912 7.46645 98.7838 6.96105 98.6098C6.44891 98.4358 5.8896 98.2619 5.28312 98.0812C4.67664 97.8938 4.06342 97.6596 3.45694 97.392C2.85046 97.1176 2.29115 96.8032 1.77901 96.4284C1.26687 96.0537 0.862551 95.5519 0.552572 94.9095C0.242592 94.2671 0.0808642 93.5311 0.0808642 92.7014C0.0808642 91.0352 0.673868 89.7438 1.86661 88.8271C3.05936 87.9171 4.64969 87.4554 6.62412 87.4554C8.43682 87.4554 9.90586 87.81 11.0245 88.5394C12.1431 89.2687 12.8237 90.2925 13.073 91.6241C13.1202 91.9586 13.0596 92.2196 12.8709 92.4137C12.6822 92.6144 12.4126 92.7081 12.0488 92.7081H9.32633C8.88832 92.7081 8.55812 92.5006 8.33574 92.0791C8.02577 91.3765 7.4395 91.0152 6.58369 91.0152C6.07155 91.0152 5.66723 91.1289 5.34377 91.3497C5.02031 91.5706 4.85859 91.865 4.85859 92.2397C4.85859 92.6144 5.06749 92.9557 5.49202 93.2233C5.91656 93.4976 6.44892 93.7051 7.08235 93.8523C7.71579 93.9995 8.39639 94.2069 9.13091 94.4813C9.86542 94.7556 10.546 95.0634 11.1795 95.4181C11.8129 95.7727 12.3453 96.308 12.7698 97.0106C13.1943 97.7132 13.4032 98.5496 13.4032 99.5265C13.4032 101.219 12.8102 102.551 11.604 103.521C10.3978 104.498 8.78724 104.98 6.74542 104.98L6.75889 105.007V105Z" fill="#00338E"/>
<path d="M21.2134 95.8731V99.7206C21.2134 100.396 21.5503 100.731 22.2039 100.731H22.7161C23.3495 100.731 23.6595 101.039 23.6595 101.654V103.729C23.6595 104.358 23.3495 104.665 22.7161 104.665H20.991C19.7511 104.665 18.7537 104.317 18.0125 103.628C17.2712 102.939 16.8939 102.022 16.8939 100.878V95.8731H15.8022C15.1688 95.8731 14.8588 95.5653 14.8588 94.9497V92.8754C14.8588 92.32 15.1418 92.0389 15.7011 92.0389H16.0515C16.7995 92.0389 17.1702 91.6709 17.1836 90.9282V89.697C17.1836 89.068 17.4936 88.7602 18.1136 88.7602H20.2767C20.9101 88.7602 21.2201 89.068 21.2201 89.697V92.0389H22.8711C23.5045 92.0389 23.8145 92.3467 23.8145 92.9757V94.9497C23.8145 95.5653 23.5045 95.8731 22.8711 95.8731H21.2201H21.2134Z" fill="#00338E"/>
<path d="M29.8321 99.6269V100.316C29.8321 100.738 29.9669 101.066 30.2567 101.313C30.5464 101.561 30.9171 101.681 31.3888 101.681C31.9481 101.681 32.3591 101.494 32.6152 101.126C32.878 100.791 33.161 100.617 33.4845 100.617H36.18C36.4562 100.617 36.6786 100.691 36.8404 100.851C37.0021 101.012 37.0492 101.246 36.9751 101.554C36.7864 102.605 36.1934 103.428 35.1961 104.043C34.2055 104.659 32.9387 104.967 31.3955 104.967C29.6165 104.967 28.1879 104.485 27.1232 103.508C26.0517 102.531 25.5194 101.253 25.5194 99.647V97.0307C25.5194 95.4247 26.0517 94.1467 27.1097 93.1698C28.1677 92.1928 29.5693 91.7111 31.3214 91.7111C33.0734 91.7111 34.4751 92.2062 35.533 93.1898C36.591 94.1735 37.1099 95.485 37.1099 97.1243V98.6633C37.1099 99.2789 36.7999 99.5867 36.1665 99.5867L29.8321 99.6001V99.6269ZM31.3079 95.0366C30.8631 95.0366 30.4993 95.1571 30.2297 95.4047C29.9602 95.6522 29.8186 95.9868 29.8186 96.4017V97.0708H32.7365V96.4017C32.7365 95.9801 32.6152 95.6522 32.3524 95.4047C32.0896 95.1571 31.7459 95.0366 31.2944 95.0366H31.3079Z" fill="#00338E"/>
<path d="M40.4051 103.635C39.6571 102.946 39.2865 102.029 39.2865 100.912V87.9238C39.2865 87.2948 39.5965 86.987 40.2299 86.987H42.676C43.3095 86.987 43.6195 87.2948 43.6195 87.9238V99.754C43.6195 100.41 43.9429 100.738 44.6033 100.738H44.8392C45.2233 100.738 45.4254 100.925 45.4254 101.293V103.735C45.4254 104.364 45.1154 104.672 44.482 104.672H43.3903C42.1504 104.672 41.1531 104.324 40.4119 103.635H40.4051Z" fill="#00338E"/>
<path d="M48.2018 103.635C47.4538 102.946 47.0831 102.029 47.0831 100.912V87.9238C47.0831 87.2948 47.3931 86.987 48.0266 86.987H50.4727C51.1061 86.987 51.4161 87.2948 51.4161 87.9238V99.754C51.4161 100.41 51.7396 100.738 52.4 100.738H52.6358C53.0199 100.738 53.2221 100.925 53.2221 101.293V103.735C53.2221 104.364 52.9121 104.672 52.2787 104.672H51.187C49.9471 104.672 48.9498 104.324 48.2085 103.635H48.2018Z" fill="#00338E"/>
<path d="M60.6953 91.7713C62.4002 91.7713 63.7479 92.1527 64.7722 92.9289C65.7965 93.7051 66.3019 94.7288 66.3019 96.0002V103.755C66.3019 104.384 65.9919 104.692 65.3584 104.692H63.0471C62.4136 104.692 62.1037 104.384 62.1037 103.755V103.32H61.8543C61.3354 104.431 60.264 104.987 58.6467 105C57.4674 105 56.5106 104.665 55.7626 103.99C55.0146 103.314 54.6439 102.397 54.6439 101.253C54.6439 100.109 55.028 99.1786 55.7895 98.476C56.5442 97.7734 57.555 97.4121 58.8084 97.4121H61.9621V96.2545C61.9621 95.8864 61.8408 95.5853 61.5915 95.3645C61.3422 95.1437 61.0187 95.03 60.6077 95.03C59.9608 95.03 59.5497 95.2775 59.3678 95.7794C59.1791 96.2143 58.8691 96.4351 58.4513 96.4351H56.0388C55.4054 96.4351 55.0954 96.1273 55.0954 95.5117C55.0954 94.4144 55.6143 93.511 56.6723 92.7951C57.7303 92.0791 59.0712 91.7244 60.6953 91.7244V91.7646V91.7713ZM60.4122 101.996C60.8705 101.996 61.2478 101.895 61.5309 101.701C61.8139 101.5 61.9689 101.246 61.9689 100.925V99.9882H60.1899C59.8327 99.9882 59.543 100.075 59.3341 100.263C59.1252 100.45 59.0106 100.684 59.0106 100.965C59.0106 101.286 59.1319 101.534 59.3947 101.715C59.6575 101.902 59.9877 101.989 60.4122 101.989V102.002V101.996Z" fill="#00338E"/>
<path d="M75.7764 91.8047C76.0864 91.7646 76.3357 91.8315 76.5109 91.9921C76.6862 92.1527 76.7738 92.4003 76.7738 92.7215V95.224C76.7738 95.853 76.4638 96.1608 75.8303 96.1608C74.0311 96.1608 73.1349 96.9972 73.1349 98.6633V103.735C73.1349 104.364 72.8249 104.672 72.1915 104.672H69.7453C69.1119 104.672 68.8019 104.364 68.8154 103.735V92.9824C68.8154 92.3534 69.1254 92.0456 69.7453 92.0456H72.1915C72.8249 92.0456 73.1349 92.3534 73.1349 92.9824V94.0664H73.3572C73.7683 92.6478 74.5769 91.8984 75.7764 91.7981V91.8114V91.8047Z" fill="#00338E"/>
<path d="M91.1608 104.926C89.0584 104.926 87.3737 104.344 86.1068 103.187C84.8399 102.029 84.2065 100.497 84.2065 98.5964V93.7385C84.2065 91.8382 84.8399 90.3126 86.1068 89.1483C87.3737 87.9907 89.0651 87.4086 91.1608 87.4086C93.2566 87.4086 94.9345 87.9372 96.1811 88.9877C97.4278 90.0382 98.041 91.5438 98.041 93.5043C98.041 94.1467 97.7445 94.4679 97.1313 94.4679H94.4358C93.9237 94.4679 93.607 94.1601 93.4655 93.5579C93.2768 92.2397 92.5086 91.5839 91.1541 91.5839C90.4196 91.5839 89.84 91.7914 89.402 92.2129C88.964 92.6345 88.7551 93.1765 88.7551 93.8389V98.5362C88.7551 99.212 88.964 99.754 89.402 100.176C89.84 100.597 90.4196 100.805 91.1541 100.805C92.5355 100.805 93.3037 100.149 93.4789 98.8306C93.6137 98.2284 93.9372 97.9206 94.4493 97.9206H97.1448C97.7513 97.9206 98.0545 98.2685 98.041 98.9578C98.041 100.892 97.4211 102.384 96.1677 103.421C94.9143 104.458 93.2498 104.973 91.1608 104.973V104.926Z" fill="#00338E"/>
<path d="M108.392 91.7579C109.47 91.7579 110.353 92.0791 111.026 92.7348C111.7 93.3906 112.031 94.2538 112.031 95.3244V103.762C112.031 104.391 111.721 104.699 111.087 104.699H108.654C108.021 104.699 107.711 104.391 107.711 103.762V97.0173C107.711 96.6359 107.596 96.3281 107.361 96.1073C107.125 95.8864 106.801 95.7727 106.39 95.7727C105.979 95.7727 105.622 95.8864 105.346 96.1073C105.069 96.3281 104.935 96.6158 104.935 96.9704V103.742C104.935 104.371 104.625 104.679 103.991 104.679H101.545C100.912 104.679 100.602 104.371 100.615 103.742V87.9305C100.615 87.3015 100.925 86.9937 101.545 86.9937H103.991C104.625 86.9937 104.935 87.3015 104.935 87.9305V93.6917H105.157C105.433 93.1095 105.851 92.6412 106.424 92.2865C106.997 91.9319 107.65 91.7445 108.398 91.7445L108.385 91.7713L108.392 91.7579Z" fill="#00338E"/>
<path d="M119.901 91.7713C121.606 91.7713 122.954 92.1527 123.978 92.9289C125.002 93.7051 125.508 94.7288 125.508 96.0002V103.755C125.508 104.384 125.198 104.692 124.564 104.692H122.253C121.62 104.692 121.31 104.384 121.31 103.755V103.32H121.06C120.541 104.431 119.47 104.987 117.853 105C116.673 105 115.717 104.665 114.969 103.99C114.221 103.314 113.85 102.397 113.85 101.253C113.85 100.109 114.234 99.1786 114.996 98.476C115.75 97.7734 116.761 97.4121 118.014 97.4121H121.168V96.2545C121.168 95.8864 121.047 95.5853 120.798 95.3645C120.548 95.1437 120.225 95.03 119.814 95.03C119.167 95.03 118.756 95.2775 118.574 95.7794C118.385 96.2143 118.075 96.4351 117.657 96.4351H115.245C114.611 96.4351 114.301 96.1273 114.301 95.5117C114.301 94.4144 114.82 93.511 115.878 92.7951C116.936 92.0791 118.277 91.7244 119.901 91.7244V91.7646V91.7713ZM119.618 101.996C120.076 101.996 120.454 101.895 120.737 101.701C121.02 101.5 121.175 101.246 121.175 100.925V99.9882H119.396C119.039 99.9882 118.749 100.075 118.54 100.263C118.331 100.45 118.217 100.684 118.217 100.965C118.217 101.286 118.338 101.534 118.601 101.715C118.864 101.902 119.194 101.989 119.618 101.989V102.002V101.996Z" fill="#00338E"/>
<path d="M133.399 95.8731V99.7206C133.399 100.396 133.736 100.731 134.389 100.731H134.902C135.535 100.731 135.845 101.039 135.845 101.654V103.729C135.845 104.358 135.535 104.665 134.902 104.665H133.176C131.937 104.665 130.939 104.317 130.198 103.628C129.457 102.939 129.079 102.022 129.079 100.878V95.8731H127.988C127.354 95.8731 127.044 95.5653 127.044 94.9497V92.8754C127.044 92.32 127.327 92.0389 127.887 92.0389H128.237C128.985 92.0389 129.356 91.6709 129.369 90.9282V89.697C129.369 89.068 129.679 88.7602 130.299 88.7602H132.462C133.096 88.7602 133.406 89.068 133.406 89.697V92.0389H135.057C135.69 92.0389 136 92.3467 136 92.9757V94.9497C136 95.5653 135.69 95.8731 135.057 95.8731H133.406H133.399Z" fill="#00338E"/>
<path d="M62.8247 0C41.2811 0 23.8145 17.3439 23.8145 38.736C23.8145 60.1281 41.2811 77.472 62.8247 77.472C69.5701 77.472 75.9179 75.7724 81.4504 72.7814H91.9021C94.3954 72.7814 96.417 70.774 96.417 68.2982V58.4352C99.8605 52.6606 101.835 45.9291 101.835 38.736C101.835 17.3439 84.3682 0 62.8247 0ZM82.0232 54.2866C82.0232 56.5282 80.1903 58.3415 77.9395 58.3415H61.1198C58.8623 58.3415 57.0362 56.5215 57.0362 54.2866C57.0362 52.045 58.8691 50.2316 61.1198 50.2316H77.9395C80.197 50.2316 82.0232 52.0517 82.0232 54.2866ZM82.0232 39.9404C82.0232 42.182 80.1903 43.9953 77.9395 43.9953H44.6774C42.42 43.9953 40.5938 42.1753 40.5938 39.9404C40.5938 37.6988 42.4267 35.8855 44.6774 35.8855H77.9395C80.197 35.8855 82.0232 37.7055 82.0232 39.9404ZM77.9395 29.6559H48.6667C46.4093 29.6559 44.5831 27.8358 44.5831 25.6009C44.5831 23.366 46.416 21.546 48.6667 21.546H77.9395C80.197 21.546 82.0232 23.366 82.0232 25.6009C82.0232 27.8358 80.1903 29.6559 77.9395 29.6559Z" fill="#00338E"/>
</g>
<defs>
<clipPath id="clip0_257_306">
<rect width="136" height="105" fill="white"/>
</clipPath>
</defs>
</svg>
