<svg width="24" height="24" viewBox="0 0 24 24" fill="none" xmlns="http://www.w3.org/2000/svg">
<g clip-path="url(#clip0_34_3628)">
<path d="M23.4404 12.2245C23.4404 11.2413 23.3606 10.5238 23.1879 9.77966H11.96V14.2176H18.5505C18.4177 15.3205 17.7002 16.9815 16.1056 18.0976L16.0833 18.2462L19.6334 20.9964L19.8793 21.0209C22.1382 18.9347 23.4404 15.8653 23.4404 12.2245Z" fill="#4285F4"/>
<path d="M11.9601 23.9176C15.1889 23.9176 17.8995 22.8545 19.8794 21.0209L16.1057 18.0976C15.0959 18.8018 13.7406 19.2934 11.9601 19.2934C8.79765 19.2934 6.11359 17.2074 5.15679 14.324L5.01655 14.3359L1.32513 17.1927L1.27686 17.3269C3.24339 21.2334 7.28281 23.9176 11.9601 23.9176Z" fill="#34A853"/>
<path d="M5.15649 14.3239C4.90403 13.5798 4.75792 12.7825 4.75792 11.9587C4.75792 11.1349 4.90403 10.3376 5.14321 9.59354L5.13652 9.43507L1.39884 6.53235L1.27655 6.59052C0.466045 8.21162 0.000976562 10.032 0.000976562 11.9587C0.000976562 13.8854 0.466045 15.7058 1.27655 17.3269L5.15649 14.3239Z" fill="#FBBC05"/>
<path d="M11.9601 4.62403C14.2056 4.62403 15.7204 5.59402 16.5841 6.40461L19.9591 3.10928C17.8863 1.1826 15.1889 0 11.9601 0C7.28281 0 3.24339 2.68406 1.27686 6.59056L5.14351 9.59359C6.11359 6.7102 8.79765 4.62403 11.9601 4.62403Z" fill="#EB4335"/>
</g>
<defs>
<clipPath id="clip0_34_3628">
<rect width="23.4528" height="24" fill="white"/>
</clipPath>
</defs>
</svg>
