<svg width="46" height="46" viewBox="0 0 46 46" fill="none" xmlns="http://www.w3.org/2000/svg">
<path d="M45.987 23C45.987 10.2965 35.6933 0 22.9935 0C10.2936 0 0 10.2965 0 23C0 35.7035 10.2936 46 22.9935 46C26.9701 46 30.711 44.9912 33.9722 43.212H40.1331C41.602 43.212 42.7942 42.0195 42.7942 40.5502V34.6946C44.8222 31.2679 45.987 27.2683 45.987 22.9973V23Z" fill="#243E87"/>
<path d="M31.9003 12.7912H14.6484C13.3179 12.7912 12.2394 13.87 12.2394 15.2008C12.2394 16.5317 13.3179 17.6105 14.6484 17.6105H31.9003C33.2308 17.6105 34.3093 16.5317 34.3093 15.2008C34.3093 13.87 33.2308 12.7912 31.9003 12.7912Z" fill="#9FC4E8"/>
<path d="M31.8975 21.3058H12.2941C10.9637 21.3058 9.88513 22.3847 9.88513 23.7155C9.88513 25.0463 10.9637 26.1252 12.2941 26.1252H31.8975C33.2279 26.1252 34.3065 25.0463 34.3065 23.7155C34.3065 22.3847 33.2279 21.3058 31.8975 21.3058Z" fill="#9FC4E8"/>
<path d="M31.8976 29.8232H21.9849C20.6545 29.8232 19.5759 30.9021 19.5759 32.2329C19.5759 33.5637 20.6545 34.6426 21.9849 34.6426H31.8976C33.228 34.6426 34.3066 33.5637 34.3066 32.2329C34.3066 30.9021 33.228 29.8232 31.8976 29.8232Z" fill="#9FC4E8"/>
</svg>
