<svg width="52" height="52" viewBox="0 0 52 52" fill="none" xmlns="http://www.w3.org/2000/svg">
<g clip-path="url(#clip0_1516_6524)">
<path d="M52 26C52 11.6411 40.3589 0 26 0C11.6411 0 0 11.6411 0 26C0 40.3589 11.6411 52 26 52C30.4966 52 34.725 50.8569 38.4168 48.8506H45.3804C47.0426 48.8506 48.3899 47.5034 48.3899 45.8412V39.2216C50.6819 35.349 52 30.8291 52 26Z" fill="#9FC4E8"/>
<path d="M36.0722 14.458H16.5635C15.0593 14.458 13.8398 15.6774 13.8398 17.1816C13.8398 18.6859 15.0593 19.9053 16.5635 19.9053H36.0722C37.5765 19.9053 38.7959 18.6859 38.7959 17.1816C38.7959 15.6774 37.5765 14.458 36.0722 14.458Z" fill="#00338E"/>
<path d="M36.0725 24.0869H13.9043C12.4001 24.0869 11.1807 25.3063 11.1807 26.8106C11.1807 28.3148 12.4001 29.5342 13.9043 29.5342H36.0725C37.5768 29.5342 38.7962 28.3148 38.7962 26.8106C38.7962 25.3063 37.5768 24.0869 36.0725 24.0869Z" fill="#00338E"/>
<path d="M36.0728 33.71H24.8633C23.3591 33.71 22.1396 34.9294 22.1396 36.4336C22.1396 37.9378 23.3591 39.1572 24.8633 39.1572H36.0728C37.577 39.1572 38.7964 37.9378 38.7964 36.4336C38.7964 34.9294 37.577 33.71 36.0728 33.71Z" fill="#00338E"/>
</g>
<defs>
<clipPath id="clip0_1516_6524">
<rect width="52" height="52" fill="white"/>
</clipPath>
</defs>
</svg>
