<svg width="107" height="43" viewBox="0 0 107 43" fill="none" xmlns="http://www.w3.org/2000/svg">
<path d="M7.6358 18.7451C6.07161 18.7451 4.79851 18.4208 3.8133 17.7879C2.82809 17.1518 2.22993 16.2538 2.01241 15.0939C1.97083 14.8227 2.0348 14.5982 2.18834 14.4391C2.34188 14.2801 2.57219 14.1959 2.87287 14.1959H5.18236C5.41907 14.1959 5.595 14.2458 5.71015 14.3487C5.82531 14.4516 5.92767 14.6106 6.03003 14.832C6.25714 15.4868 6.79773 15.8204 7.6358 15.8204C8.07082 15.8204 8.44508 15.7206 8.75535 15.518C9.06563 15.3153 9.22237 15.0534 9.22237 14.7416C9.22237 14.4703 9.08802 14.2271 8.82892 14.0244C8.56983 13.8218 8.22756 13.6503 7.80533 13.51C7.3799 13.3697 6.91608 13.2262 6.40748 13.0766C5.89888 12.9238 5.39348 12.7336 4.88488 12.5122C4.37628 12.2908 3.91246 12.0289 3.48703 11.7233C3.0616 11.4209 2.71933 11.0062 2.46343 10.4824C2.20434 9.95853 2.06999 9.35052 2.06999 8.67703C2.06999 7.31445 2.56579 6.25432 3.5606 5.506C4.55541 4.75767 5.87968 4.38663 7.52703 4.38663C9.04004 4.38663 10.262 4.67972 11.1928 5.27526C12.1236 5.87081 12.693 6.70955 12.9009 7.79774C12.9425 8.06901 12.8913 8.28104 12.7346 8.44317C12.5778 8.60531 12.3507 8.68638 12.0501 8.68638H9.78215C9.42069 8.68638 9.1392 8.51489 8.95367 8.17191C8.69458 7.59507 8.20837 7.3051 7.49505 7.3051C7.06962 7.3051 6.72735 7.39552 6.45866 7.57636C6.18996 7.75721 6.05562 8.00042 6.05562 8.30286C6.05562 8.60531 6.23155 8.88905 6.58341 9.11043C6.93527 9.33181 7.37989 9.5033 7.90769 9.62491C8.43548 9.74651 9.00486 9.918 9.61582 10.1394C10.2268 10.3608 10.7961 10.6133 11.3239 10.9064C11.8517 11.1995 12.2964 11.6329 12.6482 12.2097C13.0001 12.7835 13.176 13.4725 13.176 14.2676C13.176 15.6489 12.6802 16.7402 11.6758 17.5384C10.6714 18.3367 9.32473 18.7295 7.6262 18.7295L7.6358 18.7482V18.7451Z" fill="#9FC4E8"/>
<path d="M19.6886 11.2774V14.4266C19.6886 14.9817 19.9669 15.2529 20.5171 15.2529H20.9425C21.4703 15.2529 21.7294 15.5055 21.7294 16.0106V17.7068C21.7294 18.2213 21.4703 18.4738 20.9425 18.4738H19.5031C18.4667 18.4738 17.6382 18.1901 17.0177 17.6257C16.3971 17.0614 16.0868 16.313 16.0868 15.3745V11.2774H15.1752C14.6474 11.2774 14.3883 11.0249 14.3883 10.5198V8.82356C14.3883 8.36832 14.625 8.13759 15.092 8.13759H15.3831C16.0037 8.13759 16.3139 7.83514 16.3267 7.23025V6.22001C16.3267 5.70553 16.5858 5.45297 17.104 5.45297H18.9049C19.4327 5.45297 19.6918 5.70553 19.6918 6.22001V8.13759H21.0705C21.5983 8.13759 21.8574 8.39015 21.8574 8.90462V10.5198C21.8574 11.0249 21.5983 11.2774 21.0705 11.2774H19.6918H19.6886Z" fill="#9FC4E8"/>
<path d="M26.8729 14.3456V14.91C26.8729 15.253 26.9881 15.5242 27.2248 15.7269C27.4615 15.9296 27.775 16.0293 28.1684 16.0293C28.6354 16.0293 28.9777 15.8766 29.1952 15.5741C29.4127 15.3028 29.6494 15.1594 29.9213 15.1594H32.17C32.3971 15.1594 32.5827 15.2187 32.7202 15.3527C32.8578 15.4868 32.8961 15.677 32.8354 15.9265C32.6786 16.7839 32.1828 17.4605 31.3544 17.9656C30.5259 18.4708 29.4703 18.7233 28.1844 18.7233C26.7034 18.7233 25.5135 18.3304 24.621 17.5322C23.7318 16.734 23.2839 15.6864 23.2839 14.3737V12.2347C23.2839 10.922 23.7286 9.87125 24.6082 9.07616C25.4879 8.28106 26.6586 7.88507 28.1172 7.88507C29.5759 7.88507 30.7466 8.28729 31.6294 9.09486C32.5123 9.90243 32.9441 10.9719 32.9441 12.3158V13.5786C32.9441 14.0837 32.685 14.3363 32.1572 14.3363L26.8761 14.3456H26.8729ZM28.1044 10.5915C27.7302 10.5915 27.4327 10.6913 27.2024 10.894C26.9753 11.0966 26.8601 11.3679 26.8601 11.7109V12.2565H29.2944V11.7109C29.2944 11.3679 29.192 11.0966 28.9745 10.894C28.757 10.6913 28.4659 10.5915 28.0948 10.5915H28.1044Z" fill="#9FC4E8"/>
<path d="M35.6823 17.6258C35.0617 17.0614 34.7515 16.3131 34.7515 15.3964V4.76703C34.7515 4.25256 35.0106 4 35.5384 4H37.5791C38.1069 4 38.366 4.25256 38.366 4.76703V14.4485C38.366 14.9848 38.6347 15.2561 39.1849 15.2561H39.38C39.6999 15.2561 39.8662 15.4088 39.8662 15.7113V17.7099C39.8662 18.2244 39.6072 18.477 39.0794 18.477H38.1677C37.1313 18.477 36.3029 18.1932 35.6823 17.6289V17.6258Z" fill="#9FC4E8"/>
<path d="M42.1852 17.6258C41.5647 17.0614 41.2544 16.3131 41.2544 15.3964V4.76703C41.2544 4.25256 41.5135 4 42.0413 4H44.0821C44.6099 4 44.869 4.25256 44.869 4.76703V14.4485C44.869 14.9848 45.1377 15.2561 45.6879 15.2561H45.883C46.2028 15.2561 46.3692 15.4088 46.3692 15.7113V17.7099C46.3692 18.2244 46.1101 18.477 45.5823 18.477H44.6706C43.6343 18.477 42.8058 18.1932 42.1852 17.6289V17.6258Z" fill="#9FC4E8"/>
<path d="M52.6037 7.91625C54.0208 7.91625 55.1499 8.22805 56.0008 8.86413C56.8484 9.5002 57.2739 10.3389 57.2739 11.3773V17.7255C57.2739 18.24 57.0148 18.4926 56.487 18.4926H54.5613C54.0335 18.4926 53.7745 18.24 53.7745 17.7255V17.3732H53.5665C53.1315 18.2806 52.2423 18.7358 50.8956 18.7451C49.9136 18.7451 49.1139 18.4739 48.4933 17.9189C47.8728 17.3639 47.5625 16.6155 47.5625 15.677C47.5625 14.7385 47.8824 13.9808 48.5157 13.4071C49.1491 12.8334 49.9871 12.5403 51.0331 12.5403H53.6625V11.5924C53.6625 11.2899 53.5601 11.0467 53.3522 10.8659C53.1443 10.6851 52.8756 10.5946 52.5333 10.5946C51.996 10.5946 51.6537 10.7973 51.497 11.2089C51.3402 11.5612 51.0811 11.7452 50.7292 11.7452H48.7204C48.1926 11.7452 47.9336 11.4926 47.9336 10.9875C47.9336 10.0895 48.3686 9.35365 49.2482 8.76747C50.1279 8.18128 51.2475 7.88818 52.6037 7.88818V7.91936V7.91625ZM52.367 16.285C52.7509 16.285 53.0611 16.204 53.2978 16.0418C53.5345 15.8797 53.6593 15.6677 53.6593 15.4057V14.6387H52.1783C51.8776 14.6387 51.6409 14.7104 51.465 14.8601C51.289 15.0097 51.1963 15.2031 51.1963 15.4369C51.1963 15.6988 51.2986 15.9015 51.5161 16.0512C51.7337 16.2008 52.0119 16.2725 52.3638 16.2725V16.2819L52.367 16.285Z" fill="#9FC4E8"/>
<path d="M65.1715 7.94429C65.4306 7.91311 65.6385 7.96612 65.7824 8.09707C65.9264 8.22803 65.9999 8.4307 65.9999 8.69262V10.7412C65.9999 11.2556 65.7408 11.5082 65.213 11.5082C63.7128 11.5082 62.9675 12.1942 62.9675 13.5567V17.7068C62.9675 18.2213 62.7084 18.4739 62.1807 18.4739H60.1399C59.6121 18.4739 59.353 18.2213 59.3626 17.7068V8.90464C59.3626 8.39017 59.6217 8.13761 60.1399 8.13761H62.1807C62.7084 8.13761 62.9675 8.39017 62.9675 8.90464V9.79328H63.1531C63.4953 8.63337 64.1671 8.01601 65.1715 7.93494V7.94429Z" fill="#9FC4E8"/>
<path d="M8.0293 38.5602C6.27959 38.5602 4.87214 38.0862 3.81336 37.1384C2.75778 36.1905 2.22998 34.937 2.22998 33.3843V29.4057C2.22998 27.8498 2.75778 26.5994 3.81336 25.6516C4.86894 24.7037 6.27959 24.2297 8.0293 24.2297C9.77901 24.2297 11.1769 24.6631 12.2132 25.5206C13.2496 26.3781 13.7678 27.6097 13.7678 29.2155C13.7678 29.7393 13.5183 30.0012 13.0129 30.0012H10.7674C10.342 30.0012 10.0733 29.7486 9.96133 29.2529C9.80459 28.174 9.16485 27.6377 8.0357 27.6377C7.42474 27.6377 6.93853 27.8092 6.57707 28.1522C6.21561 28.4952 6.03968 28.938 6.03968 29.4836V33.3281C6.03968 33.8831 6.21561 34.3259 6.57707 34.672C6.93853 35.015 7.42474 35.1865 8.0357 35.1865C9.18404 35.1865 9.82699 34.6502 9.97093 33.5713C10.0861 33.0756 10.3548 32.823 10.7802 32.823H13.0257C13.5343 32.823 13.7806 33.1067 13.771 33.6711C13.771 35.2551 13.2528 36.4773 12.2068 37.3254C11.1609 38.1735 9.77261 38.5976 8.03249 38.5976V38.5571L8.0293 38.5602Z" fill="#9FC4E8"/>
<path d="M22.3916 27.7781C23.2937 27.7781 24.0262 28.04 24.586 28.5763C25.1457 29.1126 25.424 29.8173 25.424 30.6965V37.5998C25.424 38.1143 25.1649 38.3669 24.6371 38.3669H22.6059C22.0781 38.3669 21.819 38.1143 21.819 37.5998V32.0778C21.819 31.766 21.7263 31.5135 21.528 31.3295C21.3296 31.1487 21.0609 31.0582 20.7187 31.0582C20.3764 31.0582 20.0757 31.1487 19.8486 31.3295C19.6215 31.5103 19.5064 31.7442 19.5064 32.0373V37.578C19.5064 38.0925 19.2473 38.345 18.7195 38.345H16.6787C16.1509 38.345 15.8918 38.0925 15.9014 37.578V24.6382C15.9014 24.1237 16.1605 23.8712 16.6787 23.8712H18.7195C19.2473 23.8712 19.5064 24.1237 19.5064 24.6382V29.3527H19.6919C19.919 28.8787 20.2709 28.4952 20.7475 28.2021C21.2241 27.909 21.7743 27.7594 22.3948 27.7594L22.3852 27.7781H22.3916Z" fill="#9FC4E8"/>
<path d="M31.9877 27.7874C33.4048 27.7874 34.5339 28.0992 35.3848 28.7353C36.2325 29.3714 36.6579 30.2101 36.6579 31.2484V37.5967C36.6579 38.1112 36.3988 38.3637 35.871 38.3637H33.9454C33.4176 38.3637 33.1585 38.1112 33.1585 37.5967V37.2444H32.9506C32.5155 38.1517 31.6263 38.6069 30.2796 38.6163C29.2976 38.6163 28.4979 38.345 27.8774 37.79C27.2568 37.235 26.9465 36.4867 26.9465 35.5482C26.9465 34.6096 27.2664 33.852 27.8998 33.2782C28.5299 32.7014 29.3712 32.4114 30.4172 32.4114H33.0465V31.4635C33.0465 31.1611 32.9442 30.9179 32.7362 30.737C32.5283 30.5562 32.2596 30.4658 31.9174 30.4658C31.38 30.4658 31.0377 30.6685 30.881 31.08C30.7242 31.4324 30.4651 31.6163 30.1133 31.6163H28.1045C27.5767 31.6163 27.3176 31.3638 27.3176 30.8587C27.3176 29.9607 27.7526 29.2248 28.6323 28.6386C29.5119 28.0524 30.6315 27.7593 31.9877 27.7593V27.7905V27.7874ZM31.751 36.1562C32.1349 36.1562 32.4452 36.0751 32.6819 35.913C32.9186 35.7508 33.0433 35.5388 33.0433 35.2769V34.5099H31.5623C31.2616 34.5099 31.0249 34.5816 30.849 34.7312C30.6731 34.8809 30.5803 35.0742 30.5803 35.3081C30.5803 35.57 30.6827 35.7727 30.9002 35.9223C31.1177 36.0751 31.396 36.1437 31.7478 36.1437V36.1531L31.751 36.1562Z" fill="#9FC4E8"/>
<path d="M43.2442 31.1517V34.3009C43.2442 34.8559 43.5224 35.1272 44.0726 35.1272H44.4981C45.0259 35.1272 45.285 35.3798 45.285 35.8849V37.5811C45.285 38.0956 45.0259 38.3481 44.4981 38.3481H43.0586C42.0222 38.3481 41.1938 38.0644 40.5732 37.5C39.9527 36.9357 39.6424 36.1873 39.6424 35.2488V31.1517H38.7307C38.203 31.1517 37.9438 30.8992 37.9438 30.3941V28.6979C37.9438 28.2426 38.1806 28.0119 38.6476 28.0119H38.9387C39.5592 28.0119 39.8695 27.7094 39.8823 27.1045V26.0943C39.8823 25.5798 40.1414 25.3273 40.6596 25.3273H42.4605C42.9883 25.3273 43.2474 25.5798 43.2474 26.0943V28.0119H44.626C45.1538 28.0119 45.4129 28.2644 45.4129 28.7789V30.3941C45.4129 30.8992 45.1538 31.1517 44.626 31.1517H43.2474H43.2442Z" fill="#9FC4E8"/>
</svg>
