<svg width="22" height="20" viewBox="0 0 22 20" fill="none" xmlns="http://www.w3.org/2000/svg">
<path d="M19.8325 15.667H10.9382C9.74378 15.667 8.77551 16.6152 8.77551 17.7848C8.77551 18.9544 9.74378 19.9026 10.9382 19.9026H19.8325C21.0269 19.9026 21.9951 18.9544 21.9951 17.7848C21.9951 16.6152 21.0269 15.667 19.8325 15.667Z" fill="#9FC4E8"/>
<path d="M19.8373 8.18298H2.24361C1.0492 8.18298 0.0809326 9.13116 0.0809326 10.3008C0.0809326 11.4704 1.0492 12.4186 2.24361 12.4186H19.8373C21.0317 12.4186 22 11.4704 22 10.3008C22 9.13116 21.0317 8.18298 19.8373 8.18298Z" fill="#9FC4E8"/>
<path d="M19.8374 4.93482H4.35275C3.15937 4.93482 2.19006 3.98563 2.19006 2.81702C2.19006 1.64841 3.15937 0.699219 4.35275 0.699219H19.8374C21.0307 0.699219 22 1.64841 22 2.81702C22 3.98563 21.0307 4.93482 19.8374 4.93482Z" fill="#9FC4E8"/>
</svg>
