<svg width="16" height="22" viewBox="0 0 16 22" fill="none" xmlns="http://www.w3.org/2000/svg">
<path d="M8.22468 0.901245C10.727 0.901245 12.7585 2.89057 12.7585 5.34093C12.7585 7.79129 10.727 9.78062 8.22468 9.78062C5.72239 9.78062 3.69092 7.79129 3.69092 5.34093C3.69092 2.89057 5.71869 0.901245 8.22468 0.901245Z" fill="#9FC4E8"/>
<path d="M14.2784 19.4259C10.5639 21.6585 5.88185 21.6585 2.17105 19.4259C0.243367 18.2643 -0.131056 15.6651 1.39997 14.0351C4.85869 10.3433 10.7159 10.0964 14.486 13.4797C14.6825 13.6576 14.8715 13.8427 15.0532 14.0351C16.5842 15.6687 16.2098 18.2643 14.2821 19.4259H14.2784Z" fill="#9FC4E8"/>
</svg>
