<svg width="25" height="26" viewBox="0 0 25 26" fill="none" xmlns="http://www.w3.org/2000/svg">
<path d="M24.7709 2.23133C24.3532 0.957705 23.1475 0.0884807 21.7852 0.0791842C16.7774 0.0652394 11.7695 0.0652394 6.7617 0.0791842C6.32974 0.0884807 5.90728 0.186094 5.5133 0.362728C4.17946 0.953057 3.5434 2.02216 3.53865 3.43523C3.52441 6.60999 3.5339 9.7801 3.53865 12.9502C3.5339 16.0459 3.5339 19.1463 3.53865 22.2421C3.53865 22.5721 3.56713 22.9021 3.6146 23.2275C3.85193 24.7661 5.19052 25.9049 6.78068 25.9188C11.7695 25.9374 16.7631 25.9374 21.752 25.9188C22.1744 25.9188 22.5921 25.8305 22.9766 25.6632C24.2725 25.0822 24.9893 24.0688 24.9893 22.6697C25.0035 16.2877 25.0035 9.9056 24.9893 3.52819C24.9845 3.09125 24.9133 2.65432 24.7757 2.23598L24.7709 2.23133ZM14.2663 6.25672C16.1983 6.3125 17.6982 7.72092 17.6982 9.6453C17.6982 11.5185 16.222 13.0153 14.2426 13.006C14.2189 13.006 14.1904 13.006 14.1666 13.006C12.2917 12.9781 10.7964 11.4721 10.8249 9.636C10.8249 7.76275 12.2917 6.30785 14.2663 6.25672ZM19.3026 19.7367H9.30596C8.55598 19.7367 8.18573 19.3695 8.23794 18.635C8.34237 17.0128 9.38191 15.5904 10.9199 14.9722C11.4183 14.7677 11.9547 14.6654 12.4958 14.6608C13.7822 14.6468 15.0733 14.6096 16.3549 14.698C17.9783 14.8142 19.1413 15.6787 19.8675 17.1011C20.1191 17.6078 20.2615 18.1609 20.2805 18.7233C20.3137 19.3323 19.9197 19.7227 19.2979 19.732L19.3026 19.7367Z" fill="#9FC4E8"/>
<path d="M0.0118408 3.58405C0.0118408 2.91006 0.567209 2.36621 1.25549 2.36621C1.93902 2.36621 2.49914 2.91006 2.49914 3.58405V6.87967C2.49914 7.55367 1.94377 8.09751 1.25549 8.09751C0.571956 8.09751 0.0118408 7.55367 0.0118408 6.87967V3.58405Z" fill="#9FC4E8"/>
<path d="M0.0118408 11.3511C0.0118408 10.6771 0.567209 10.1333 1.25549 10.1333C1.94377 10.1333 2.49914 10.6771 2.49914 11.3511V14.6468C2.49914 15.3208 1.94377 15.8646 1.25549 15.8646C0.567209 15.8646 0.0118408 15.3208 0.0118408 14.6468V11.3511Z" fill="#9FC4E8"/>
<path d="M0.0118408 19.1138C0.0118408 18.4398 0.567209 17.896 1.25549 17.896C1.93902 17.896 2.49914 18.4398 2.49914 19.1138V22.4095C2.49914 23.0835 1.94377 23.6273 1.25549 23.6273C0.571956 23.6273 0.0118408 23.0835 0.0118408 22.4095V19.1138Z" fill="#9FC4E8"/>
</svg>
