<svg width="19" height="19" viewBox="0 0 19 19" fill="none" xmlns="http://www.w3.org/2000/svg">
<path d="M18.8725 0.960133C18.5283 0.158431 17.5959 -0.216278 16.7941 0.127931L5.70915 4.87714C5.33442 5.03835 5.03812 5.33464 4.8769 5.70934L0.127451 16.7937C-0.0424837 17.1902 -0.0424837 17.6434 0.127451 18.0399C0.471678 18.8416 1.40414 19.2163 2.20588 18.8721L13.2908 14.1229C13.6656 13.9616 13.9619 13.6654 14.1231 13.2907L18.8725 2.20626C19.0425 1.80976 19.0425 1.35663 18.8725 0.960133ZM9.5 12.672C7.75272 12.672 6.33224 11.2559 6.33224 9.50436C6.33224 7.75281 7.74836 6.33676 9.5 6.33676C11.2516 6.33676 12.6678 7.75281 12.6678 9.50436C12.6678 11.2559 11.2516 12.672 9.5 12.672Z" fill="#9FC4E8"/>
</svg>
