<svg width="42" height="36" viewBox="0 0 42 36" fill="none" xmlns="http://www.w3.org/2000/svg">
<g clip-path="url(#clip0_126_1219)">
<path d="M2.618 36C1.17513 35.9919 0.007875 34.7971 0 33.3201V11.2787C0.007875 8.21895 2.429 5.74054 5.418 5.73248H30.968C33.9623 5.73248 36.3921 8.21357 36.4 11.2787V25.9682C36.4 29.0332 33.9762 31.5206 30.982 31.5287H9.674C9.43163 31.5305 9.19713 31.6111 9.002 31.758L4.2 35.4697C3.74238 35.8164 3.18763 36.0018 2.618 36ZM5.418 8.59872C3.97513 8.60679 2.80788 9.80165 2.8 11.2787V32.9618L7.322 29.465C8.00275 28.9473 8.82613 28.6669 9.674 28.6624H30.968C32.4214 28.6624 33.6 27.4559 33.6 25.9682V11.2787C33.5921 9.80165 32.4249 8.60679 30.982 8.59872H5.418Z" fill="white"/>
<path d="M23.7159 20.1927C24.4891 20.1927 25.1159 19.5511 25.1159 18.7596C25.1159 17.9681 24.4891 17.3264 23.7159 17.3264C22.9427 17.3264 22.3159 17.9681 22.3159 18.7596C22.3159 19.5511 22.9427 20.1927 23.7159 20.1927Z" fill="white"/>
<path d="M18.284 20.1927C19.0572 20.1927 19.684 19.5511 19.684 18.7596C19.684 17.9681 19.0572 17.3264 18.284 17.3264C17.5108 17.3264 16.884 17.9681 16.884 18.7596C16.884 19.5511 17.5108 20.1927 18.284 20.1927Z" fill="white"/>
<path d="M12.6839 20.1927C13.4571 20.1927 14.0839 19.5511 14.0839 18.7596C14.0839 17.9681 13.4571 17.3264 12.6839 17.3264C11.9107 17.3264 11.2839 17.9681 11.2839 18.7596C11.2839 19.5511 11.9107 20.1927 12.6839 20.1927Z" fill="white"/>
<path d="M40.6 21.4968C39.8265 21.4968 39.2 20.8555 39.2 20.0637V5.54618C39.1921 4.06917 38.0249 2.8743 36.582 2.86624H8.4C7.6265 2.86624 7 2.22492 7 1.43312C7 0.641322 7.6265 0 8.4 0H36.582C39.571 0.00806131 41.9921 2.48646 42 5.54618V20.0637C42 20.8555 41.3735 21.4968 40.6 21.4968Z" fill="white"/>
</g>
<defs>
<clipPath id="clip0_126_1219">
<rect width="42" height="36" fill="white"/>
</clipPath>
</defs>
</svg>
