<svg width="9" height="12" viewBox="0 0 9 12" fill="none" xmlns="http://www.w3.org/2000/svg">
<path d="M4.62415 0C6.00699 0 7.12966 1.09937 7.12966 2.45351C7.12966 3.80766 6.00699 4.90702 4.62415 4.90702C3.24131 4.90702 2.11865 3.80766 2.11865 2.45351C2.11865 1.09937 3.23926 0 4.62415 0Z" fill="#00338E"/>
<path d="M7.96963 10.2373C5.91688 11.4711 3.32943 11.4711 1.27873 10.2373C0.213427 9.59536 0.00650906 8.15896 0.852603 7.25821C2.764 5.21796 6.00087 5.08155 8.08436 6.95127C8.19293 7.04957 8.29742 7.15188 8.3978 7.25821C9.24389 8.16097 9.03698 9.59536 7.97168 10.2373H7.96963Z" fill="#00338E"/>
</svg>
