<svg width="23" height="16" viewBox="0 0 23 16" fill="none" xmlns="http://www.w3.org/2000/svg">
<path d="M22.9926 8.87084C22.9629 8.23616 22.3395 7.73431 21.1371 7.36531C20.202 7.08487 19.0145 6.91512 17.7306 6.89298V2.02952C17.7306 1.94833 17.7009 1.86715 17.6638 1.80073C17.5376 1.24723 16.9142 0.804423 15.8232 0.47232C14.7915 0.162356 13.4482 -0.00738525 12.0307 -0.00738525C10.6131 -0.00738525 9.28461 0.162356 8.27525 0.47232C7.44401 0.730622 6.4495 1.20295 6.4495 2.01475C6.4495 2.06642 6.4495 2.11808 6.46434 2.16236L6.5163 4.24354C3.53275 3.68265 0.660536 5.63099 0.0964827 8.5904C0.029687 8.92988 0 9.26199 0 9.60885C0 12.6125 2.46402 15.0627 5.48467 15.0627C6.74637 15.0627 7.96354 14.6347 8.94321 13.845C9.79671 14.0443 10.8061 14.155 11.8748 14.1624C12.1049 15.4243 14.8583 16 17.4188 16C18.829 16 20.1649 15.8303 21.1743 15.5129C22.0055 15.2546 23 14.7823 23 13.9631V8.9594C23 8.9594 23 8.90036 23 8.87084H22.9926ZM16.7732 4.5535C16.7732 4.61254 16.5505 4.92988 15.556 5.22509C14.6283 5.50553 13.3369 5.66789 12.0307 5.66789C10.8951 5.66789 9.78929 5.54981 8.91352 5.32841C8.89868 5.32841 8.89126 5.32841 8.87641 5.32103C8.43853 4.98154 7.96354 4.70848 7.44401 4.5166L7.41433 3.23247C7.73346 3.39483 8.06002 3.52029 8.40142 3.60885C9.39593 3.89667 10.6799 4.05166 12.0381 4.05166C13.3963 4.05166 14.799 3.88191 15.8306 3.57195C16.172 3.46863 16.506 3.34317 16.8251 3.17343V4.369C16.7732 4.43542 16.7806 4.49446 16.7806 4.5535H16.7732ZM9.47015 1.53505C10.153 1.32841 11.0658 1.21033 12.0381 1.21033C13.0103 1.21033 13.9529 1.32841 14.6357 1.53505C15.3704 1.75645 15.5337 1.98523 15.5337 2.02952C15.5337 2.0738 15.3704 2.30996 14.6357 2.52398C13.9529 2.73062 13.0029 2.8487 12.0381 2.8487C11.0732 2.8487 10.2197 2.738 9.55179 2.54612C8.82446 2.33948 8.62407 2.1107 8.60923 2.0369C8.60923 1.97047 8.76509 1.75645 9.47757 1.54243L9.47015 1.53505ZM7.8151 12.155C6.40497 13.4317 4.20813 13.3358 2.92417 11.9262C1.64021 10.5166 1.73669 8.33948 3.15424 7.06273C3.79251 6.48708 4.62375 6.16974 5.48467 6.16974C5.83349 6.16974 6.1749 6.2214 6.50887 6.32472C7.7112 6.7011 8.62407 7.69003 8.87641 8.91512C8.92094 9.14391 8.94321 9.38007 8.94321 9.60885C8.94321 10.583 8.53501 11.4981 7.80768 12.155H7.8151ZM9.72249 13.0701C10.0936 12.6199 10.3904 12.1107 10.6057 11.572C10.9916 11.6015 11.3998 11.6236 11.8228 11.631V11.7122L11.8525 13.2546C11.14 13.2472 10.435 13.1808 9.72991 13.0701H9.72249ZM10.9471 9.07011C11.2143 9.08487 11.4889 9.09963 11.7783 9.09963L11.808 10.7159C11.4889 10.7159 11.1697 10.7011 10.8654 10.6716C10.9322 10.3173 10.9693 9.96309 10.9693 9.60885C10.9693 9.43173 10.9619 9.25461 10.9471 9.07011ZM12.0752 8.19188H12.0307C11.5928 8.19188 11.1623 8.17712 10.769 8.1476C10.5983 7.53505 10.3162 6.9594 9.94514 6.45018C10.6354 6.53874 11.3256 6.58302 12.0232 6.58302C13.4408 6.58302 14.7915 6.41328 15.8232 6.10332C16.1646 6 16.4985 5.87453 16.8103 5.71217V6.90774C14.8435 6.9594 12.8248 7.37269 12.0752 8.19188ZM13.9603 8.9225C13.9603 8.9225 13.9603 8.9225 13.9603 8.90774C13.99 8.81918 14.2275 8.59778 14.9177 8.4059C15.5634 8.2214 16.4095 8.12546 17.2927 8.12546H17.352C18.302 8.12546 19.2372 8.23616 19.92 8.4428C20.6325 8.65682 20.7957 8.87084 20.8032 8.9225C20.8032 8.97416 20.6325 9.20295 19.8903 9.42435C19.2075 9.62361 18.3095 9.73431 17.3595 9.73431C16.4095 9.73431 15.5634 9.63099 14.9029 9.43911C14.183 9.23247 13.99 9.00368 13.9677 8.93726V8.9225H13.9603ZM20.9071 14.6494C19.9793 14.9373 18.7399 15.0996 17.4188 15.0996C16.0978 15.0996 14.8583 14.9446 13.938 14.6642C12.9732 14.369 12.7728 14.0664 12.7728 13.9926L12.7506 12.6642C13.1142 12.8413 13.5002 12.9815 13.8935 13.0775C14.8583 13.3284 16.0829 13.4686 17.3372 13.4686C18.7548 13.4686 20.0981 13.2989 21.1223 12.9889C21.4563 12.8856 21.7754 12.7601 22.0871 12.6052V13.9705C22.0871 14.0369 21.8793 14.3469 20.9071 14.6494ZM22.0871 11.2989C22.0871 11.3432 22.0574 11.4022 22.0574 11.4465C22.0574 11.5129 21.8422 11.8229 20.8551 12.1181C19.9126 12.3985 18.6657 12.5535 17.3372 12.5535C14.799 12.5535 13.092 11.9852 12.7283 11.5424V11.1587L12.706 10.1107C13.0252 10.2731 13.3591 10.3985 13.708 10.4945C14.7025 10.7823 15.9864 10.9373 17.3446 10.9373C18.7028 10.9373 20.0684 10.7749 21.0852 10.4723C21.434 10.3764 21.768 10.2435 22.0871 10.0812V11.2915V11.2989Z" fill="#00338E"/>
</svg>
