<svg width="18" height="18" viewBox="0 0 18 18" fill="none" xmlns="http://www.w3.org/2000/svg">
<g clip-path="url(#clip0_419_412)">
<path d="M1.11203 6.18726C0.496705 6.18726 0 5.67862 0 5.0485V3.02151C0 1.35892 1.32702 0 2.95058 0H4.92998C5.5453 0 6.04201 0.508646 6.04201 1.13876C6.04201 1.76887 5.5453 2.27752 4.92998 2.27752H2.95058C2.55025 2.27752 2.22405 2.61156 2.22405 3.02151V5.0485C2.22405 5.67862 1.72735 6.18726 1.11203 6.18726Z" fill="#00338E"/>
<path d="M16.888 6.18726C16.2727 6.18726 15.776 5.67862 15.776 5.0485V3.02151C15.776 2.61156 15.4498 2.27752 15.0494 2.27752H13.07C12.4547 2.27752 11.958 1.76887 11.958 1.13876C11.958 0.508646 12.4473 0 13.0626 0H15.042C16.673 0 17.9926 1.35892 17.9926 3.02151V5.0485C17.9926 5.67862 17.4959 6.18726 16.8806 6.18726H16.888Z" fill="#00338E"/>
<path d="M15.042 18H13.0626C12.4473 18 11.9506 17.4914 11.9506 16.8612C11.9506 16.2311 12.4473 15.7225 13.0626 15.7225H15.042C15.4423 15.7225 15.7685 15.3885 15.7685 14.9785V12.9515C15.7685 12.3214 16.2652 11.8127 16.8805 11.8127C17.4959 11.8127 17.9926 12.3214 17.9926 12.9515V14.9785C17.9926 16.6487 16.6656 18 15.042 18Z" fill="#00338E"/>
<path d="M4.92998 17.9924H2.95058C1.3196 17.9924 0 16.6335 0 14.9709V12.9439C0 12.3138 0.496705 11.8052 1.11203 11.8052C1.72735 11.8052 2.22405 12.3138 2.22405 12.9439V14.9709C2.22405 15.3809 2.55025 15.7149 2.95058 15.7149H4.92998C5.5453 15.7149 6.04201 16.2236 6.04201 16.8537C6.04201 17.4838 5.5453 17.9924 4.92998 17.9924Z" fill="#00338E"/>
<path d="M16.888 10.1349H1.11203C0.496705 10.1349 0 9.6263 0 8.99618C0 8.36607 0.496705 7.85742 1.11203 7.85742H16.888C17.5033 7.85742 18 8.36607 18 8.99618C18 9.6263 17.5033 10.1349 16.888 10.1349Z" fill="#00338E"/>
</g>
<defs>
<clipPath id="clip0_419_412">
<rect width="18" height="18" fill="white"/>
</clipPath>
</defs>
</svg>
