<svg width="21" height="21" viewBox="0 0 21 21" fill="none" xmlns="http://www.w3.org/2000/svg">
<g clip-path="url(#clip0_281_945)">
<mask id="mask0_281_945" style="mask-type:luminance" maskUnits="userSpaceOnUse" x="0" y="0" width="21" height="21">
<path d="M21 0H0V21H21V0Z" fill="white"/>
</mask>
<g mask="url(#mask0_281_945)">
<path d="M0.821078 21C0.607843 21 0.397059 20.9167 0.240196 20.7598C0.0220588 20.5417 -0.0539216 20.2206 0.0392157 19.9289L1.39216 15.7279C0.480392 14.1397 0 12.3431 0 10.5C0 9.08333 0.276961 7.70833 0.82598 6.41176C1.35539 5.16176 2.11275 4.03922 3.07598 3.07353C4.03922 2.10784 5.16177 1.35294 6.41422 0.823529C7.70833 0.276961 9.08333 0 10.5 0C11.9167 0 13.2917 0.276961 14.5882 0.82598C15.8382 1.35539 16.9608 2.11275 17.9265 3.07598C18.8922 4.03922 19.6471 5.16176 20.1765 6.41422C20.723 7.70833 21.0025 9.08333 21.0025 10.5024C21.0025 11.9216 20.7255 13.2941 20.1765 14.5907C19.6471 15.8407 18.8897 16.9632 17.9265 17.9289C16.9632 18.8946 15.8407 19.6495 14.5882 20.1789C13.2941 20.7255 11.9191 21.0049 10.5 21.0049C8.65931 21.0049 6.86029 20.5245 5.27206 19.6127L1.07108 20.9657C0.987745 20.9926 0.904412 21.0049 0.818627 21.0049L0.821078 21ZM5.37745 17.8922C5.52941 17.8922 5.68137 17.9338 5.81127 18.0172C7.21569 18.8946 8.83824 19.3603 10.5 19.3603C15.3848 19.3603 19.3603 15.3848 19.3603 10.5C19.3603 5.6152 15.3848 1.63971 10.5 1.63971C5.6152 1.63971 1.63971 5.6152 1.63971 10.5C1.63971 12.1642 2.10294 13.7843 2.98284 15.1887C3.11029 15.3946 3.14216 15.6446 3.06863 15.875L2.09314 18.9069L5.125 17.9314C5.20833 17.9044 5.29167 17.8922 5.37745 17.8922Z" fill="#00338E"/>
<path d="M11.5245 10.5C11.5245 11.0662 11.0662 11.5245 10.5 11.5245C9.9338 11.5245 9.47546 11.0662 9.47546 10.5C9.47546 9.9338 9.9338 9.47546 10.5 9.47546C11.0662 9.47546 11.5245 9.9338 11.5245 10.5Z" fill="#00338E"/>
<path d="M15.6275 10.5C15.6275 11.0662 15.1692 11.5245 14.603 11.5245C14.0368 11.5245 13.5785 11.0662 13.5785 10.5C13.5785 9.9338 14.0368 9.47546 14.603 9.47546C15.1692 9.47546 15.6275 9.9338 15.6275 10.5Z" fill="#00338E"/>
<path d="M7.42402 10.5C7.42402 11.0662 6.96569 11.5245 6.39951 11.5245C5.83333 11.5245 5.375 11.0662 5.375 10.5C5.375 9.9338 5.83333 9.47546 6.39951 9.47546C6.96569 9.47546 7.42402 9.9338 7.42402 10.5Z" fill="#00338E"/>
</g>
</g>
<defs>
<clipPath id="clip0_281_945">
<rect width="21" height="21" fill="white"/>
</clipPath>
</defs>
</svg>
