<svg width="52" height="52" viewBox="0 0 52 52" fill="none" xmlns="http://www.w3.org/2000/svg">
<path d="M26 0C11.66 0 0 11.66 0 26C0 40.34 11.66 52 26 52C40.34 52 52 40.34 52 26C52 11.66 40.34 0 26 0ZM35 12.07C38.26 12.07 40.91 14.72 40.91 17.98C40.91 21.24 38.26 23.88 35 23.88C34.63 23.88 34.27 23.84 33.92 23.78C33.96 23.48 33.98 23.18 33.98 22.87C33.98 19.83 32.18 17.16 29.44 16C30.26 13.66 32.46 12.07 35 12.07ZM26.51 16.96C27.11 16.96 27.7 17.05 28.25 17.22C30.74 17.99 32.41 20.25 32.41 22.86C32.41 23.31 32.36 23.75 32.25 24.2C32.22 24.33 32.18 24.48 32.13 24.64C31.36 27.11 29.09 28.77 26.5 28.77C23.91 28.77 21.64 27.11 20.87 24.63C20.82 24.48 20.78 24.34 20.75 24.18C20.65 23.75 20.6 23.31 20.6 22.86C20.6 20.25 22.27 17.98 24.77 17.22C25.32 17.05 25.91 16.96 26.51 16.96ZM18.02 12.07C20.56 12.07 22.76 13.66 23.58 16C20.84 17.16 19.04 19.83 19.04 22.87C19.04 23.18 19.06 23.48 19.1 23.78C18.74 23.85 18.38 23.88 18.02 23.88C14.77 23.88 12.12 21.23 12.12 17.98C12.12 14.73 14.77 12.07 18.02 12.07ZM8.59 33.21C9.46 28.75 13.43 25.44 18.02 25.44C18.53 25.44 19.05 25.48 19.55 25.56C20.19 27.22 21.38 28.55 22.87 29.38C19.72 30.48 17.14 32.96 15.99 36.18C13.31 35.84 10.78 34.82 8.6 33.21H8.59ZM26.51 41.21C23.07 41.21 19.82 40.14 17.07 38.1C17.12 37.83 17.18 37.55 17.26 37.27C18.44 33.18 22.24 30.32 26.5 30.32C28.82 30.32 31.07 31.16 32.82 32.69C34.22 33.91 35.22 35.48 35.74 37.25C35.82 37.52 35.89 37.81 35.94 38.1C33.19 40.13 29.94 41.2 26.5 41.2L26.51 41.21ZM37.04 36.18C36.4 34.39 35.31 32.78 33.86 31.51C32.77 30.56 31.51 29.84 30.16 29.37C31.65 28.54 32.83 27.21 33.47 25.55C33.97 25.47 34.49 25.43 35 25.43C37.32 25.43 39.57 26.27 41.32 27.8C42.94 29.21 44.03 31.12 44.43 33.21C42.25 34.82 39.72 35.84 37.04 36.18Z" fill="#00338E"/>
</svg>
