<svg width="52" height="52" viewBox="0 0 52 52" fill="none" xmlns="http://www.w3.org/2000/svg">
<path d="M26 0C11.64 0 0 11.64 0 26C0 40.36 11.64 52 26 52C40.36 52 52 40.36 52 26C51.98 11.65 40.35 0.02 26 0ZM31.39 9.03L38.2 15.83H33.87C32.5 15.83 31.39 14.72 31.39 13.35V9.03ZM38.56 39.14C38.56 41.46 36.68 43.33 34.37 43.33H17.65C15.33 43.33 13.45 41.45 13.45 39.14V12.87C13.45 10.55 15.33 8.67 17.65 8.67H30.16V13.36C30.16 15.41 31.82 17.07 33.87 17.08H38.56V39.15V39.14Z" fill="#00338E"/>
<path d="M35.2901 35.28H17.2501C16.9101 35.28 16.6401 35.57 16.6401 35.91C16.6401 36.24 16.9101 36.51 17.2501 36.52H35.2901C35.6301 36.52 35.9001 36.23 35.9001 35.89C35.9001 35.56 35.6301 35.29 35.2901 35.28Z" fill="#00338E"/>
<path d="M17.2501 31.57H35.2901C35.6301 31.57 35.9001 31.28 35.9001 30.94C35.9001 30.61 35.6301 30.34 35.2901 30.33H17.2501C16.9101 30.33 16.6401 30.62 16.6401 30.96C16.6401 31.29 16.9101 31.56 17.2501 31.57Z" fill="#00338E"/>
<path d="M17.2499 26.62H32.1899C32.5299 26.62 32.8099 26.34 32.8099 26C32.8099 25.66 32.5299 25.38 32.1899 25.38H17.2499C16.9099 25.38 16.6299 25.66 16.6299 26C16.6299 26.34 16.9099 26.62 17.2499 26.62Z" fill="#00338E"/>
<path d="M17.2501 21.67H28.4701C28.8101 21.67 29.0901 21.38 29.0801 21.04C29.0801 20.7 28.8001 20.43 28.4701 20.43H17.2501C16.9101 20.43 16.6401 20.72 16.6401 21.06C16.6401 21.39 16.9101 21.66 17.2501 21.67Z" fill="#00338E"/>
</svg>
