<svg width="52" height="52" viewBox="0 0 52 52" fill="none" xmlns="http://www.w3.org/2000/svg">
<path d="M51.9853 26C51.9853 11.6396 40.349 0 25.9926 0C11.6363 0 0 11.6396 0 26C0 40.3604 11.6363 52 25.9926 52C30.4879 52 34.7167 50.8596 38.4034 48.8484H45.3678C47.0284 48.8484 48.376 47.5004 48.376 45.8393V39.22C50.6686 35.3464 51.9853 30.825 51.9853 25.9969V26Z" fill="#00338E"/>
<path d="M36.0618 14.4596H16.5596C15.0556 14.4596 13.8364 15.6792 13.8364 17.1836C13.8364 18.688 15.0556 19.9075 16.5596 19.9075H36.0618C37.5658 19.9075 38.785 18.688 38.785 17.1836C38.785 15.6792 37.5658 14.4596 36.0618 14.4596Z" fill="white"/>
<path d="M36.0583 24.0849H13.898C12.394 24.0849 11.1748 25.3044 11.1748 26.8088C11.1748 28.3132 12.394 29.5328 13.898 29.5328H36.0583C37.5623 29.5328 38.7815 28.3132 38.7815 26.8088C38.7815 25.3044 37.5623 24.0849 36.0583 24.0849Z" fill="white"/>
<path d="M36.0582 33.7132H24.8526C23.3486 33.7132 22.1294 34.9328 22.1294 36.4372C22.1294 37.9416 23.3486 39.1612 24.8526 39.1612H36.0582C37.5622 39.1612 38.7814 37.9416 38.7814 36.4372C38.7814 34.9328 37.5622 33.7132 36.0582 33.7132Z" fill="white"/>
</svg>
