<svg width="52" height="52" viewBox="0 0 52 52" fill="none" xmlns="http://www.w3.org/2000/svg">
<path d="M17.33 17.95H11.13C11.13 15.9 12.8 14.24 14.86 14.24H17.33V17.95ZM23.7 26.27V31.57L28.29 28.88L23.7 26.27ZM32.19 14.24H27.24V17.95H32.19V14.24ZM24.75 14.24H19.8V17.95H24.75V14.24ZM37.13 14.24H34.66V17.95H40.86C40.86 15.9 39.19 14.24 37.13 14.24ZM51.99 26C51.99 40.36 40.35 52 25.99 52C11.63 52 0 40.36 0 26C0 11.64 11.64 0 26 0C40.36 0 52 11.64 52 26H51.99ZM43.32 17.95C43.32 14.53 40.54 11.76 37.12 11.75H14.86C11.44 11.75 8.67 14.53 8.66 17.95V34.04C8.66 37.46 11.44 40.23 14.86 40.24H37.13C40.55 40.24 43.32 37.46 43.33 34.04V17.95H43.32ZM11.12 20.42H40.85V34.04C40.85 36.09 39.18 37.75 37.12 37.75H14.86C12.81 37.75 11.14 36.09 11.13 34.04V20.42H11.12ZM21.23 31.57C21.23 32.93 22.34 34.04 23.7 34.04C24.14 34.04 24.57 33.93 24.94 33.71L29.53 31.07C30.73 30.4 31.15 28.88 30.48 27.69C30.26 27.29 29.93 26.96 29.53 26.74L24.92 24.13C23.74 23.44 22.23 23.84 21.54 25.02C21.32 25.4 21.2 25.84 21.2 26.28V31.58L21.23 31.57Z" fill="#00338E"/>
</svg>
