<svg width="52" height="52" viewBox="0 0 52 52" fill="none" xmlns="http://www.w3.org/2000/svg">
<path d="M51.19 19.57C47.64 5.66 33.48 -2.74 19.57 0.810002C5.66002 4.37 -2.73998 18.52 0.810018 32.43C3.75002 43.94 14.12 52 26 52C26.85 52 27.7 51.96 28.54 51.87C28.9 51.77 29.23 51.58 29.51 51.32L51 20.66C51.19 20.33 51.26 19.95 51.19 19.58V19.57ZM29.12 47.24C29.01 46.31 28.95 45.36 28.95 44.42C28.91 33.53 36.44 24.08 47.06 21.69L29.12 47.24ZM44.14 19.76L39.84 15.47C39.32 14.98 38.5 14.98 37.98 15.47L27.06 26.38L22.99 22.31C22.48 21.82 21.67 21.82 21.17 22.31L5.38002 36.89C-0.619982 25.47 3.79002 11.36 15.21 5.37C26.64 -0.619998 40.75 3.79 46.74 15.22C47.35 16.38 47.86 17.58 48.26 18.83C46.86 19.03 45.48 19.34 44.14 19.77V19.76Z" fill="#00338E"/>
</svg>
