<svg width="52" height="52" viewBox="0 0 52 52" fill="none" xmlns="http://www.w3.org/2000/svg">
<g clip-path="url(#clip0_460_714)">
<path d="M26 0C11.66 0 0 11.66 0 26C0 40.34 11.66 52 26 52C40.34 52 52 40.34 52 26C52 11.66 40.34 0 26 0ZM39.12 26C39.12 26.64 39.07 27.27 38.99 27.89L41.69 29.45C42.85 30.12 43.25 31.61 42.58 32.77L40.15 36.98C39.48 38.14 37.99 38.54 36.83 37.87L34.13 36.31C33.15 37.09 32.05 37.73 30.86 38.2V41.32C30.86 42.66 29.77 43.75 28.43 43.75H23.57C22.23 43.75 21.14 42.66 21.14 41.32V38.2C19.96 37.73 18.86 37.09 17.87 36.31L15.17 37.87C14.01 38.54 12.52 38.14 11.85 36.98L9.42 32.77C8.75 31.61 9.15 30.12 10.31 29.45L13.01 27.89C12.92 27.27 12.87 26.65 12.87 26C12.87 25.35 12.92 24.73 13.01 24.11L10.31 22.55C9.15 21.88 8.75 20.39 9.42 19.23L11.85 15.02C12.52 13.86 14.01 13.46 15.17 14.13L17.87 15.69C18.85 14.91 19.95 14.27 21.14 13.8V10.68C21.14 9.34 22.23 8.25 23.57 8.25H28.43C29.77 8.25 30.86 9.34 30.86 10.68V13.8C32.04 14.27 33.14 14.91 34.13 15.69L36.83 14.13C37.99 13.46 39.48 13.86 40.15 15.02L42.58 19.23C43.25 20.39 42.85 21.88 41.69 22.55L38.99 24.11C39.08 24.73 39.12 25.36 39.12 26Z" fill="#00338E"/>
<path d="M25.9999 20.17C22.7799 20.17 20.1699 22.78 20.1699 26C20.1699 29.22 22.7799 31.83 25.9999 31.83C29.2199 31.83 31.8299 29.22 31.8299 26C31.8299 22.78 29.2199 20.17 25.9999 20.17Z" fill="#00338E"/>
</g>
<defs>
<clipPath id="clip0_460_714">
<rect width="52" height="52" fill="white"/>
</clipPath>
</defs>
</svg>
