<svg width="38" height="38" viewBox="0 0 38 38" fill="none" xmlns="http://www.w3.org/2000/svg">
<g clip-path="url(#clip0_1451_5623)">
<path d="M20.0362 21.5083C21.4213 20.9346 22.0791 19.3466 21.5053 17.9615C20.9316 16.5765 19.3437 15.9187 17.9586 16.4924C16.5735 17.0662 15.9158 18.6541 16.4895 20.0392C17.0632 21.4243 18.6511 22.082 20.0362 21.5083Z" fill="#9FC4E8"/>
<path d="M18.9981 0C8.50585 0 0 8.50585 0 18.9981C0 29.4904 8.50585 37.9963 18.9981 37.9963C29.4904 37.9963 37.9963 29.4904 37.9963 18.9981C37.9963 8.50585 29.4942 0 18.9981 0ZM27.0298 12.7476L22.9598 22.2466C22.8217 22.5678 22.5678 22.8217 22.2466 22.9598L12.7476 27.0298C12.0605 27.3248 11.2615 27.0074 10.9665 26.3166C10.8209 25.9768 10.8209 25.5885 10.9665 25.2487L15.0365 15.7496C15.1746 15.4285 15.4285 15.1746 15.7496 15.0365L25.2487 10.9665C25.9357 10.6715 26.7348 10.9889 27.0298 11.6797C27.1754 12.0195 27.1754 12.4078 27.0298 12.7476Z" fill="#9FC4E8"/>
</g>
<defs>
<clipPath id="clip0_1451_5623">
<rect width="38" height="38" fill="white"/>
</clipPath>
</defs>
</svg>
