<svg width="43" height="43" viewBox="0 0 43 43" fill="none" xmlns="http://www.w3.org/2000/svg">
<path d="M21.21 42.42C32.924 42.42 42.42 32.924 42.42 21.21C42.42 9.49604 32.924 0 21.21 0C9.49604 0 0 9.49604 0 21.21C0 32.924 9.49604 42.42 21.21 42.42Z" fill="#19AA33"/>
<path d="M24.97 29.6001H17.46C14.91 29.6001 12.83 27.5201 12.83 24.9701V17.4601C12.83 14.9101 14.91 12.8301 17.46 12.8301H24.97C27.52 12.8301 29.6 14.9101 29.6 17.4601V24.9701C29.6 27.5201 27.52 29.6001 24.97 29.6001ZM17.46 13.8301C15.46 13.8301 13.83 15.4601 13.83 17.4601V24.9701C13.83 26.9701 15.46 28.6001 17.46 28.6001H24.97C26.97 28.6001 28.6 26.9701 28.6 24.9701V17.4601C28.6 15.4601 26.97 13.8301 24.97 13.8301H17.46Z" fill="#CFF9D4"/>
<path d="M21.21 24.13C20.93 24.13 20.71 23.91 20.71 23.63V18.79C20.71 18.51 20.93 18.29 21.21 18.29C21.49 18.29 21.71 18.51 21.71 18.79V23.63C21.71 23.91 21.49 24.13 21.21 24.13Z" fill="#CFF9D4"/>
<path d="M23.63 21.71H18.79C18.51 21.71 18.29 21.49 18.29 21.21C18.29 20.93 18.51 20.71 18.79 20.71H23.63C23.91 20.71 24.13 20.93 24.13 21.21C24.13 21.49 23.91 21.71 23.63 21.71Z" fill="#CFF9D4"/>
</svg>
