<svg width="45" height="34" viewBox="0 0 45 34" fill="none" xmlns="http://www.w3.org/2000/svg">
<g clip-path="url(#clip0_2078_4514)">
<path d="M43.8556 34.0002H1.13724C0.503839 34.0002 0 33.4771 0 32.8362V7.80954C0 7.16122 0.511036 6.64551 1.13724 6.64551H43.8556C44.489 6.64551 44.9928 7.16858 44.9928 7.80954V32.8362C44.9928 33.4845 44.4818 34.0002 43.8556 34.0002ZM2.28167 31.6648H42.7183V8.97357H2.28167V31.6648Z" fill="black"/>
<path d="M36.4995 30.4637H8.50047C7.86708 30.4637 7.36324 29.9406 7.36324 29.2996C7.36324 28.003 6.33397 26.9569 5.07437 26.9569C4.44097 26.9569 3.93713 26.4338 3.93713 25.7928V14.8671C3.93713 14.2188 4.44817 13.7031 5.07437 13.7031C6.34116 13.7031 7.36324 12.6496 7.36324 11.3603C7.36324 10.712 7.87427 10.1963 8.50047 10.1963H36.4995C37.1329 10.1963 37.6367 10.7194 37.6367 11.3603C37.6367 12.6496 38.6588 13.6957 39.9184 13.7031C40.5518 13.7031 41.0557 14.2262 41.0557 14.8671V25.7928C41.0557 26.4411 40.5446 26.9569 39.9184 26.9569C38.6516 26.9569 37.6295 28.003 37.6295 29.2996C37.6295 29.9406 37.1257 30.4637 36.4995 30.4637ZM9.50095 28.1283H35.5062C35.9237 26.4853 37.1761 25.1961 38.7812 24.7614V15.8765C37.1689 15.4492 35.9165 14.1599 35.4918 12.5096H9.50095C9.08349 14.1599 7.82389 15.4418 6.21161 15.8765V24.7614C7.82389 25.1887 9.08349 26.478 9.50095 28.1283Z" fill="black"/>
<path d="M30.8421 18.654C35.8747 18.654 39.9544 14.4781 39.9544 9.32698C39.9544 4.17583 35.8747 0 30.8421 0C25.8096 0 21.7299 4.17583 21.7299 9.32698C21.7299 14.4781 25.8096 18.654 30.8421 18.654Z" fill="#19AA33"/>
<path d="M36.0893 9.71751C36.0893 10.0343 35.8877 10.3216 35.5422 10.4984L28.5533 14.0789C28.3805 14.1674 28.215 14.2116 28.0638 14.2116C27.8407 14.2116 27.6464 14.1158 27.524 13.9463C27.416 13.799 27.3153 13.5411 27.4376 13.1212L28.2222 10.4321C28.251 10.3511 28.2654 10.2553 28.2726 10.1595H32.584C32.8215 10.1595 33.0087 9.96063 33.0087 9.72488C33.0087 9.48913 32.8143 9.29021 32.584 9.29021H28.2726C28.2654 9.18707 28.2438 9.09129 28.2222 9.01762L27.4376 6.32856C27.3153 5.90863 27.416 5.65077 27.524 5.50343C27.7327 5.2161 28.1286 5.1498 28.5533 5.37082L35.5422 8.95132C35.8877 9.12813 36.0893 9.41545 36.0893 9.73225V9.71751Z" fill="#CFF9D4"/>
</g>
<defs>
<clipPath id="clip0_2078_4514">
<rect width="45" height="34" fill="white"/>
</clipPath>
</defs>
</svg>
