<svg width="28" height="20" viewBox="0 0 28 20" fill="none" xmlns="http://www.w3.org/2000/svg">
<path d="M24.94 0H3.06C1.37 0 0 1.37 0 3.06V16.18C0 17.87 1.37 19.24 3.06 19.24H24.94C26.63 19.24 28 17.87 28 16.18V3.06C28 1.37 26.63 0 24.94 0ZM3.06 1.75H24.94C25.66 1.75 26.25 2.34 26.25 3.06V4.81H1.75V3.06C1.75 2.34 2.34 1.75 3.06 1.75ZM24.94 17.5H3.06C2.34 17.5 1.75 16.91 1.75 16.19V6.56H26.25V16.18C26.25 16.9 25.66 17.49 24.94 17.49V17.5Z" fill="black"/>
<path d="M6.11999 14.8802H5.23998C4.75998 14.8802 4.35999 14.4902 4.35999 14.0002V13.1202C4.35999 12.6402 4.74998 12.2402 5.23998 12.2402H6.11999C6.59999 12.2402 6.99999 12.6302 6.99999 13.1202V14.0002C6.99999 14.4802 6.60999 14.8802 6.11999 14.8802Z" fill="black"/>
</svg>
