<svg width="133" height="104" viewBox="0 0 133 104" fill="none" xmlns="http://www.w3.org/2000/svg">
<g clip-path="url(#clip0_711_642)">
<path d="M6.60719 104C4.77565 104 3.27791 103.613 2.1225 102.838C0.967096 102.072 0.265294 100.979 0.00853715 99.5763C-0.0428142 99.2493 0.0342128 98.9739 0.213943 98.7845C0.393672 98.5866 0.667546 98.4919 1.01845 98.4919H3.73151C4.01394 98.4919 4.21935 98.5522 4.34773 98.6727C4.48466 98.7931 4.60448 98.9911 4.7243 99.2579C4.98962 100.05 5.62295 100.454 6.60719 100.454C7.1207 100.454 7.55719 100.334 7.91665 100.084C8.27611 99.8345 8.46439 99.5247 8.46439 99.146C8.46439 98.819 8.31034 98.5263 8.00223 98.2768C7.70268 98.0358 7.30043 97.8206 6.79547 97.6571C6.29908 97.485 5.75133 97.3128 5.15223 97.1321C4.55313 96.9514 3.96259 96.719 3.36349 96.4522C2.76439 96.1854 2.2252 95.867 1.72025 95.4969C1.21529 95.1268 0.8216 94.6276 0.513492 93.9908C0.213943 93.3539 0.0513299 92.6223 0.0513299 91.8047C0.0513299 90.1523 0.633312 88.8699 1.79728 87.9663C2.96124 87.0626 4.5189 86.6064 6.45313 86.6064C8.22475 86.6064 9.66259 86.9593 10.7495 87.6822C11.845 88.4052 12.5126 89.4207 12.7522 90.7375C12.8036 91.0646 12.7437 91.3228 12.5554 91.5207C12.3757 91.7187 12.1018 91.8133 11.7509 91.8133H9.08917C8.66124 91.8133 8.33601 91.6068 8.11349 91.1937C7.81394 90.4965 7.24052 90.1437 6.40178 90.1437C5.90538 90.1437 5.50313 90.2556 5.18647 90.4707C4.8698 90.6945 4.71574 90.9871 4.71574 91.3486C4.71574 91.7101 4.92115 92.0543 5.33196 92.3297C5.74277 92.5965 6.26484 92.8031 6.88962 92.9494C7.51439 93.0957 8.1734 93.3022 8.89232 93.569C9.61124 93.8358 10.2788 94.1457 10.895 94.4985C11.5112 94.8514 12.0333 95.3764 12.4527 96.0735C12.8635 96.7706 13.0689 97.5968 13.0689 98.5694C13.0689 100.239 12.4869 101.564 11.3058 102.528C10.1248 103.492 8.54998 103.966 6.55583 103.966V103.991L6.60719 104Z" fill="#99C7FF"/>
<path d="M20.746 94.9545V98.7671C20.746 99.4384 21.0712 99.7655 21.7217 99.7655H22.2181C22.8343 99.7655 23.1424 100.067 23.1424 100.678V102.726C23.1424 103.346 22.8428 103.656 22.2181 103.656H20.532C19.3167 103.656 18.3496 103.311 17.6136 102.631C16.8775 101.952 16.5181 101.039 16.5181 99.9032V94.9459H15.4482C14.832 94.9459 14.5239 94.6447 14.5239 94.0336V91.9853C14.5239 91.4345 14.8064 91.1504 15.3541 91.1504H15.6964C16.4239 91.1504 16.7919 90.7804 16.8005 90.0488V88.8267C16.8005 88.207 17.1001 87.8972 17.7077 87.8972H19.8217C20.4379 87.8972 20.746 88.1984 20.746 88.8267V91.1504H22.3636C22.9798 91.1504 23.2879 91.4517 23.2879 92.0799V94.0336C23.2879 94.6447 22.9883 94.9459 22.3636 94.9459H20.746V94.9545Z" fill="#99C7FF"/>
<path d="M29.1761 98.6725V99.3524C29.1761 99.7655 29.3131 100.101 29.587 100.342C29.8608 100.583 30.2288 100.712 30.691 100.712C31.2388 100.712 31.641 100.531 31.8978 100.161C32.1545 99.8343 32.4284 99.6622 32.7451 99.6622H35.3811C35.6464 99.6622 35.8689 99.7397 36.023 99.8946C36.177 100.05 36.2284 100.282 36.1599 100.592C35.9802 101.633 35.3982 102.451 34.4225 103.062C33.4469 103.673 32.2144 103.974 30.7081 103.974C28.9707 103.974 27.5757 103.501 26.5315 102.537C25.4874 101.573 24.9653 100.299 24.9653 98.7155V96.125C24.9653 94.5328 25.4874 93.2676 26.523 92.3037C27.5586 91.3398 28.9279 90.8665 30.6397 90.8665C32.3514 90.8665 33.7293 91.357 34.7563 92.3295C35.7919 93.3107 36.2969 94.6016 36.2969 96.2283V97.7516C36.2969 98.3626 35.9973 98.6639 35.3725 98.6639H29.1761V98.6725ZM30.6225 94.1283C30.1861 94.1283 29.8352 94.2488 29.5698 94.4984C29.3045 94.748 29.1676 95.075 29.1676 95.4881V96.1508H32.0261V95.4881C32.0261 95.075 31.9063 94.7393 31.6496 94.4984C31.3928 94.2574 31.0505 94.1283 30.614 94.1283H30.6225Z" fill="#99C7FF"/>
<path d="M39.5149 102.64C38.7875 101.96 38.4194 101.048 38.4194 99.9377V87.0711C38.4194 86.4514 38.719 86.1416 39.3438 86.1416H41.7402C42.3564 86.1416 42.6645 86.4428 42.6645 87.0711V98.7844C42.6645 99.4299 42.9811 99.7656 43.623 99.7656H43.8541C44.2307 99.7656 44.4275 99.9463 44.4275 100.316V102.735C44.4275 103.354 44.128 103.664 43.5032 103.664H42.4334C41.2181 103.664 40.251 103.32 39.5149 102.64Z" fill="#99C7FF"/>
<path d="M47.1404 102.64C46.4129 101.96 46.0449 101.048 46.0449 99.9377V87.0711C46.0449 86.4514 46.3445 86.1416 46.9692 86.1416H49.3656C49.9819 86.1416 50.29 86.4428 50.29 87.0711V98.7844C50.29 99.4299 50.6066 99.7656 51.2485 99.7656H51.4796C51.8562 99.7656 52.053 99.9463 52.053 100.316V102.735C52.053 103.354 51.7535 103.664 51.1287 103.664H50.0589C48.8436 103.664 47.8765 103.32 47.1404 102.64Z" fill="#99C7FF"/>
<path d="M59.3622 90.8923C61.0226 90.8923 62.3491 91.271 63.3505 92.0369C64.3518 92.8029 64.8482 93.8185 64.8482 95.075V102.761C64.8482 103.38 64.5487 103.69 63.9239 103.69H61.6644C61.0482 103.69 60.7401 103.389 60.7401 102.761V102.33H60.5005C59.987 103.432 58.9428 103.983 57.368 103.991C56.2126 103.991 55.2798 103.664 54.5523 102.993C53.8248 102.322 53.4568 101.418 53.4568 100.282C53.4568 99.1458 53.8334 98.2336 54.578 97.5364C55.3226 96.8393 56.3068 96.4864 57.5307 96.4864H60.6203V95.3418C60.6203 94.9717 60.5005 94.6791 60.2523 94.4639C60.0126 94.2402 59.696 94.1369 59.2937 94.1369C58.6604 94.1369 58.2581 94.3779 58.0784 94.8857C57.8987 95.316 57.5906 95.5311 57.1798 95.5311H54.8262C54.2099 95.5311 53.9018 95.2299 53.9018 94.6189C53.9018 93.5344 54.4153 92.6394 55.4424 91.9336C56.478 91.2279 57.7874 90.8665 59.3793 90.8665V90.9009L59.3622 90.8923ZM59.0798 101.022C59.5334 101.022 59.8928 100.927 60.1753 100.729C60.4577 100.531 60.6032 100.273 60.6032 99.9634V99.0339H58.8658C58.5149 99.0339 58.2325 99.12 58.0271 99.3007C57.8217 99.4815 57.7104 99.7139 57.7104 99.9979C57.7104 100.316 57.8302 100.557 58.087 100.747C58.3437 100.927 58.6689 101.013 59.0798 101.013V101.022Z" fill="#99C7FF"/>
<path d="M74.1085 90.9269C74.408 90.8925 74.6562 90.9527 74.8274 91.1076C74.9985 91.2625 75.0841 91.5121 75.0841 91.8306V94.3092C75.0841 94.9289 74.7846 95.2387 74.1598 95.2387C72.3967 95.2387 71.5238 96.0735 71.5238 97.7174V102.735C71.5238 103.355 71.2242 103.664 70.5994 103.664H68.2031C67.5868 103.664 67.2787 103.363 67.2958 102.735V92.0801C67.2958 91.4605 67.5954 91.1507 68.2031 91.1507H70.5994C71.2157 91.1507 71.5238 91.4519 71.5238 92.0801V93.1559H71.7463C72.1485 91.7531 72.9359 91.0043 74.117 90.9097L74.1085 90.9269Z" fill="#99C7FF"/>
<path d="M89.1544 103.923C87.1003 103.923 85.4485 103.346 84.2075 102.201C82.9666 101.057 82.3503 99.5418 82.3503 97.657V92.846C82.3503 90.9612 82.9666 89.4465 84.2075 88.3019C85.4485 87.1572 87.1003 86.5806 89.1544 86.5806C91.2084 86.5806 92.8431 87.1056 94.0585 88.1469C95.2738 89.1883 95.8814 90.6772 95.8814 92.6137C95.8814 93.2505 95.5904 93.569 94.9913 93.569H92.3553C91.8589 93.569 91.5422 93.2678 91.4053 92.6653C91.2256 91.3571 90.4724 90.7117 89.1458 90.7117C88.4269 90.7117 87.8621 90.9182 87.4341 91.3313C87.0062 91.7444 86.8008 92.2866 86.8008 92.9407V97.5968C86.8008 98.2681 87.0062 98.8017 87.4341 99.2234C87.8621 99.6451 88.4269 99.8431 89.1458 99.8431C90.4981 99.8431 91.2512 99.1976 91.4139 97.8894C91.5508 97.287 91.8675 96.9857 92.3639 96.9857H94.9999C95.599 96.9857 95.89 97.33 95.8729 98.0099C95.8729 99.9291 95.2652 101.409 94.0413 102.434C92.8175 103.458 91.1828 103.974 89.1458 103.974V103.923H89.1544Z" fill="#99C7FF"/>
<path d="M106.006 90.8751C107.059 90.8751 107.923 91.1936 108.582 91.8391C109.241 92.4845 109.567 93.3452 109.567 94.4038V102.761C109.567 103.38 109.267 103.69 108.642 103.69H106.263C105.647 103.69 105.339 103.389 105.339 102.761V96.082C105.339 95.7033 105.227 95.4021 104.996 95.1783C104.765 94.9546 104.449 94.8513 104.046 94.8513C103.644 94.8513 103.293 94.9632 103.028 95.1783C102.763 95.4021 102.626 95.6775 102.626 96.0304V102.735C102.626 103.354 102.326 103.664 101.701 103.664H99.3049C98.6886 103.664 98.3805 103.363 98.3976 102.735V87.0711C98.3976 86.4514 98.6972 86.1416 99.3049 86.1416H101.701C102.317 86.1416 102.626 86.4428 102.626 87.0711V92.7772H102.848C103.113 92.2005 103.524 91.7358 104.089 91.3829C104.654 91.0301 105.296 90.8493 106.023 90.8493V90.8751H106.006Z" fill="#99C7FF"/>
<path d="M117.261 90.8923C118.921 90.8923 120.248 91.271 121.249 92.0369C122.251 92.8029 122.747 93.8185 122.747 95.075V102.761C122.747 103.38 122.447 103.69 121.823 103.69H119.563C118.947 103.69 118.639 103.389 118.639 102.761V102.33H118.399C117.886 103.432 116.841 103.983 115.267 103.991C114.111 103.991 113.178 103.664 112.451 102.993C111.723 102.322 111.355 101.418 111.355 100.282C111.355 99.1458 111.732 98.2336 112.477 97.5364C113.221 96.8393 114.205 96.4864 115.429 96.4864H118.519V95.3418C118.519 94.9717 118.399 94.6791 118.151 94.4639C117.911 94.2402 117.595 94.1369 117.192 94.1369C116.559 94.1369 116.157 94.3779 115.977 94.8857C115.797 95.316 115.489 95.5311 115.078 95.5311H112.725C112.109 95.5311 111.801 95.2299 111.801 94.6189C111.801 93.5344 112.314 92.6394 113.341 91.9336C114.377 91.2279 115.686 90.8665 117.278 90.8665V90.9009L117.261 90.8923ZM116.978 101.022C117.432 101.022 117.792 100.927 118.074 100.729C118.356 100.531 118.502 100.273 118.502 99.9634V99.0339H116.764C116.414 99.0339 116.131 99.12 115.926 99.3007C115.72 99.4815 115.609 99.7139 115.609 99.9979C115.609 100.316 115.729 100.557 115.986 100.747C116.242 100.927 116.568 101.013 116.978 101.013V101.022Z" fill="#99C7FF"/>
<path d="M130.467 94.9545V98.7671C130.467 99.4384 130.792 99.7655 131.442 99.7655H131.939C132.555 99.7655 132.863 100.067 132.863 100.678V102.726C132.863 103.346 132.564 103.656 131.939 103.656H130.253C129.037 103.656 128.07 103.311 127.334 102.631C126.598 101.952 126.239 101.039 126.239 99.9032V94.9459H125.169C124.553 94.9459 124.245 94.6447 124.245 94.0336V91.9853C124.245 91.4345 124.527 91.1504 125.075 91.1504H125.417C126.145 91.1504 126.513 90.7804 126.521 90.0488V88.8267C126.521 88.207 126.821 87.8972 127.428 87.8972H129.542C130.159 87.8972 130.467 88.1984 130.467 88.8267V91.1504H132.084C132.7 91.1504 133.009 91.4517 133.009 92.0799V94.0336C133.009 94.6447 132.709 94.9459 132.084 94.9459H130.467V94.9545Z" fill="#99C7FF"/>
<path d="M99.596 38.3674C99.596 17.1784 82.5131 0 61.4419 0C40.3707 0 23.2878 17.1784 23.2878 38.3674C23.2878 59.5564 40.3707 76.7349 61.4419 76.7349C68.0405 76.7349 74.2455 75.048 79.6631 72.0874H89.882C92.3212 72.0874 94.2982 70.0993 94.2982 67.6465V57.8782C97.6617 52.1635 99.596 45.4935 99.596 38.3674Z" fill="#99C7FF"/>
<path d="M76.2224 21.3352H47.594C45.3866 21.3352 43.5972 23.1347 43.5972 25.3544C43.5972 27.5741 45.3866 29.3736 47.594 29.3736H76.2224C78.4298 29.3736 80.2192 27.5741 80.2192 25.3544C80.2192 23.1347 78.4298 21.3352 76.2224 21.3352Z" fill="#00338E"/>
<path d="M76.2225 35.5444H43.6914C41.484 35.5444 39.6946 37.3439 39.6946 39.5636C39.6946 41.7834 41.484 43.5828 43.6914 43.5828H76.2225C78.4299 43.5828 80.2194 41.7834 80.2194 39.5636C80.2194 37.3439 78.4299 35.5444 76.2225 35.5444Z" fill="#00338E"/>
<path d="M76.214 49.7451H59.7644C57.557 49.7451 55.7676 51.5446 55.7676 53.7643C55.7676 55.9841 57.557 57.7835 59.7644 57.7835H76.214C78.4214 57.7835 80.2108 55.9841 80.2108 53.7643C80.2108 51.5446 78.4214 49.7451 76.214 49.7451Z" fill="#00338E"/>
</g>
<defs>
<clipPath id="clip0_711_642">
<rect width="133" height="104" fill="white"/>
</clipPath>
</defs>
</svg>
