<svg width="45" height="45" viewBox="0 0 45 45" fill="none" xmlns="http://www.w3.org/2000/svg">
<g clip-path="url(#clip0_892_5387)">
<path d="M45 22.5C45 10.074 34.926 0 22.5 0C10.074 0 0 10.074 0 22.5C0 34.926 10.074 45 22.5 45C26.3913 45 30.0505 44.0108 33.2453 42.2746H39.2715C40.71 42.2746 41.8758 41.1087 41.8758 39.6703V33.9418C43.8594 30.5905 45 26.679 45 22.5Z" fill="#99C7FF"/>
<path d="M31.2161 12.5118H14.3336C13.0318 12.5118 11.9766 13.567 11.9766 14.8688C11.9766 16.1705 13.0318 17.2258 14.3336 17.2258H31.2161C32.5179 17.2258 33.5731 16.1705 33.5731 14.8688C33.5731 13.567 32.5179 12.5118 31.2161 12.5118Z" fill="#00338E"/>
<path d="M31.2163 20.8445H12.0323C10.7306 20.8445 9.67529 21.8998 9.67529 23.2015C9.67529 24.5033 10.7306 25.5585 12.0323 25.5585H31.2163C32.5181 25.5585 33.5733 24.5033 33.5733 23.2015C33.5733 21.8998 32.5181 20.8445 31.2163 20.8445Z" fill="#00338E"/>
<path d="M31.2162 29.1723H21.5157C20.214 29.1723 19.1587 30.2275 19.1587 31.5293C19.1587 32.831 20.214 33.8863 21.5157 33.8863H31.2162C32.518 33.8863 33.5732 32.831 33.5732 31.5293C33.5732 30.2275 32.518 29.1723 31.2162 29.1723Z" fill="#00338E"/>
</g>
<defs>
<clipPath id="clip0_892_5387">
<rect width="45" height="45" fill="white"/>
</clipPath>
</defs>
</svg>
