<svg width="56" height="24" viewBox="0 0 56 24" fill="none" xmlns="http://www.w3.org/2000/svg">
<g clip-path="url(#clip0_2080_6531)">
<path d="M10.5841 3.09315C11.2457 2.25924 11.6906 1.14145 11.5735 0C10.6076 0.0473139 9.43089 0.644652 8.74597 1.47856C8.13129 2.19418 7.59272 3.35929 7.73321 4.45342C8.81622 4.54805 9.89922 3.90931 10.5841 3.09906V3.09315Z" fill="black"/>
<path d="M11.5618 4.66648C9.98706 4.57185 8.65233 5.57135 7.89716 5.57135C7.14198 5.57135 5.99459 4.7197 4.74767 4.73745C3.12609 4.7611 1.62745 5.68964 0.802029 7.15637C-0.889796 10.1017 0.35712 14.4664 2.00211 16.8616C2.79827 18.0504 3.76419 19.3515 5.02867 19.3042C6.22875 19.2569 6.69707 18.5235 8.15474 18.5235C9.6124 18.5235 10.0339 19.3042 11.2984 19.2806C12.6155 19.2569 13.4351 18.0918 14.2313 16.909C15.1445 15.5546 15.5192 14.2535 15.5484 14.1825C15.525 14.1588 13.0136 13.183 12.9902 10.2673C12.9668 7.82468 14.963 6.65958 15.0567 6.5886C13.9268 4.90305 12.1706 4.71379 11.5559 4.66648H11.5618Z" fill="black"/>
<path d="M25.2604 1.36035C28.6791 1.36035 31.0617 3.74379 31.0617 7.20954C31.0617 10.6753 28.6323 13.0824 25.1726 13.0824H21.385V19.1681H18.6511V1.36035H25.2604ZM21.3908 10.764H24.5286C26.9112 10.764 28.2635 9.46878 28.2635 7.22137C28.2635 4.97395 26.9054 3.69056 24.5403 3.69056H21.3908V10.7581V10.764Z" fill="black"/>
<path d="M31.7759 15.4716C31.7759 13.2006 33.497 11.8048 36.5528 11.6333L40.0711 11.4263V10.4268C40.0711 8.98371 39.1052 8.12023 37.4953 8.12023C35.9674 8.12023 35.0132 8.85951 34.7849 10.0187H32.291C32.4374 7.67667 34.4161 5.94971 37.589 5.94971C40.7619 5.94971 42.6937 7.61752 42.6937 10.2198V19.168H40.1648V17.033H40.1062C39.3628 18.4761 37.7353 19.3869 36.0493 19.3869C33.5321 19.3869 31.7759 17.8078 31.7759 15.4776V15.4716ZM40.0711 14.3006V13.2775L36.9099 13.4726C35.3352 13.585 34.4453 14.2888 34.4453 15.3948C34.4453 16.5007 35.3761 17.2696 36.7928 17.2696C38.6368 17.2696 40.0769 15.9862 40.0769 14.2947L40.0711 14.3006Z" fill="black"/>
<path d="M45.0823 23.9348V21.7761C45.2755 21.8234 45.7146 21.8234 45.937 21.8234C47.1605 21.8234 47.8162 21.303 48.2201 19.9722C48.2201 19.9486 48.4543 19.1797 48.4543 19.1679L43.812 6.17432H46.6688L49.9178 16.7372H49.9646L53.2136 6.17432H56.0002L51.1881 19.8303C50.0876 22.9767 48.8172 23.988 46.1595 23.988C45.937 23.988 45.2814 23.9644 45.0823 23.9289V23.9348Z" fill="black"/>
</g>
<defs>
<clipPath id="clip0_2080_6531">
<rect width="56" height="24" fill="white"/>
</clipPath>
</defs>
</svg>
