<?xml version="1.0" encoding="UTF-8"?>
<svg id="Layer_2" data-name="Layer 2" xmlns="http://www.w3.org/2000/svg" viewBox="0 0 52 52">
  <defs>
    <style>
      .cls-1 {
      fill: #f5f5f5;
      }

      .cls-1, .cls-2 {
      stroke-width: 0px;
      }

      .cls-2 {
      fill: #00338e;
      }
    </style>
  </defs>
  <g id="Layer_1-2" data-name="Layer 1">
    <g>
      <circle class="cls-1" cx="26" cy="26" r="24.25"/>
      <path class="cls-2" d="m26,0C11.64,0,0,11.64,0,26s11.64,26,26,26,26-11.64,26-26C51.98,11.65,40.35.02,26,0Zm15.41,26.59c-.78-.78-2.05-.78-2.83,0l-8.59,8.59-14.59-14.59c-.78-.78-2.05-.78-2.83,0l-8.36,8.36c-.14-.98-.21-1.96-.22-2.95-.02-12.15,9.82-22.02,21.97-22.03,12.15,0,22.02,9.82,22.03,21.97,0,2.14-.31,4.27-.92,6.32l-5.67-5.67h.01Z"/>
      <path class="cls-2" d="m34,16.5c1.38,0,2.5-1.12,2.5-2.5s-1.12-2.5-2.5-2.5-2.5,1.12-2.5,2.5,1.12,2.5,2.5,2.5Z"/>
    </g>
  </g>
</svg>