<svg width="24" height="32" viewBox="0 0 24 32" fill="none" xmlns="http://www.w3.org/2000/svg">
<g clip-path="url(#clip0_1251_3157)">
<path fill-rule="evenodd" clip-rule="evenodd" d="M4.17209 0H14.9093L24 9.46087V27.833C24 30.1357 22.1372 32 19.8279 32H4.17209C1.87674 32 0 30.1287 0 27.833V4.16C0 1.8713 1.87674 0 4.17209 0Z" fill="#008BF5"/>
<path opacity="0.3" fill-rule="evenodd" clip-rule="evenodd" d="M14.8953 0V9.37739H23.9929L14.8953 0Z" fill="white"/>
<path d="M8.0581 16.3963C9.0767 15.3945 10.472 14.7754 12.0069 14.7754C13.5418 14.7754 14.9372 15.3945 15.9418 16.3963C16.9604 17.398 17.5814 18.7893 17.5814 20.3058V22.7963C17.5814 23.1232 17.4558 23.4293 17.2325 23.638C17.0232 23.8606 16.7162 23.9858 16.3883 23.9858H15.8162V20.3545H16.4372V20.3058C16.4372 19.1023 15.9348 18.0032 15.1395 17.2102C14.3441 16.4171 13.2279 15.9163 12.0139 15.9163C10.8 15.9163 9.68368 16.4102 8.87437 17.2102C8.07903 18.0032 7.58368 19.1023 7.58368 20.3058V20.3545H8.20461V23.9858H7.63251C7.29065 23.9858 6.99763 23.8606 6.77437 23.638C6.56507 23.4293 6.42554 23.1232 6.42554 22.7963V20.3058C6.42554 18.7893 7.06042 17.398 8.06507 16.3963H8.0581ZM13.9814 19.7354H14.2953C14.5395 19.7354 14.7627 19.8397 14.9162 19.9928C15.0837 20.1597 15.1744 20.3754 15.1744 20.6258V23.7354C15.1744 23.9789 15.0837 24.2015 14.9162 24.3545C14.7627 24.5215 14.5395 24.6258 14.2953 24.6258H13.9814C13.8139 24.6258 13.6744 24.5563 13.5697 24.4519C13.4651 24.3476 13.4023 24.2084 13.4023 24.0415V20.3128C13.4023 20.1597 13.4581 20.0067 13.5697 19.9163C13.6744 19.8119 13.8139 19.7423 13.9814 19.7423V19.7354ZM9.70461 19.7354H10.0116C10.179 19.7354 10.3186 19.805 10.4232 19.9093C10.5279 19.9997 10.5907 20.1528 10.5907 20.3058V24.0345C10.5907 24.2015 10.5348 24.3406 10.4232 24.445C10.3116 24.5493 10.179 24.6189 10.0116 24.6189H9.70461C9.46042 24.6189 9.23716 24.5145 9.06972 24.3476C8.90228 24.1945 8.81158 23.9719 8.81158 23.7284V20.6189C8.81158 20.3754 8.90228 20.1528 9.06972 19.9858C9.23716 19.8328 9.45344 19.7284 9.70461 19.7284V19.7354Z" fill="white"/>
</g>
<defs>
<clipPath id="clip0_1251_3157">
<rect width="24" height="32" fill="white"/>
</clipPath>
</defs>
</svg>
