<svg width="52" height="52" viewBox="0 0 52 52" fill="none" xmlns="http://www.w3.org/2000/svg">
<path fill-rule="evenodd" clip-rule="evenodd" d="M26 52C40.36 52 52 40.36 52 26C52 11.64 40.36 0 26 0C11.64 0 0 11.64 0 26C0 40.36 11.64 52 26 52ZM9.75 24.28C9.75 19.92 11.53 15.97 14.4 13.1C17.27 10.23 21.23 8.45 25.58 8.45H26.42C30.78 8.45 34.73 10.23 37.6 13.1C40.47 15.97 42.25 19.93 42.25 24.28V33.41C42.25 34.67 41.77 35.82 41.01 36.66C40.21 37.54 39.09 38.09 37.84 38.09H34.83C33.92 38.09 33.18 37.35 33.18 36.44V25.21C33.18 24.3 33.92 23.56 34.83 23.56H37.84C38.22 23.56 38.58 23.61 38.93 23.71C38.78 20.5 37.41 17.59 35.26 15.44C32.99 13.17 29.86 11.76 26.41 11.76H25.57C22.13 11.76 19 13.17 16.72 15.44C14.58 17.58 13.2 20.49 13.05 23.71C13.4 23.62 13.76 23.56 14.14 23.56H17.15C18.06 23.56 18.8 24.3 18.8 25.21V36.44C18.8 37.35 18.06 38.09 17.15 38.09H14.14C12.9 38.09 11.78 37.54 10.97 36.66C10.2 35.82 9.73 34.66 9.73 33.41V24.28H9.75Z" fill="#BCBCBC"/>
</svg>
