<svg width="19" height="19" viewBox="0 0 19 19" fill="none" xmlns="http://www.w3.org/2000/svg">
<path d="M8.40385 0C8.00026 0 7.67308 0.327177 7.67308 0.730769V7.67308H0.730769C0.327182 7.67308 0 8.00025 0 8.40385V10.5962C0 10.9997 0.327182 11.3269 0.730769 11.3269H7.67308V18.2692C7.67308 18.6728 8.00026 19 8.40385 19H10.5962C10.9997 19 11.3269 18.6728 11.3269 18.2692V11.3269H18.2692C18.6728 11.3269 19 10.9997 19 10.5962V8.40385C19 8.00025 18.6728 7.67308 18.2692 7.67308H11.3269V0.730769C11.3269 0.327177 10.9997 0 10.5962 0H8.40385Z" fill="#9FC4E8"/>
</svg>
