<svg width="52" height="52" viewBox="0 0 52 52" fill="none" xmlns="http://www.w3.org/2000/svg">
<path d="M35.39 21.8899C34.75 21.8999 34.23 22.4099 34.21 23.0499C34.21 23.7099 34.73 24.2399 35.39 24.2499C35.39 24.2499 35.4 24.2499 35.41 24.2499C36.06 24.2599 36.61 23.7399 36.62 23.0899C36.63 22.4399 36.11 21.8899 35.46 21.8799C35.44 21.8799 35.42 21.8799 35.39 21.8799V21.8899Z" fill="#BCBCBC"/>
<path d="M26.0602 21.0901C22.4402 21.0701 19.4602 23.9801 19.4502 27.5401C19.4402 31.2401 22.3502 34.1701 26.0202 34.1701C29.5902 34.1701 32.5402 31.2301 32.5402 27.6701C32.5402 24.0401 29.6502 21.1001 26.0602 21.0801V21.0901ZM25.9302 30.6801C24.2702 30.6601 22.9302 29.2601 22.9502 27.5601C22.9702 25.9201 24.3502 24.5701 26.0102 24.5901C27.7402 24.6101 29.0702 25.9801 29.0402 27.7201C29.0202 29.3601 27.6102 30.7001 25.9302 30.6801Z" fill="#BCBCBC"/>
<path d="M26 0C11.64 0 0 11.64 0 26C0 40.36 11.64 52 26 52C40.36 52 52 40.36 52 26C52 11.64 40.36 0 26 0ZM40.22 32.92C40.22 35.3 38.26 37.31 35.88 37.31C29.3 37.32 22.73 37.32 16.15 37.31C13.74 37.31 11.79 35.31 11.79 32.9C11.79 29.63 11.79 26.35 11.79 23.08C11.81 20.68 13.73 18.74 16.13 18.69C17.2 18.68 18.26 18.67 19.33 18.69C19.69 18.69 19.83 18.57 19.87 18.23C19.93 17.78 20.01 17.32 20.1 16.87C20.33 15.59 21.44 14.67 22.74 14.68C24.95 14.68 27.15 14.68 29.36 14.68C30.59 14.7 31.64 15.57 31.9 16.77C32.02 17.39 32.12 18.02 32.24 18.67H35.73C36.72 18.65 37.68 18.96 38.46 19.57C39.59 20.45 40.21 21.61 40.22 23.05C40.23 26.34 40.22 29.63 40.22 32.91V32.92Z" fill="#BCBCBC"/>
</svg>
