<svg width="52" height="52" viewBox="0 0 52 52" fill="none" xmlns="http://www.w3.org/2000/svg">
<g clip-path="url(#clip0_925_2917)">
<path d="M26 0C11.66 0 0 11.66 0 26C0 40.34 11.66 52 26 52C40.34 52 52 40.34 52 26C52 11.66 40.34 0 26 0ZM36.34 26.91L21.17 36.66C20.99 36.78 20.79 36.83 20.58 36.83C20.4 36.83 20.22 36.79 20.06 36.7C19.71 36.51 19.5 36.15 19.5 35.75V16.25C19.5 15.85 19.72 15.49 20.06 15.3C20.4 15.11 20.83 15.12 21.16 15.34L36.33 25.09C36.64 25.29 36.83 25.63 36.83 26C36.83 26.37 36.64 26.71 36.33 26.91H36.34Z" fill="#00338E"/>
</g>
<defs>
<clipPath id="clip0_925_2917">
<rect width="52" height="52" fill="white"/>
</clipPath>
</defs>
</svg>
