<svg width="40" height="40" viewBox="0 0 40 40" fill="none" xmlns="http://www.w3.org/2000/svg">
<g clip-path="url(#clip0_1516_6545)">
<path d="M20 0C8.96923 0 0 8.96923 0 20C0 31.0308 8.96923 40 20 40C31.0308 40 40 31.0308 40 20C40 8.96923 31.0308 0 20 0ZM27.9538 20.7L16.2846 28.2C16.1462 28.2923 15.9923 28.3308 15.8308 28.3308C15.6923 28.3308 15.5538 28.3 15.4308 28.2308C15.1615 28.0846 15 27.8077 15 27.5V12.5C15 12.1923 15.1692 11.9154 15.4308 11.7692C15.6923 11.6231 16.0231 11.6308 16.2769 11.8L27.9462 19.3C28.1846 19.4538 28.3308 19.7154 28.3308 20C28.3308 20.2846 28.1846 20.5462 27.9462 20.7H27.9538Z" fill="#C1C1C1"/>
</g>
<defs>
<clipPath id="clip0_1516_6545">
<rect width="40" height="40" fill="white"/>
</clipPath>
</defs>
</svg>
