<svg width="42" height="36" viewBox="0 0 42 36" fill="none" xmlns="http://www.w3.org/2000/svg">
<path d="M2.618 35.9999C1.17513 35.9919 0.007875 34.797 0 33.32V11.2786C0.007875 8.21889 2.429 5.74048 5.418 5.73242H30.968C33.9623 5.73242 36.3921 8.21351 36.4 11.2786V25.9681C36.4 29.0332 33.9762 31.5205 30.982 31.5286H9.674C9.43163 31.5304 9.19713 31.611 9.002 31.7579L4.2 35.4697C3.74238 35.8163 3.18763 36.0017 2.618 35.9999ZM5.418 8.59866C3.97513 8.60673 2.80788 9.80159 2.8 11.2786V32.9617L7.322 29.4649C8.00275 28.9472 8.82613 28.6668 9.674 28.6624H30.968C32.4214 28.6624 33.6 27.4559 33.6 25.9681V11.2786C33.5921 9.80159 32.4249 8.60673 30.982 8.59866H5.418Z" fill="white"/>
<path d="M23.716 20.1924C24.4892 20.1924 25.116 19.5508 25.116 18.7593C25.116 17.9678 24.4892 17.3262 23.716 17.3262C22.9428 17.3262 22.316 17.9678 22.316 18.7593C22.316 19.5508 22.9428 20.1924 23.716 20.1924Z" fill="white"/>
<path d="M18.284 20.1924C19.0572 20.1924 19.684 19.5508 19.684 18.7593C19.684 17.9678 19.0572 17.3262 18.284 17.3262C17.5108 17.3262 16.884 17.9678 16.884 18.7593C16.884 19.5508 17.5108 20.1924 18.284 20.1924Z" fill="white"/>
<path d="M12.6841 20.1924C13.4573 20.1924 14.0841 19.5508 14.0841 18.7593C14.0841 17.9678 13.4573 17.3262 12.6841 17.3262C11.9109 17.3262 11.2841 17.9678 11.2841 18.7593C11.2841 19.5508 11.9109 20.1924 12.6841 20.1924Z" fill="white"/>
<path d="M40.6 21.4968C39.8265 21.4968 39.2 20.8555 39.2 20.0637V5.54618C39.1921 4.06917 38.0249 2.8743 36.582 2.86624H8.4C7.6265 2.86624 7 2.22492 7 1.43312C7 0.641322 7.6265 0 8.4 0H36.582C39.571 0.00806131 41.9921 2.48646 42 5.54618V20.0637C42 20.8555 41.3735 21.4968 40.6 21.4968Z" fill="white"/>
</svg>
