<svg width="22" height="20" viewBox="0 0 22 20" fill="none" xmlns="http://www.w3.org/2000/svg">
<path d="M19.8323 15.667H10.9381C9.74366 15.667 8.77539 16.6152 8.77539 17.7848C8.77539 18.9544 9.74366 19.9026 10.9381 19.9026H19.8323C21.0268 19.9026 21.995 18.9544 21.995 17.7848C21.995 16.6152 21.0268 15.667 19.8323 15.667Z" fill="#898989"/>
<path d="M19.8374 8.18262H2.24374C1.04932 8.18262 0.0810547 9.13079 0.0810547 10.3004C0.0810547 11.47 1.04932 12.4182 2.24374 12.4182H19.8374C21.0319 12.4182 22.0001 11.47 22.0001 10.3004C22.0001 9.13079 21.0319 8.18262 19.8374 8.18262Z" fill="#898989"/>
<path d="M19.8377 4.93482H4.35311C3.15974 4.93482 2.19043 3.98563 2.19043 2.81702C2.19043 1.64841 3.15974 0.699219 4.35311 0.699219H19.8377C21.0311 0.699219 22.0004 1.64841 22.0004 2.81702C22.0004 3.98563 21.0311 4.93482 19.8377 4.93482Z" fill="#898989"/>
</svg>
