<svg width="390" height="801" viewBox="0 0 390 801" fill="none" xmlns="http://www.w3.org/2000/svg">
<path d="M-18.77 0.22998C-34.27 0.22998 -46.83 12.8 -46.83 28.29C-46.83 43.78 -34.27 56.35 -18.77 56.35C-13.92 56.35 -9.34996 55.12 -5.36996 52.95H2.15004C3.94004 52.95 5.40004 51.5 5.40004 49.7V42.56C7.87004 38.38 9.30005 33.5 9.30005 28.29C9.30005 12.79 -3.25996 0.22998 -18.76 0.22998H-18.77ZM-4.95996 39.55C-4.95996 41.17 -6.27996 42.49 -7.89996 42.49H-20C-21.62 42.49 -22.94 41.17 -22.94 39.55C-22.94 37.93 -21.62 36.61 -20 36.61H-7.89996C-6.27996 36.61 -4.95996 37.93 -4.95996 39.55ZM-4.95996 29.16C-4.95996 30.78 -6.27996 32.1 -7.89996 32.1H-31.83C-33.45 32.1 -34.77 30.78 -34.77 29.16C-34.77 27.54 -33.45 26.22 -31.83 26.22H-7.90996C-6.28996 26.22 -4.96996 27.54 -4.96996 29.16H-4.95996ZM-7.89996 21.71H-28.95C-30.57 21.71 -31.89 20.39 -31.89 18.77C-31.89 17.15 -30.57 15.83 -28.95 15.83H-7.89996C-6.27996 15.83 -4.95996 17.15 -4.95996 18.77C-4.95996 20.39 -6.27996 21.71 -7.89996 21.71Z" fill="#99C7FF"/>
<path d="M63.1401 0.22998C47.6401 0.22998 35.0801 12.79 35.0801 28.29C35.0801 43.79 47.6401 56.35 63.1401 56.35C67.9901 56.35 72.5601 55.12 76.5401 52.95H84.0601C85.8501 52.95 87.3101 51.5 87.3101 49.7V42.56C89.7801 38.38 91.2101 33.5 91.2101 28.29C91.2101 12.79 78.6501 0.22998 63.1501 0.22998H63.1401ZM76.9501 39.55C76.9501 41.17 75.6301 42.49 74.0101 42.49H61.9101C60.2901 42.49 58.9701 41.17 58.9701 39.55C58.9701 37.93 60.2901 36.61 61.9101 36.61H74.0101C75.6301 36.61 76.9501 37.93 76.9501 39.55ZM76.9501 29.16C76.9501 30.78 75.6301 32.1 74.0101 32.1H50.0901C48.4701 32.1 47.1501 30.78 47.1501 29.16C47.1501 27.54 48.4701 26.22 50.0901 26.22H74.0101C75.6301 26.22 76.9501 27.54 76.9501 29.16ZM74.0101 21.71H52.9601C51.3401 21.71 50.0201 20.39 50.0201 18.77C50.0201 17.15 51.3401 15.83 52.9601 15.83H74.0101C75.6301 15.83 76.9501 17.15 76.9501 18.77C76.9501 20.39 75.6301 21.71 74.0101 21.71Z" fill="#99C7FF"/>
<path d="M145.06 0.22998C129.56 0.22998 117 12.79 117 28.29C117 43.79 129.56 56.35 145.06 56.35C149.91 56.35 154.48 55.12 158.46 52.95H165.98C167.77 52.95 169.23 51.5 169.23 49.7V42.56C171.7 38.38 173.13 33.5 173.13 28.29C173.13 12.79 160.57 0.22998 145.07 0.22998H145.06ZM158.87 39.55C158.87 41.17 157.55 42.49 155.93 42.49H143.83C142.21 42.49 140.89 41.17 140.89 39.55C140.89 37.93 142.21 36.61 143.83 36.61H155.93C157.55 36.61 158.87 37.93 158.87 39.55ZM158.87 29.16C158.87 30.78 157.55 32.1 155.93 32.1H132.01C130.39 32.1 129.07 30.78 129.07 29.16C129.07 27.54 130.39 26.22 132.01 26.22H155.93C157.55 26.22 158.87 27.54 158.87 29.16ZM155.93 21.71H134.88C133.26 21.71 131.94 20.39 131.94 18.77C131.94 17.15 133.26 15.83 134.88 15.83H155.93C157.55 15.83 158.87 17.15 158.87 18.77C158.87 20.39 157.55 21.71 155.93 21.71Z" fill="#99C7FF"/>
<path d="M226.97 0.22998C211.47 0.22998 198.91 12.79 198.91 28.29C198.91 43.79 211.47 56.35 226.97 56.35C231.82 56.35 236.39 55.12 240.37 52.95H247.89C249.68 52.95 251.14 51.5 251.14 49.7V42.56C253.61 38.38 255.04 33.5 255.04 28.29C255.04 12.79 242.48 0.22998 226.98 0.22998H226.97ZM240.78 39.55C240.78 41.17 239.46 42.49 237.84 42.49H225.74C224.12 42.49 222.8 41.17 222.8 39.55C222.8 37.93 224.12 36.61 225.74 36.61H237.84C239.46 36.61 240.78 37.93 240.78 39.55ZM240.78 29.16C240.78 30.78 239.46 32.1 237.84 32.1H213.92C212.3 32.1 210.98 30.78 210.98 29.16C210.98 27.54 212.3 26.22 213.92 26.22H237.84C239.46 26.22 240.78 27.54 240.78 29.16ZM237.84 21.71H216.79C215.17 21.71 213.85 20.39 213.85 18.77C213.85 17.15 215.17 15.83 216.79 15.83H237.84C239.46 15.83 240.78 17.15 240.78 18.77C240.78 20.39 239.46 21.71 237.84 21.71Z" fill="#99C7FF"/>
<path d="M308.89 0.22998C293.39 0.22998 280.83 12.79 280.83 28.29C280.83 43.79 293.39 56.35 308.89 56.35C313.74 56.35 318.31 55.12 322.29 52.95H329.81C331.6 52.95 333.06 51.5 333.06 49.7V42.56C335.53 38.38 336.96 33.5 336.96 28.29C336.96 12.79 324.4 0.22998 308.9 0.22998H308.89ZM322.7 39.55C322.7 41.17 321.38 42.49 319.76 42.49H307.66C306.04 42.49 304.72 41.17 304.72 39.55C304.72 37.93 306.04 36.61 307.66 36.61H319.76C321.38 36.61 322.7 37.93 322.7 39.55ZM322.7 29.16C322.7 30.78 321.38 32.1 319.76 32.1H295.84C294.22 32.1 292.9 30.78 292.9 29.16C292.9 27.54 294.22 26.22 295.84 26.22H319.76C321.38 26.22 322.7 27.54 322.7 29.16ZM319.76 21.71H298.71C297.09 21.71 295.77 20.39 295.77 18.77C295.77 17.15 297.09 15.83 298.71 15.83H319.76C321.38 15.83 322.7 17.15 322.7 18.77C322.7 20.39 321.38 21.71 319.76 21.71Z" fill="#99C7FF"/>
<path d="M390.8 0.22998C375.3 0.22998 362.74 12.79 362.74 28.29C362.74 43.79 375.3 56.35 390.8 56.35C395.65 56.35 400.22 55.12 404.2 52.95H411.72C413.51 52.95 414.97 51.5 414.97 49.7V42.56C417.44 38.38 418.87 33.5 418.87 28.29C418.87 12.79 406.31 0.22998 390.81 0.22998H390.8ZM404.61 39.55C404.61 41.17 403.29 42.49 401.67 42.49H389.57C387.95 42.49 386.63 41.17 386.63 39.55C386.63 37.93 387.95 36.61 389.57 36.61H401.67C403.29 36.61 404.61 37.93 404.61 39.55ZM404.61 29.16C404.61 30.78 403.29 32.1 401.67 32.1H377.75C376.13 32.1 374.81 30.78 374.81 29.16C374.81 27.54 376.13 26.22 377.75 26.22H401.67C403.29 26.22 404.61 27.54 404.61 29.16ZM401.67 21.71H380.62C379 21.71 377.68 20.39 377.68 18.77C377.68 17.15 379 15.83 380.62 15.83H401.67C403.29 15.83 404.61 17.15 404.61 18.77C404.61 20.39 403.29 21.71 401.67 21.71Z" fill="#99C7FF"/>
<path d="M27.0001 83.72C11.5001 83.72 -1.05994 96.28 -1.05994 111.78C-1.05994 127.28 11.5001 139.84 27.0001 139.84C31.8501 139.84 36.4201 138.61 40.4001 136.44H47.9201C49.7101 136.44 51.1701 134.99 51.1701 133.19V126.05C53.6401 121.87 55.0701 116.99 55.0701 111.78C55.0701 96.28 42.5101 83.72 27.0101 83.72H27.0001ZM40.8101 123.04C40.8101 124.66 39.4901 125.98 37.8701 125.98H25.7701C24.1501 125.98 22.8301 124.66 22.8301 123.04C22.8301 121.42 24.1501 120.1 25.7701 120.1H37.8701C39.4901 120.1 40.8101 121.42 40.8101 123.04ZM40.8101 112.65C40.8101 114.27 39.4901 115.59 37.8701 115.59H13.9501C12.3301 115.59 11.0101 114.27 11.0101 112.65C11.0101 111.03 12.3301 109.71 13.9501 109.71H37.8701C39.4901 109.71 40.8101 111.03 40.8101 112.65ZM37.8701 105.2H16.8201C15.2001 105.2 13.8801 103.88 13.8801 102.26C13.8801 100.64 15.2001 99.32 16.8201 99.32H37.8701C39.4901 99.32 40.8101 100.64 40.8101 102.26C40.8101 103.88 39.4901 105.2 37.8701 105.2Z" fill="#99C7FF"/>
<path d="M108.92 83.72C93.42 83.72 80.86 96.28 80.86 111.78C80.86 127.28 93.42 139.84 108.92 139.84C113.77 139.84 118.34 138.61 122.32 136.44H129.84C131.63 136.44 133.09 134.99 133.09 133.19V126.05C135.56 121.87 136.99 116.99 136.99 111.78C136.99 96.28 124.43 83.72 108.93 83.72H108.92ZM122.73 123.04C122.73 124.66 121.41 125.98 119.79 125.98H107.69C106.07 125.98 104.75 124.66 104.75 123.04C104.75 121.42 106.07 120.1 107.69 120.1H119.79C121.41 120.1 122.73 121.42 122.73 123.04ZM122.73 112.65C122.73 114.27 121.41 115.59 119.79 115.59H95.87C94.25 115.59 92.93 114.27 92.93 112.65C92.93 111.03 94.25 109.71 95.87 109.71H119.79C121.41 109.71 122.73 111.03 122.73 112.65ZM119.79 105.2H98.7401C97.1201 105.2 95.8 103.88 95.8 102.26C95.8 100.64 97.1201 99.32 98.7401 99.32H119.79C121.41 99.32 122.73 100.64 122.73 102.26C122.73 103.88 121.41 105.2 119.79 105.2Z" fill="#99C7FF"/>
<path d="M190.83 83.72C175.33 83.72 162.77 96.28 162.77 111.78C162.77 127.28 175.33 139.84 190.83 139.84C195.68 139.84 200.25 138.61 204.23 136.44H211.75C213.54 136.44 215 134.99 215 133.19V126.05C217.47 121.87 218.9 116.99 218.9 111.78C218.9 96.28 206.34 83.72 190.84 83.72H190.83ZM204.64 123.04C204.64 124.66 203.32 125.98 201.7 125.98H189.6C187.98 125.98 186.66 124.66 186.66 123.04C186.66 121.42 187.98 120.1 189.6 120.1H201.7C203.32 120.1 204.64 121.42 204.64 123.04ZM204.64 112.65C204.64 114.27 203.32 115.59 201.7 115.59H177.78C176.16 115.59 174.84 114.27 174.84 112.65C174.84 111.03 176.16 109.71 177.78 109.71H201.7C203.32 109.71 204.64 111.03 204.64 112.65ZM201.7 105.2H180.65C179.03 105.2 177.71 103.88 177.71 102.26C177.71 100.64 179.03 99.32 180.65 99.32H201.7C203.32 99.32 204.64 100.64 204.64 102.26C204.64 103.88 203.32 105.2 201.7 105.2Z" fill="#99C7FF"/>
<path d="M272.75 83.72C257.25 83.72 244.69 96.28 244.69 111.78C244.69 127.28 257.25 139.84 272.75 139.84C277.6 139.84 282.17 138.61 286.15 136.44H293.67C295.46 136.44 296.92 134.99 296.92 133.19V126.05C299.39 121.87 300.82 116.99 300.82 111.78C300.82 96.28 288.26 83.72 272.76 83.72H272.75ZM286.56 123.04C286.56 124.66 285.24 125.98 283.62 125.98H271.52C269.9 125.98 268.58 124.66 268.58 123.04C268.58 121.42 269.9 120.1 271.52 120.1H283.62C285.24 120.1 286.56 121.42 286.56 123.04ZM286.56 112.65C286.56 114.27 285.24 115.59 283.62 115.59H259.7C258.08 115.59 256.76 114.27 256.76 112.65C256.76 111.03 258.08 109.71 259.7 109.71H283.62C285.24 109.71 286.56 111.03 286.56 112.65ZM283.62 105.2H262.57C260.95 105.2 259.63 103.88 259.63 102.26C259.63 100.64 260.95 99.32 262.57 99.32H283.62C285.24 99.32 286.56 100.64 286.56 102.26C286.56 103.88 285.24 105.2 283.62 105.2Z" fill="#99C7FF"/>
<path d="M354.66 83.72C339.16 83.72 326.6 96.28 326.6 111.78C326.6 127.28 339.16 139.84 354.66 139.84C359.51 139.84 364.08 138.61 368.06 136.44H375.58C377.37 136.44 378.83 134.99 378.83 133.19V126.05C381.3 121.87 382.73 116.99 382.73 111.78C382.73 96.28 370.17 83.72 354.67 83.72H354.66ZM368.47 123.04C368.47 124.66 367.15 125.98 365.53 125.98H353.43C351.81 125.98 350.49 124.66 350.49 123.04C350.49 121.42 351.81 120.1 353.43 120.1H365.53C367.15 120.1 368.47 121.42 368.47 123.04ZM368.47 112.65C368.47 114.27 367.15 115.59 365.53 115.59H341.61C339.99 115.59 338.67 114.27 338.67 112.65C338.67 111.03 339.99 109.71 341.61 109.71H365.53C367.15 109.71 368.47 111.03 368.47 112.65ZM365.53 105.2H344.48C342.86 105.2 341.54 103.88 341.54 102.26C341.54 100.64 342.86 99.32 344.48 99.32H365.53C367.15 99.32 368.47 100.64 368.47 102.26C368.47 103.88 367.15 105.2 365.53 105.2Z" fill="#99C7FF"/>
<path d="M-18.77 165.46C-34.27 165.46 -46.83 178.02 -46.83 193.52C-46.83 209.02 -34.27 221.58 -18.77 221.58C-13.92 221.58 -9.34996 220.35 -5.36996 218.18H2.15004C3.94004 218.18 5.40004 216.73 5.40004 214.93V207.79C7.87004 203.61 9.30005 198.73 9.30005 193.52C9.30005 178.02 -3.25996 165.46 -18.76 165.46H-18.77ZM-4.95996 204.78C-4.95996 206.4 -6.27996 207.72 -7.89996 207.72H-20C-21.62 207.72 -22.94 206.4 -22.94 204.78C-22.94 203.16 -21.62 201.84 -20 201.84H-7.89996C-6.27996 201.84 -4.95996 203.16 -4.95996 204.78ZM-4.95996 194.39C-4.95996 196.01 -6.27996 197.33 -7.89996 197.33H-31.83C-33.45 197.33 -34.77 196.01 -34.77 194.39C-34.77 192.77 -33.45 191.45 -31.83 191.45H-7.90996C-6.28996 191.45 -4.96996 192.77 -4.96996 194.39H-4.95996ZM-7.89996 186.94H-28.95C-30.57 186.94 -31.89 185.62 -31.89 184C-31.89 182.38 -30.57 181.06 -28.95 181.06H-7.89996C-6.27996 181.06 -4.95996 182.38 -4.95996 184C-4.95996 185.62 -6.27996 186.94 -7.89996 186.94Z" fill="#99C7FF"/>
<path d="M63.1401 165.46C47.6401 165.46 35.0801 178.02 35.0801 193.52C35.0801 209.02 47.6401 221.58 63.1401 221.58C67.9901 221.58 72.5601 220.35 76.5401 218.18H84.0601C85.8501 218.18 87.3101 216.73 87.3101 214.93V207.79C89.7801 203.61 91.2101 198.73 91.2101 193.52C91.2101 178.02 78.6501 165.46 63.1501 165.46H63.1401ZM76.9501 204.78C76.9501 206.4 75.6301 207.72 74.0101 207.72H61.9101C60.2901 207.72 58.9701 206.4 58.9701 204.78C58.9701 203.16 60.2901 201.84 61.9101 201.84H74.0101C75.6301 201.84 76.9501 203.16 76.9501 204.78ZM76.9501 194.39C76.9501 196.01 75.6301 197.33 74.0101 197.33H50.0901C48.4701 197.33 47.1501 196.01 47.1501 194.39C47.1501 192.77 48.4701 191.45 50.0901 191.45H74.0101C75.6301 191.45 76.9501 192.77 76.9501 194.39ZM74.0101 186.94H52.9601C51.3401 186.94 50.0201 185.62 50.0201 184C50.0201 182.38 51.3401 181.06 52.9601 181.06H74.0101C75.6301 181.06 76.9501 182.38 76.9501 184C76.9501 185.62 75.6301 186.94 74.0101 186.94Z" fill="#99C7FF"/>
<path d="M145.06 165.46C129.56 165.46 117 178.02 117 193.52C117 209.02 129.56 221.58 145.06 221.58C149.91 221.58 154.48 220.35 158.46 218.18H165.98C167.77 218.18 169.23 216.73 169.23 214.93V207.79C171.7 203.61 173.13 198.73 173.13 193.52C173.13 178.02 160.57 165.46 145.07 165.46H145.06ZM158.87 204.78C158.87 206.4 157.55 207.72 155.93 207.72H143.83C142.21 207.72 140.89 206.4 140.89 204.78C140.89 203.16 142.21 201.84 143.83 201.84H155.93C157.55 201.84 158.87 203.16 158.87 204.78ZM158.87 194.39C158.87 196.01 157.55 197.33 155.93 197.33H132.01C130.39 197.33 129.07 196.01 129.07 194.39C129.07 192.77 130.39 191.45 132.01 191.45H155.93C157.55 191.45 158.87 192.77 158.87 194.39ZM155.93 186.94H134.88C133.26 186.94 131.94 185.62 131.94 184C131.94 182.38 133.26 181.06 134.88 181.06H155.93C157.55 181.06 158.87 182.38 158.87 184C158.87 185.62 157.55 186.94 155.93 186.94Z" fill="#99C7FF"/>
<path d="M226.97 165.46C211.47 165.46 198.91 178.02 198.91 193.52C198.91 209.02 211.47 221.58 226.97 221.58C231.82 221.58 236.39 220.35 240.37 218.18H247.89C249.68 218.18 251.14 216.73 251.14 214.93V207.79C253.61 203.61 255.04 198.73 255.04 193.52C255.04 178.02 242.48 165.46 226.98 165.46H226.97ZM240.78 204.78C240.78 206.4 239.46 207.72 237.84 207.72H225.74C224.12 207.72 222.8 206.4 222.8 204.78C222.8 203.16 224.12 201.84 225.74 201.84H237.84C239.46 201.84 240.78 203.16 240.78 204.78ZM240.78 194.39C240.78 196.01 239.46 197.33 237.84 197.33H213.92C212.3 197.33 210.98 196.01 210.98 194.39C210.98 192.77 212.3 191.45 213.92 191.45H237.84C239.46 191.45 240.78 192.77 240.78 194.39ZM237.84 186.94H216.79C215.17 186.94 213.85 185.62 213.85 184C213.85 182.38 215.17 181.06 216.79 181.06H237.84C239.46 181.06 240.78 182.38 240.78 184C240.78 185.62 239.46 186.94 237.84 186.94Z" fill="#99C7FF"/>
<path d="M308.89 165.46C293.39 165.46 280.83 178.02 280.83 193.52C280.83 209.02 293.39 221.58 308.89 221.58C313.74 221.58 318.31 220.35 322.29 218.18H329.81C331.6 218.18 333.06 216.73 333.06 214.93V207.79C335.53 203.61 336.96 198.73 336.96 193.52C336.96 178.02 324.4 165.46 308.9 165.46H308.89ZM322.7 204.78C322.7 206.4 321.38 207.72 319.76 207.72H307.66C306.04 207.72 304.72 206.4 304.72 204.78C304.72 203.16 306.04 201.84 307.66 201.84H319.76C321.38 201.84 322.7 203.16 322.7 204.78ZM322.7 194.39C322.7 196.01 321.38 197.33 319.76 197.33H295.84C294.22 197.33 292.9 196.01 292.9 194.39C292.9 192.77 294.22 191.45 295.84 191.45H319.76C321.38 191.45 322.7 192.77 322.7 194.39ZM319.76 186.94H298.71C297.09 186.94 295.77 185.62 295.77 184C295.77 182.38 297.09 181.06 298.71 181.06H319.76C321.38 181.06 322.7 182.38 322.7 184C322.7 185.62 321.38 186.94 319.76 186.94Z" fill="#99C7FF"/>
<path d="M390.8 165.46C375.3 165.46 362.74 178.02 362.74 193.52C362.74 209.02 375.3 221.58 390.8 221.58C395.65 221.58 400.22 220.35 404.2 218.18H411.72C413.51 218.18 414.97 216.73 414.97 214.93V207.79C417.44 203.61 418.87 198.73 418.87 193.52C418.87 178.02 406.31 165.46 390.81 165.46H390.8ZM404.61 204.78C404.61 206.4 403.29 207.72 401.67 207.72H389.57C387.95 207.72 386.63 206.4 386.63 204.78C386.63 203.16 387.95 201.84 389.57 201.84H401.67C403.29 201.84 404.61 203.16 404.61 204.78ZM404.61 194.39C404.61 196.01 403.29 197.33 401.67 197.33H377.75C376.13 197.33 374.81 196.01 374.81 194.39C374.81 192.77 376.13 191.45 377.75 191.45H401.67C403.29 191.45 404.61 192.77 404.61 194.39ZM401.67 186.94H380.62C379 186.94 377.68 185.62 377.68 184C377.68 182.38 379 181.06 380.62 181.06H401.67C403.29 181.06 404.61 182.38 404.61 184C404.61 185.62 403.29 186.94 401.67 186.94Z" fill="#99C7FF"/>
<path d="M27.0001 248.95C11.5001 248.95 -1.05994 261.51 -1.05994 277.01C-1.05994 292.51 11.5001 305.07 27.0001 305.07C31.8501 305.07 36.4201 303.84 40.4001 301.67H47.9201C49.7101 301.67 51.1701 300.22 51.1701 298.42V291.28C53.6401 287.1 55.0701 282.22 55.0701 277.01C55.0701 261.51 42.5101 248.95 27.0101 248.95H27.0001ZM40.8101 288.27C40.8101 289.89 39.4901 291.21 37.8701 291.21H25.7701C24.1501 291.21 22.8301 289.89 22.8301 288.27C22.8301 286.65 24.1501 285.33 25.7701 285.33H37.8701C39.4901 285.33 40.8101 286.65 40.8101 288.27ZM40.8101 277.88C40.8101 279.5 39.4901 280.82 37.8701 280.82H13.9501C12.3301 280.82 11.0101 279.5 11.0101 277.88C11.0101 276.26 12.3301 274.94 13.9501 274.94H37.8701C39.4901 274.94 40.8101 276.26 40.8101 277.88ZM37.8701 270.43H16.8201C15.2001 270.43 13.8801 269.11 13.8801 267.49C13.8801 265.87 15.2001 264.55 16.8201 264.55H37.8701C39.4901 264.55 40.8101 265.87 40.8101 267.49C40.8101 269.11 39.4901 270.43 37.8701 270.43Z" fill="#99C7FF"/>
<path d="M108.92 248.95C93.42 248.95 80.86 261.51 80.86 277.01C80.86 292.51 93.42 305.07 108.92 305.07C113.77 305.07 118.34 303.84 122.32 301.67H129.84C131.63 301.67 133.09 300.22 133.09 298.42V291.28C135.56 287.1 136.99 282.22 136.99 277.01C136.99 261.51 124.43 248.95 108.93 248.95H108.92ZM122.73 288.27C122.73 289.89 121.41 291.21 119.79 291.21H107.69C106.07 291.21 104.75 289.89 104.75 288.27C104.75 286.65 106.07 285.33 107.69 285.33H119.79C121.41 285.33 122.73 286.65 122.73 288.27ZM122.73 277.88C122.73 279.5 121.41 280.82 119.79 280.82H95.87C94.25 280.82 92.93 279.5 92.93 277.88C92.93 276.26 94.25 274.94 95.87 274.94H119.79C121.41 274.94 122.73 276.26 122.73 277.88ZM119.79 270.43H98.7401C97.1201 270.43 95.8 269.11 95.8 267.49C95.8 265.87 97.1201 264.55 98.7401 264.55H119.79C121.41 264.55 122.73 265.87 122.73 267.49C122.73 269.11 121.41 270.43 119.79 270.43Z" fill="#99C7FF"/>
<path d="M190.83 248.95C175.33 248.95 162.77 261.51 162.77 277.01C162.77 292.51 175.33 305.07 190.83 305.07C195.68 305.07 200.25 303.84 204.23 301.67H211.75C213.54 301.67 215 300.22 215 298.42V291.28C217.47 287.1 218.9 282.22 218.9 277.01C218.9 261.51 206.34 248.95 190.84 248.95H190.83ZM204.64 288.27C204.64 289.89 203.32 291.21 201.7 291.21H189.6C187.98 291.21 186.66 289.89 186.66 288.27C186.66 286.65 187.98 285.33 189.6 285.33H201.7C203.32 285.33 204.64 286.65 204.64 288.27ZM204.64 277.88C204.64 279.5 203.32 280.82 201.7 280.82H177.78C176.16 280.82 174.84 279.5 174.84 277.88C174.84 276.26 176.16 274.94 177.78 274.94H201.7C203.32 274.94 204.64 276.26 204.64 277.88ZM201.7 270.43H180.65C179.03 270.43 177.71 269.11 177.71 267.49C177.71 265.87 179.03 264.55 180.65 264.55H201.7C203.32 264.55 204.64 265.87 204.64 267.49C204.64 269.11 203.32 270.43 201.7 270.43Z" fill="#99C7FF"/>
<path d="M272.75 248.95C257.25 248.95 244.69 261.51 244.69 277.01C244.69 292.51 257.25 305.07 272.75 305.07C277.6 305.07 282.17 303.84 286.15 301.67H293.67C295.46 301.67 296.92 300.22 296.92 298.42V291.28C299.39 287.1 300.82 282.22 300.82 277.01C300.82 261.51 288.26 248.95 272.76 248.95H272.75ZM286.56 288.27C286.56 289.89 285.24 291.21 283.62 291.21H271.52C269.9 291.21 268.58 289.89 268.58 288.27C268.58 286.65 269.9 285.33 271.52 285.33H283.62C285.24 285.33 286.56 286.65 286.56 288.27ZM286.56 277.88C286.56 279.5 285.24 280.82 283.62 280.82H259.7C258.08 280.82 256.76 279.5 256.76 277.88C256.76 276.26 258.08 274.94 259.7 274.94H283.62C285.24 274.94 286.56 276.26 286.56 277.88ZM283.62 270.43H262.57C260.95 270.43 259.63 269.11 259.63 267.49C259.63 265.87 260.95 264.55 262.57 264.55H283.62C285.24 264.55 286.56 265.87 286.56 267.49C286.56 269.11 285.24 270.43 283.62 270.43Z" fill="#99C7FF"/>
<path d="M354.66 248.95C339.16 248.95 326.6 261.51 326.6 277.01C326.6 292.51 339.16 305.07 354.66 305.07C359.51 305.07 364.08 303.84 368.06 301.67H375.58C377.37 301.67 378.83 300.22 378.83 298.42V291.28C381.3 287.1 382.73 282.22 382.73 277.01C382.73 261.51 370.17 248.95 354.67 248.95H354.66ZM368.47 288.27C368.47 289.89 367.15 291.21 365.53 291.21H353.43C351.81 291.21 350.49 289.89 350.49 288.27C350.49 286.65 351.81 285.33 353.43 285.33H365.53C367.15 285.33 368.47 286.65 368.47 288.27ZM368.47 277.88C368.47 279.5 367.15 280.82 365.53 280.82H341.61C339.99 280.82 338.67 279.5 338.67 277.88C338.67 276.26 339.99 274.94 341.61 274.94H365.53C367.15 274.94 368.47 276.26 368.47 277.88ZM365.53 270.43H344.48C342.86 270.43 341.54 269.11 341.54 267.49C341.54 265.87 342.86 264.55 344.48 264.55H365.53C367.15 264.55 368.47 265.87 368.47 267.49C368.47 269.11 367.15 270.43 365.53 270.43Z" fill="#99C7FF"/>
<path d="M-18.77 330.69C-34.27 330.69 -46.83 343.25 -46.83 358.75C-46.83 374.25 -34.27 386.81 -18.77 386.81C-13.92 386.81 -9.34996 385.58 -5.36996 383.41H2.15004C3.94004 383.41 5.40004 381.96 5.40004 380.16V373.02C7.87004 368.84 9.30005 363.96 9.30005 358.75C9.30005 343.25 -3.25996 330.69 -18.76 330.69H-18.77ZM-4.95996 370.01C-4.95996 371.63 -6.27996 372.95 -7.89996 372.95H-20C-21.62 372.95 -22.94 371.63 -22.94 370.01C-22.94 368.39 -21.62 367.07 -20 367.07H-7.89996C-6.27996 367.07 -4.95996 368.39 -4.95996 370.01ZM-4.95996 359.62C-4.95996 361.24 -6.27996 362.56 -7.89996 362.56H-31.83C-33.45 362.56 -34.77 361.24 -34.77 359.62C-34.77 358 -33.45 356.68 -31.83 356.68H-7.90996C-6.28996 356.68 -4.96996 358 -4.96996 359.62H-4.95996ZM-7.89996 352.17H-28.95C-30.57 352.17 -31.89 350.85 -31.89 349.23C-31.89 347.61 -30.57 346.29 -28.95 346.29H-7.89996C-6.27996 346.29 -4.95996 347.61 -4.95996 349.23C-4.95996 350.85 -6.27996 352.17 -7.89996 352.17Z" fill="#99C7FF"/>
<path d="M63.1401 330.69C47.6401 330.69 35.0801 343.25 35.0801 358.75C35.0801 374.25 47.6401 386.81 63.1401 386.81C67.9901 386.81 72.5601 385.58 76.5401 383.41H84.0601C85.8501 383.41 87.3101 381.96 87.3101 380.16V373.02C89.7801 368.84 91.2101 363.96 91.2101 358.75C91.2101 343.25 78.6501 330.69 63.1501 330.69H63.1401ZM76.9501 370.01C76.9501 371.63 75.6301 372.95 74.0101 372.95H61.9101C60.2901 372.95 58.9701 371.63 58.9701 370.01C58.9701 368.39 60.2901 367.07 61.9101 367.07H74.0101C75.6301 367.07 76.9501 368.39 76.9501 370.01ZM76.9501 359.62C76.9501 361.24 75.6301 362.56 74.0101 362.56H50.0901C48.4701 362.56 47.1501 361.24 47.1501 359.62C47.1501 358 48.4701 356.68 50.0901 356.68H74.0101C75.6301 356.68 76.9501 358 76.9501 359.62ZM74.0101 352.17H52.9601C51.3401 352.17 50.0201 350.85 50.0201 349.23C50.0201 347.61 51.3401 346.29 52.9601 346.29H74.0101C75.6301 346.29 76.9501 347.61 76.9501 349.23C76.9501 350.85 75.6301 352.17 74.0101 352.17Z" fill="#99C7FF"/>
<path d="M145.06 330.69C129.56 330.69 117 343.25 117 358.75C117 374.25 129.56 386.81 145.06 386.81C149.91 386.81 154.48 385.58 158.46 383.41H165.98C167.77 383.41 169.23 381.96 169.23 380.16V373.02C171.7 368.84 173.13 363.96 173.13 358.75C173.13 343.25 160.57 330.69 145.07 330.69H145.06ZM158.87 370.01C158.87 371.63 157.55 372.95 155.93 372.95H143.83C142.21 372.95 140.89 371.63 140.89 370.01C140.89 368.39 142.21 367.07 143.83 367.07H155.93C157.55 367.07 158.87 368.39 158.87 370.01ZM158.87 359.62C158.87 361.24 157.55 362.56 155.93 362.56H132.01C130.39 362.56 129.07 361.24 129.07 359.62C129.07 358 130.39 356.68 132.01 356.68H155.93C157.55 356.68 158.87 358 158.87 359.62ZM155.93 352.17H134.88C133.26 352.17 131.94 350.85 131.94 349.23C131.94 347.61 133.26 346.29 134.88 346.29H155.93C157.55 346.29 158.87 347.61 158.87 349.23C158.87 350.85 157.55 352.17 155.93 352.17Z" fill="#99C7FF"/>
<path d="M226.97 330.69C211.47 330.69 198.91 343.25 198.91 358.75C198.91 374.25 211.47 386.81 226.97 386.81C231.82 386.81 236.39 385.58 240.37 383.41H247.89C249.68 383.41 251.14 381.96 251.14 380.16V373.02C253.61 368.84 255.04 363.96 255.04 358.75C255.04 343.25 242.48 330.69 226.98 330.69H226.97ZM240.78 370.01C240.78 371.63 239.46 372.95 237.84 372.95H225.74C224.12 372.95 222.8 371.63 222.8 370.01C222.8 368.39 224.12 367.07 225.74 367.07H237.84C239.46 367.07 240.78 368.39 240.78 370.01ZM240.78 359.62C240.78 361.24 239.46 362.56 237.84 362.56H213.92C212.3 362.56 210.98 361.24 210.98 359.62C210.98 358 212.3 356.68 213.92 356.68H237.84C239.46 356.68 240.78 358 240.78 359.62ZM237.84 352.17H216.79C215.17 352.17 213.85 350.85 213.85 349.23C213.85 347.61 215.17 346.29 216.79 346.29H237.84C239.46 346.29 240.78 347.61 240.78 349.23C240.78 350.85 239.46 352.17 237.84 352.17Z" fill="#99C7FF"/>
<path d="M308.89 330.69C293.39 330.69 280.83 343.25 280.83 358.75C280.83 374.25 293.39 386.81 308.89 386.81C313.74 386.81 318.31 385.58 322.29 383.41H329.81C331.6 383.41 333.06 381.96 333.06 380.16V373.02C335.53 368.84 336.96 363.96 336.96 358.75C336.96 343.25 324.4 330.69 308.9 330.69H308.89ZM322.7 370.01C322.7 371.63 321.38 372.95 319.76 372.95H307.66C306.04 372.95 304.72 371.63 304.72 370.01C304.72 368.39 306.04 367.07 307.66 367.07H319.76C321.38 367.07 322.7 368.39 322.7 370.01ZM322.7 359.62C322.7 361.24 321.38 362.56 319.76 362.56H295.84C294.22 362.56 292.9 361.24 292.9 359.62C292.9 358 294.22 356.68 295.84 356.68H319.76C321.38 356.68 322.7 358 322.7 359.62ZM319.76 352.17H298.71C297.09 352.17 295.77 350.85 295.77 349.23C295.77 347.61 297.09 346.29 298.71 346.29H319.76C321.38 346.29 322.7 347.61 322.7 349.23C322.7 350.85 321.38 352.17 319.76 352.17Z" fill="#99C7FF"/>
<path d="M390.8 330.69C375.3 330.69 362.74 343.25 362.74 358.75C362.74 374.25 375.3 386.81 390.8 386.81C395.65 386.81 400.22 385.58 404.2 383.41H411.72C413.51 383.41 414.97 381.96 414.97 380.16V373.02C417.44 368.84 418.87 363.96 418.87 358.75C418.87 343.25 406.31 330.69 390.81 330.69H390.8ZM404.61 370.01C404.61 371.63 403.29 372.95 401.67 372.95H389.57C387.95 372.95 386.63 371.63 386.63 370.01C386.63 368.39 387.95 367.07 389.57 367.07H401.67C403.29 367.07 404.61 368.39 404.61 370.01ZM404.61 359.62C404.61 361.24 403.29 362.56 401.67 362.56H377.75C376.13 362.56 374.81 361.24 374.81 359.62C374.81 358 376.13 356.68 377.75 356.68H401.67C403.29 356.68 404.61 358 404.61 359.62ZM401.67 352.17H380.62C379 352.17 377.68 350.85 377.68 349.23C377.68 347.61 379 346.29 380.62 346.29H401.67C403.29 346.29 404.61 347.61 404.61 349.23C404.61 350.85 403.29 352.17 401.67 352.17Z" fill="#99C7FF"/>
<path d="M27.0001 414.18C11.5001 414.18 -1.05994 426.74 -1.05994 442.24C-1.05994 457.74 11.5001 470.3 27.0001 470.3C31.8501 470.3 36.4201 469.07 40.4001 466.9H47.9201C49.7101 466.9 51.1701 465.45 51.1701 463.65V456.51C53.6401 452.33 55.0701 447.45 55.0701 442.24C55.0701 426.74 42.5101 414.18 27.0101 414.18H27.0001ZM40.8101 453.5C40.8101 455.12 39.4901 456.44 37.8701 456.44H25.7701C24.1501 456.44 22.8301 455.12 22.8301 453.5C22.8301 451.88 24.1501 450.56 25.7701 450.56H37.8701C39.4901 450.56 40.8101 451.88 40.8101 453.5ZM40.8101 443.11C40.8101 444.73 39.4901 446.05 37.8701 446.05H13.9501C12.3301 446.05 11.0101 444.73 11.0101 443.11C11.0101 441.49 12.3301 440.17 13.9501 440.17H37.8701C39.4901 440.17 40.8101 441.49 40.8101 443.11ZM37.8701 435.66H16.8201C15.2001 435.66 13.8801 434.34 13.8801 432.72C13.8801 431.1 15.2001 429.78 16.8201 429.78H37.8701C39.4901 429.78 40.8101 431.1 40.8101 432.72C40.8101 434.34 39.4901 435.66 37.8701 435.66Z" fill="#99C7FF"/>
<path d="M108.92 414.18C93.42 414.18 80.86 426.74 80.86 442.24C80.86 457.74 93.42 470.3 108.92 470.3C113.77 470.3 118.34 469.07 122.32 466.9H129.84C131.63 466.9 133.09 465.45 133.09 463.65V456.51C135.56 452.33 136.99 447.45 136.99 442.24C136.99 426.74 124.43 414.18 108.93 414.18H108.92ZM122.73 453.5C122.73 455.12 121.41 456.44 119.79 456.44H107.69C106.07 456.44 104.75 455.12 104.75 453.5C104.75 451.88 106.07 450.56 107.69 450.56H119.79C121.41 450.56 122.73 451.88 122.73 453.5ZM122.73 443.11C122.73 444.73 121.41 446.05 119.79 446.05H95.87C94.25 446.05 92.93 444.73 92.93 443.11C92.93 441.49 94.25 440.17 95.87 440.17H119.79C121.41 440.17 122.73 441.49 122.73 443.11ZM119.79 435.66H98.7401C97.1201 435.66 95.8 434.34 95.8 432.72C95.8 431.1 97.1201 429.78 98.7401 429.78H119.79C121.41 429.78 122.73 431.1 122.73 432.72C122.73 434.34 121.41 435.66 119.79 435.66Z" fill="#99C7FF"/>
<path d="M190.83 414.18C175.33 414.18 162.77 426.74 162.77 442.24C162.77 457.74 175.33 470.3 190.83 470.3C195.68 470.3 200.25 469.07 204.23 466.9H211.75C213.54 466.9 215 465.45 215 463.65V456.51C217.47 452.33 218.9 447.45 218.9 442.24C218.9 426.74 206.34 414.18 190.84 414.18H190.83ZM204.64 453.5C204.64 455.12 203.32 456.44 201.7 456.44H189.6C187.98 456.44 186.66 455.12 186.66 453.5C186.66 451.88 187.98 450.56 189.6 450.56H201.7C203.32 450.56 204.64 451.88 204.64 453.5ZM204.64 443.11C204.64 444.73 203.32 446.05 201.7 446.05H177.78C176.16 446.05 174.84 444.73 174.84 443.11C174.84 441.49 176.16 440.17 177.78 440.17H201.7C203.32 440.17 204.64 441.49 204.64 443.11ZM201.7 435.66H180.65C179.03 435.66 177.71 434.34 177.71 432.72C177.71 431.1 179.03 429.78 180.65 429.78H201.7C203.32 429.78 204.64 431.1 204.64 432.72C204.64 434.34 203.32 435.66 201.7 435.66Z" fill="#99C7FF"/>
<path d="M272.75 414.18C257.25 414.18 244.69 426.74 244.69 442.24C244.69 457.74 257.25 470.3 272.75 470.3C277.6 470.3 282.17 469.07 286.15 466.9H293.67C295.46 466.9 296.92 465.45 296.92 463.65V456.51C299.39 452.33 300.82 447.45 300.82 442.24C300.82 426.74 288.26 414.18 272.76 414.18H272.75ZM286.56 453.5C286.56 455.12 285.24 456.44 283.62 456.44H271.52C269.9 456.44 268.58 455.12 268.58 453.5C268.58 451.88 269.9 450.56 271.52 450.56H283.62C285.24 450.56 286.56 451.88 286.56 453.5ZM286.56 443.11C286.56 444.73 285.24 446.05 283.62 446.05H259.7C258.08 446.05 256.76 444.73 256.76 443.11C256.76 441.49 258.08 440.17 259.7 440.17H283.62C285.24 440.17 286.56 441.49 286.56 443.11ZM283.62 435.66H262.57C260.95 435.66 259.63 434.34 259.63 432.72C259.63 431.1 260.95 429.78 262.57 429.78H283.62C285.24 429.78 286.56 431.1 286.56 432.72C286.56 434.34 285.24 435.66 283.62 435.66Z" fill="#99C7FF"/>
<path d="M354.66 414.18C339.16 414.18 326.6 426.74 326.6 442.24C326.6 457.74 339.16 470.3 354.66 470.3C359.51 470.3 364.08 469.07 368.06 466.9H375.58C377.37 466.9 378.83 465.45 378.83 463.65V456.51C381.3 452.33 382.73 447.45 382.73 442.24C382.73 426.74 370.17 414.18 354.67 414.18H354.66ZM368.47 453.5C368.47 455.12 367.15 456.44 365.53 456.44H353.43C351.81 456.44 350.49 455.12 350.49 453.5C350.49 451.88 351.81 450.56 353.43 450.56H365.53C367.15 450.56 368.47 451.88 368.47 453.5ZM368.47 443.11C368.47 444.73 367.15 446.05 365.53 446.05H341.61C339.99 446.05 338.67 444.73 338.67 443.11C338.67 441.49 339.99 440.17 341.61 440.17H365.53C367.15 440.17 368.47 441.49 368.47 443.11ZM365.53 435.66H344.48C342.86 435.66 341.54 434.34 341.54 432.72C341.54 431.1 342.86 429.78 344.48 429.78H365.53C367.15 429.78 368.47 431.1 368.47 432.72C368.47 434.34 367.15 435.66 365.53 435.66Z" fill="#99C7FF"/>
<path d="M-18.77 495.92C-34.27 495.92 -46.83 508.48 -46.83 523.98C-46.83 539.48 -34.27 552.04 -18.77 552.04C-13.92 552.04 -9.34996 550.81 -5.36996 548.64H2.15004C3.94004 548.64 5.40004 547.19 5.40004 545.39V538.25C7.87004 534.07 9.30005 529.19 9.30005 523.98C9.30005 508.48 -3.25996 495.92 -18.76 495.92H-18.77ZM-4.95996 535.24C-4.95996 536.86 -6.27996 538.18 -7.89996 538.18H-20C-21.62 538.18 -22.94 536.86 -22.94 535.24C-22.94 533.62 -21.62 532.3 -20 532.3H-7.89996C-6.27996 532.3 -4.95996 533.62 -4.95996 535.24ZM-4.95996 524.85C-4.95996 526.47 -6.27996 527.79 -7.89996 527.79H-31.83C-33.45 527.79 -34.77 526.47 -34.77 524.85C-34.77 523.23 -33.45 521.91 -31.83 521.91H-7.90996C-6.28996 521.91 -4.96996 523.23 -4.96996 524.85H-4.95996ZM-7.89996 517.4H-28.95C-30.57 517.4 -31.89 516.08 -31.89 514.46C-31.89 512.84 -30.57 511.52 -28.95 511.52H-7.89996C-6.27996 511.52 -4.95996 512.84 -4.95996 514.46C-4.95996 516.08 -6.27996 517.4 -7.89996 517.4Z" fill="#99C7FF"/>
<path d="M63.1401 495.92C47.6401 495.92 35.0801 508.48 35.0801 523.98C35.0801 539.48 47.6401 552.04 63.1401 552.04C67.9901 552.04 72.5601 550.81 76.5401 548.64H84.0601C85.8501 548.64 87.3101 547.19 87.3101 545.39V538.25C89.7801 534.07 91.2101 529.19 91.2101 523.98C91.2101 508.48 78.6501 495.92 63.1501 495.92H63.1401ZM76.9501 535.24C76.9501 536.86 75.6301 538.18 74.0101 538.18H61.9101C60.2901 538.18 58.9701 536.86 58.9701 535.24C58.9701 533.62 60.2901 532.3 61.9101 532.3H74.0101C75.6301 532.3 76.9501 533.62 76.9501 535.24ZM76.9501 524.85C76.9501 526.47 75.6301 527.79 74.0101 527.79H50.0901C48.4701 527.79 47.1501 526.47 47.1501 524.85C47.1501 523.23 48.4701 521.91 50.0901 521.91H74.0101C75.6301 521.91 76.9501 523.23 76.9501 524.85ZM74.0101 517.4H52.9601C51.3401 517.4 50.0201 516.08 50.0201 514.46C50.0201 512.84 51.3401 511.52 52.9601 511.52H74.0101C75.6301 511.52 76.9501 512.84 76.9501 514.46C76.9501 516.08 75.6301 517.4 74.0101 517.4Z" fill="#99C7FF"/>
<path d="M145.06 495.92C129.56 495.92 117 508.48 117 523.98C117 539.48 129.56 552.04 145.06 552.04C149.91 552.04 154.48 550.81 158.46 548.64H165.98C167.77 548.64 169.23 547.19 169.23 545.39V538.25C171.7 534.07 173.13 529.19 173.13 523.98C173.13 508.48 160.57 495.92 145.07 495.92H145.06ZM158.87 535.24C158.87 536.86 157.55 538.18 155.93 538.18H143.83C142.21 538.18 140.89 536.86 140.89 535.24C140.89 533.62 142.21 532.3 143.83 532.3H155.93C157.55 532.3 158.87 533.62 158.87 535.24ZM158.87 524.85C158.87 526.47 157.55 527.79 155.93 527.79H132.01C130.39 527.79 129.07 526.47 129.07 524.85C129.07 523.23 130.39 521.91 132.01 521.91H155.93C157.55 521.91 158.87 523.23 158.87 524.85ZM155.93 517.4H134.88C133.26 517.4 131.94 516.08 131.94 514.46C131.94 512.84 133.26 511.52 134.88 511.52H155.93C157.55 511.52 158.87 512.84 158.87 514.46C158.87 516.08 157.55 517.4 155.93 517.4Z" fill="#99C7FF"/>
<path d="M226.97 495.92C211.47 495.92 198.91 508.48 198.91 523.98C198.91 539.48 211.47 552.04 226.97 552.04C231.82 552.04 236.39 550.81 240.37 548.64H247.89C249.68 548.64 251.14 547.19 251.14 545.39V538.25C253.61 534.07 255.04 529.19 255.04 523.98C255.04 508.48 242.48 495.92 226.98 495.92H226.97ZM240.78 535.24C240.78 536.86 239.46 538.18 237.84 538.18H225.74C224.12 538.18 222.8 536.86 222.8 535.24C222.8 533.62 224.12 532.3 225.74 532.3H237.84C239.46 532.3 240.78 533.62 240.78 535.24ZM240.78 524.85C240.78 526.47 239.46 527.79 237.84 527.79H213.92C212.3 527.79 210.98 526.47 210.98 524.85C210.98 523.23 212.3 521.91 213.92 521.91H237.84C239.46 521.91 240.78 523.23 240.78 524.85ZM237.84 517.4H216.79C215.17 517.4 213.85 516.08 213.85 514.46C213.85 512.84 215.17 511.52 216.79 511.52H237.84C239.46 511.52 240.78 512.84 240.78 514.46C240.78 516.08 239.46 517.4 237.84 517.4Z" fill="#99C7FF"/>
<path d="M308.89 495.92C293.39 495.92 280.83 508.48 280.83 523.98C280.83 539.48 293.39 552.04 308.89 552.04C313.74 552.04 318.31 550.81 322.29 548.64H329.81C331.6 548.64 333.06 547.19 333.06 545.39V538.25C335.53 534.07 336.96 529.19 336.96 523.98C336.96 508.48 324.4 495.92 308.9 495.92H308.89ZM322.7 535.24C322.7 536.86 321.38 538.18 319.76 538.18H307.66C306.04 538.18 304.72 536.86 304.72 535.24C304.72 533.62 306.04 532.3 307.66 532.3H319.76C321.38 532.3 322.7 533.62 322.7 535.24ZM322.7 524.85C322.7 526.47 321.38 527.79 319.76 527.79H295.84C294.22 527.79 292.9 526.47 292.9 524.85C292.9 523.23 294.22 521.91 295.84 521.91H319.76C321.38 521.91 322.7 523.23 322.7 524.85ZM319.76 517.4H298.71C297.09 517.4 295.77 516.08 295.77 514.46C295.77 512.84 297.09 511.52 298.71 511.52H319.76C321.38 511.52 322.7 512.84 322.7 514.46C322.7 516.08 321.38 517.4 319.76 517.4Z" fill="#99C7FF"/>
<path d="M390.8 495.92C375.3 495.92 362.74 508.48 362.74 523.98C362.74 539.48 375.3 552.04 390.8 552.04C395.65 552.04 400.22 550.81 404.2 548.64H411.72C413.51 548.64 414.97 547.19 414.97 545.39V538.25C417.44 534.07 418.87 529.19 418.87 523.98C418.87 508.48 406.31 495.92 390.81 495.92H390.8ZM404.61 535.24C404.61 536.86 403.29 538.18 401.67 538.18H389.57C387.95 538.18 386.63 536.86 386.63 535.24C386.63 533.62 387.95 532.3 389.57 532.3H401.67C403.29 532.3 404.61 533.62 404.61 535.24ZM404.61 524.85C404.61 526.47 403.29 527.79 401.67 527.79H377.75C376.13 527.79 374.81 526.47 374.81 524.85C374.81 523.23 376.13 521.91 377.75 521.91H401.67C403.29 521.91 404.61 523.23 404.61 524.85ZM401.67 517.4H380.62C379 517.4 377.68 516.08 377.68 514.46C377.68 512.84 379 511.52 380.62 511.52H401.67C403.29 511.52 404.61 512.84 404.61 514.46C404.61 516.08 403.29 517.4 401.67 517.4Z" fill="#99C7FF"/>
<path d="M27.0001 579.4C11.5001 579.4 -1.05994 591.96 -1.05994 607.46C-1.05994 622.96 11.5001 635.52 27.0001 635.52C31.8501 635.52 36.4201 634.29 40.4001 632.12H47.9201C49.7101 632.12 51.1701 630.67 51.1701 628.87V621.73C53.6401 617.55 55.0701 612.67 55.0701 607.46C55.0701 591.96 42.5101 579.4 27.0101 579.4H27.0001ZM40.8101 618.72C40.8101 620.34 39.4901 621.66 37.8701 621.66H25.7701C24.1501 621.66 22.8301 620.34 22.8301 618.72C22.8301 617.1 24.1501 615.78 25.7701 615.78H37.8701C39.4901 615.78 40.8101 617.1 40.8101 618.72ZM40.8101 608.33C40.8101 609.95 39.4901 611.27 37.8701 611.27H13.9501C12.3301 611.27 11.0101 609.95 11.0101 608.33C11.0101 606.71 12.3301 605.39 13.9501 605.39H37.8701C39.4901 605.39 40.8101 606.71 40.8101 608.33ZM37.8701 600.88H16.8201C15.2001 600.88 13.8801 599.56 13.8801 597.94C13.8801 596.32 15.2001 595 16.8201 595H37.8701C39.4901 595 40.8101 596.32 40.8101 597.94C40.8101 599.56 39.4901 600.88 37.8701 600.88Z" fill="#99C7FF"/>
<path d="M108.92 579.4C93.42 579.4 80.86 591.96 80.86 607.46C80.86 622.96 93.42 635.52 108.92 635.52C113.77 635.52 118.34 634.29 122.32 632.12H129.84C131.63 632.12 133.09 630.67 133.09 628.87V621.73C135.56 617.55 136.99 612.67 136.99 607.46C136.99 591.96 124.43 579.4 108.93 579.4H108.92ZM122.73 618.72C122.73 620.34 121.41 621.66 119.79 621.66H107.69C106.07 621.66 104.75 620.34 104.75 618.72C104.75 617.1 106.07 615.78 107.69 615.78H119.79C121.41 615.78 122.73 617.1 122.73 618.72ZM122.73 608.33C122.73 609.95 121.41 611.27 119.79 611.27H95.87C94.25 611.27 92.93 609.95 92.93 608.33C92.93 606.71 94.25 605.39 95.87 605.39H119.79C121.41 605.39 122.73 606.71 122.73 608.33ZM119.79 600.88H98.7401C97.1201 600.88 95.8 599.56 95.8 597.94C95.8 596.32 97.1201 595 98.7401 595H119.79C121.41 595 122.73 596.32 122.73 597.94C122.73 599.56 121.41 600.88 119.79 600.88Z" fill="#99C7FF"/>
<path d="M190.83 579.4C175.33 579.4 162.77 591.96 162.77 607.46C162.77 622.96 175.33 635.52 190.83 635.52C195.68 635.52 200.25 634.29 204.23 632.12H211.75C213.54 632.12 215 630.67 215 628.87V621.73C217.47 617.55 218.9 612.67 218.9 607.46C218.9 591.96 206.34 579.4 190.84 579.4H190.83ZM204.64 618.72C204.64 620.34 203.32 621.66 201.7 621.66H189.6C187.98 621.66 186.66 620.34 186.66 618.72C186.66 617.1 187.98 615.78 189.6 615.78H201.7C203.32 615.78 204.64 617.1 204.64 618.72ZM204.64 608.33C204.64 609.95 203.32 611.27 201.7 611.27H177.78C176.16 611.27 174.84 609.95 174.84 608.33C174.84 606.71 176.16 605.39 177.78 605.39H201.7C203.32 605.39 204.64 606.71 204.64 608.33ZM201.7 600.88H180.65C179.03 600.88 177.71 599.56 177.71 597.94C177.71 596.32 179.03 595 180.65 595H201.7C203.32 595 204.64 596.32 204.64 597.94C204.64 599.56 203.32 600.88 201.7 600.88Z" fill="#99C7FF"/>
<path d="M272.75 579.4C257.25 579.4 244.69 591.96 244.69 607.46C244.69 622.96 257.25 635.52 272.75 635.52C277.6 635.52 282.17 634.29 286.15 632.12H293.67C295.46 632.12 296.92 630.67 296.92 628.87V621.73C299.39 617.55 300.82 612.67 300.82 607.46C300.82 591.96 288.26 579.4 272.76 579.4H272.75ZM286.56 618.72C286.56 620.34 285.24 621.66 283.62 621.66H271.52C269.9 621.66 268.58 620.34 268.58 618.72C268.58 617.1 269.9 615.78 271.52 615.78H283.62C285.24 615.78 286.56 617.1 286.56 618.72ZM286.56 608.33C286.56 609.95 285.24 611.27 283.62 611.27H259.7C258.08 611.27 256.76 609.95 256.76 608.33C256.76 606.71 258.08 605.39 259.7 605.39H283.62C285.24 605.39 286.56 606.71 286.56 608.33ZM283.62 600.88H262.57C260.95 600.88 259.63 599.56 259.63 597.94C259.63 596.32 260.95 595 262.57 595H283.62C285.24 595 286.56 596.32 286.56 597.94C286.56 599.56 285.24 600.88 283.62 600.88Z" fill="#99C7FF"/>
<path d="M354.66 579.4C339.16 579.4 326.6 591.96 326.6 607.46C326.6 622.96 339.16 635.52 354.66 635.52C359.51 635.52 364.08 634.29 368.06 632.12H375.58C377.37 632.12 378.83 630.67 378.83 628.87V621.73C381.3 617.55 382.73 612.67 382.73 607.46C382.73 591.96 370.17 579.4 354.67 579.4H354.66ZM368.47 618.72C368.47 620.34 367.15 621.66 365.53 621.66H353.43C351.81 621.66 350.49 620.34 350.49 618.72C350.49 617.1 351.81 615.78 353.43 615.78H365.53C367.15 615.78 368.47 617.1 368.47 618.72ZM368.47 608.33C368.47 609.95 367.15 611.27 365.53 611.27H341.61C339.99 611.27 338.67 609.95 338.67 608.33C338.67 606.71 339.99 605.39 341.61 605.39H365.53C367.15 605.39 368.47 606.71 368.47 608.33ZM365.53 600.88H344.48C342.86 600.88 341.54 599.56 341.54 597.94C341.54 596.32 342.86 595 344.48 595H365.53C367.15 595 368.47 596.32 368.47 597.94C368.47 599.56 367.15 600.88 365.53 600.88Z" fill="#99C7FF"/>
<path d="M-18.77 661.15C-34.27 661.15 -46.83 673.71 -46.83 689.21C-46.83 704.71 -34.27 717.27 -18.77 717.27C-13.92 717.27 -9.34996 716.04 -5.36996 713.87H2.15004C3.94004 713.87 5.40004 712.42 5.40004 710.62V703.48C7.87004 699.3 9.30005 694.42 9.30005 689.21C9.30005 673.71 -3.25996 661.15 -18.76 661.15H-18.77ZM-4.95996 700.47C-4.95996 702.09 -6.27996 703.41 -7.89996 703.41H-20C-21.62 703.41 -22.94 702.09 -22.94 700.47C-22.94 698.85 -21.62 697.53 -20 697.53H-7.89996C-6.27996 697.53 -4.95996 698.85 -4.95996 700.47ZM-4.95996 690.08C-4.95996 691.7 -6.27996 693.02 -7.89996 693.02H-31.83C-33.45 693.02 -34.77 691.7 -34.77 690.08C-34.77 688.46 -33.45 687.14 -31.83 687.14H-7.90996C-6.28996 687.14 -4.96996 688.46 -4.96996 690.08H-4.95996ZM-7.89996 682.63H-28.95C-30.57 682.63 -31.89 681.31 -31.89 679.69C-31.89 678.07 -30.57 676.75 -28.95 676.75H-7.89996C-6.27996 676.75 -4.95996 678.07 -4.95996 679.69C-4.95996 681.31 -6.27996 682.63 -7.89996 682.63Z" fill="#99C7FF"/>
<path d="M63.1401 661.15C47.6401 661.15 35.0801 673.71 35.0801 689.21C35.0801 704.71 47.6401 717.27 63.1401 717.27C67.9901 717.27 72.5601 716.04 76.5401 713.87H84.0601C85.8501 713.87 87.3101 712.42 87.3101 710.62V703.48C89.7801 699.3 91.2101 694.42 91.2101 689.21C91.2101 673.71 78.6501 661.15 63.1501 661.15H63.1401ZM76.9501 700.47C76.9501 702.09 75.6301 703.41 74.0101 703.41H61.9101C60.2901 703.41 58.9701 702.09 58.9701 700.47C58.9701 698.85 60.2901 697.53 61.9101 697.53H74.0101C75.6301 697.53 76.9501 698.85 76.9501 700.47ZM76.9501 690.08C76.9501 691.7 75.6301 693.02 74.0101 693.02H50.0901C48.4701 693.02 47.1501 691.7 47.1501 690.08C47.1501 688.46 48.4701 687.14 50.0901 687.14H74.0101C75.6301 687.14 76.9501 688.46 76.9501 690.08ZM74.0101 682.63H52.9601C51.3401 682.63 50.0201 681.31 50.0201 679.69C50.0201 678.07 51.3401 676.75 52.9601 676.75H74.0101C75.6301 676.75 76.9501 678.07 76.9501 679.69C76.9501 681.31 75.6301 682.63 74.0101 682.63Z" fill="#99C7FF"/>
<path d="M145.06 661.15C129.56 661.15 117 673.71 117 689.21C117 704.71 129.56 717.27 145.06 717.27C149.91 717.27 154.48 716.04 158.46 713.87H165.98C167.77 713.87 169.23 712.42 169.23 710.62V703.48C171.7 699.3 173.13 694.42 173.13 689.21C173.13 673.71 160.57 661.15 145.07 661.15H145.06ZM158.87 700.47C158.87 702.09 157.55 703.41 155.93 703.41H143.83C142.21 703.41 140.89 702.09 140.89 700.47C140.89 698.85 142.21 697.53 143.83 697.53H155.93C157.55 697.53 158.87 698.85 158.87 700.47ZM158.87 690.08C158.87 691.7 157.55 693.02 155.93 693.02H132.01C130.39 693.02 129.07 691.7 129.07 690.08C129.07 688.46 130.39 687.14 132.01 687.14H155.93C157.55 687.14 158.87 688.46 158.87 690.08ZM155.93 682.63H134.88C133.26 682.63 131.94 681.31 131.94 679.69C131.94 678.07 133.26 676.75 134.88 676.75H155.93C157.55 676.75 158.87 678.07 158.87 679.69C158.87 681.31 157.55 682.63 155.93 682.63Z" fill="#99C7FF"/>
<path d="M226.97 661.15C211.47 661.15 198.91 673.71 198.91 689.21C198.91 704.71 211.47 717.27 226.97 717.27C231.82 717.27 236.39 716.04 240.37 713.87H247.89C249.68 713.87 251.14 712.42 251.14 710.62V703.48C253.61 699.3 255.04 694.42 255.04 689.21C255.04 673.71 242.48 661.15 226.98 661.15H226.97ZM240.78 700.47C240.78 702.09 239.46 703.41 237.84 703.41H225.74C224.12 703.41 222.8 702.09 222.8 700.47C222.8 698.85 224.12 697.53 225.74 697.53H237.84C239.46 697.53 240.78 698.85 240.78 700.47ZM240.78 690.08C240.78 691.7 239.46 693.02 237.84 693.02H213.92C212.3 693.02 210.98 691.7 210.98 690.08C210.98 688.46 212.3 687.14 213.92 687.14H237.84C239.46 687.14 240.78 688.46 240.78 690.08ZM237.84 682.63H216.79C215.17 682.63 213.85 681.31 213.85 679.69C213.85 678.07 215.17 676.75 216.79 676.75H237.84C239.46 676.75 240.78 678.07 240.78 679.69C240.78 681.31 239.46 682.63 237.84 682.63Z" fill="#99C7FF"/>
<path d="M308.89 661.15C293.39 661.15 280.83 673.71 280.83 689.21C280.83 704.71 293.39 717.27 308.89 717.27C313.74 717.27 318.31 716.04 322.29 713.87H329.81C331.6 713.87 333.06 712.42 333.06 710.62V703.48C335.53 699.3 336.96 694.42 336.96 689.21C336.96 673.71 324.4 661.15 308.9 661.15H308.89ZM322.7 700.47C322.7 702.09 321.38 703.41 319.76 703.41H307.66C306.04 703.41 304.72 702.09 304.72 700.47C304.72 698.85 306.04 697.53 307.66 697.53H319.76C321.38 697.53 322.7 698.85 322.7 700.47ZM322.7 690.08C322.7 691.7 321.38 693.02 319.76 693.02H295.84C294.22 693.02 292.9 691.7 292.9 690.08C292.9 688.46 294.22 687.14 295.84 687.14H319.76C321.38 687.14 322.7 688.46 322.7 690.08ZM319.76 682.63H298.71C297.09 682.63 295.77 681.31 295.77 679.69C295.77 678.07 297.09 676.75 298.71 676.75H319.76C321.38 676.75 322.7 678.07 322.7 679.69C322.7 681.31 321.38 682.63 319.76 682.63Z" fill="#99C7FF"/>
<path d="M390.8 661.15C375.3 661.15 362.74 673.71 362.74 689.21C362.74 704.71 375.3 717.27 390.8 717.27C395.65 717.27 400.22 716.04 404.2 713.87H411.72C413.51 713.87 414.97 712.42 414.97 710.62V703.48C417.44 699.3 418.87 694.42 418.87 689.21C418.87 673.71 406.31 661.15 390.81 661.15H390.8ZM404.61 700.47C404.61 702.09 403.29 703.41 401.67 703.41H389.57C387.95 703.41 386.63 702.09 386.63 700.47C386.63 698.85 387.95 697.53 389.57 697.53H401.67C403.29 697.53 404.61 698.85 404.61 700.47ZM404.61 690.08C404.61 691.7 403.29 693.02 401.67 693.02H377.75C376.13 693.02 374.81 691.7 374.81 690.08C374.81 688.46 376.13 687.14 377.75 687.14H401.67C403.29 687.14 404.61 688.46 404.61 690.08ZM401.67 682.63H380.62C379 682.63 377.68 681.31 377.68 679.69C377.68 678.07 379 676.75 380.62 676.75H401.67C403.29 676.75 404.61 678.07 404.61 679.69C404.61 681.31 403.29 682.63 401.67 682.63Z" fill="#99C7FF"/>
<path d="M27.0001 744.63C11.5001 744.63 -1.05994 757.19 -1.05994 772.69C-1.05994 788.19 11.5001 800.75 27.0001 800.75C31.8501 800.75 36.4201 799.52 40.4001 797.35H47.9201C49.7101 797.35 51.1701 795.9 51.1701 794.1V786.96C53.6401 782.78 55.0701 777.9 55.0701 772.69C55.0701 757.19 42.5101 744.63 27.0101 744.63H27.0001ZM40.8101 783.95C40.8101 785.57 39.4901 786.89 37.8701 786.89H25.7701C24.1501 786.89 22.8301 785.57 22.8301 783.95C22.8301 782.33 24.1501 781.01 25.7701 781.01H37.8701C39.4901 781.01 40.8101 782.33 40.8101 783.95ZM40.8101 773.56C40.8101 775.18 39.4901 776.5 37.8701 776.5H13.9501C12.3301 776.5 11.0101 775.18 11.0101 773.56C11.0101 771.94 12.3301 770.62 13.9501 770.62H37.8701C39.4901 770.62 40.8101 771.94 40.8101 773.56ZM37.8701 766.11H16.8201C15.2001 766.11 13.8801 764.79 13.8801 763.17C13.8801 761.55 15.2001 760.23 16.8201 760.23H37.8701C39.4901 760.23 40.8101 761.55 40.8101 763.17C40.8101 764.79 39.4901 766.11 37.8701 766.11Z" fill="#99C7FF"/>
<path d="M108.92 744.63C93.42 744.63 80.86 757.19 80.86 772.69C80.86 788.19 93.42 800.75 108.92 800.75C113.77 800.75 118.34 799.52 122.32 797.35H129.84C131.63 797.35 133.09 795.9 133.09 794.1V786.96C135.56 782.78 136.99 777.9 136.99 772.69C136.99 757.19 124.43 744.63 108.93 744.63H108.92ZM122.73 783.95C122.73 785.57 121.41 786.89 119.79 786.89H107.69C106.07 786.89 104.75 785.57 104.75 783.95C104.75 782.33 106.07 781.01 107.69 781.01H119.79C121.41 781.01 122.73 782.33 122.73 783.95ZM122.73 773.56C122.73 775.18 121.41 776.5 119.79 776.5H95.87C94.25 776.5 92.93 775.18 92.93 773.56C92.93 771.94 94.25 770.62 95.87 770.62H119.79C121.41 770.62 122.73 771.94 122.73 773.56ZM119.79 766.11H98.7401C97.1201 766.11 95.8 764.79 95.8 763.17C95.8 761.55 97.1201 760.23 98.7401 760.23H119.79C121.41 760.23 122.73 761.55 122.73 763.17C122.73 764.79 121.41 766.11 119.79 766.11Z" fill="#99C7FF"/>
<path d="M190.83 744.63C175.33 744.63 162.77 757.19 162.77 772.69C162.77 788.19 175.33 800.75 190.83 800.75C195.68 800.75 200.25 799.52 204.23 797.35H211.75C213.54 797.35 215 795.9 215 794.1V786.96C217.47 782.78 218.9 777.9 218.9 772.69C218.9 757.19 206.34 744.63 190.84 744.63H190.83ZM204.64 783.95C204.64 785.57 203.32 786.89 201.7 786.89H189.6C187.98 786.89 186.66 785.57 186.66 783.95C186.66 782.33 187.98 781.01 189.6 781.01H201.7C203.32 781.01 204.64 782.33 204.64 783.95ZM204.64 773.56C204.64 775.18 203.32 776.5 201.7 776.5H177.78C176.16 776.5 174.84 775.18 174.84 773.56C174.84 771.94 176.16 770.62 177.78 770.62H201.7C203.32 770.62 204.64 771.94 204.64 773.56ZM201.7 766.11H180.65C179.03 766.11 177.71 764.79 177.71 763.17C177.71 761.55 179.03 760.23 180.65 760.23H201.7C203.32 760.23 204.64 761.55 204.64 763.17C204.64 764.79 203.32 766.11 201.7 766.11Z" fill="#99C7FF"/>
<path d="M272.75 744.63C257.25 744.63 244.69 757.19 244.69 772.69C244.69 788.19 257.25 800.75 272.75 800.75C277.6 800.75 282.17 799.52 286.15 797.35H293.67C295.46 797.35 296.92 795.9 296.92 794.1V786.96C299.39 782.78 300.82 777.9 300.82 772.69C300.82 757.19 288.26 744.63 272.76 744.63H272.75ZM286.56 783.95C286.56 785.57 285.24 786.89 283.62 786.89H271.52C269.9 786.89 268.58 785.57 268.58 783.95C268.58 782.33 269.9 781.01 271.52 781.01H283.62C285.24 781.01 286.56 782.33 286.56 783.95ZM286.56 773.56C286.56 775.18 285.24 776.5 283.62 776.5H259.7C258.08 776.5 256.76 775.18 256.76 773.56C256.76 771.94 258.08 770.62 259.7 770.62H283.62C285.24 770.62 286.56 771.94 286.56 773.56ZM283.62 766.11H262.57C260.95 766.11 259.63 764.79 259.63 763.17C259.63 761.55 260.95 760.23 262.57 760.23H283.62C285.24 760.23 286.56 761.55 286.56 763.17C286.56 764.79 285.24 766.11 283.62 766.11Z" fill="#99C7FF"/>
<path d="M354.66 744.63C339.16 744.63 326.6 757.19 326.6 772.69C326.6 788.19 339.16 800.75 354.66 800.75C359.51 800.75 364.08 799.52 368.06 797.35H375.58C377.37 797.35 378.83 795.9 378.83 794.1V786.96C381.3 782.78 382.73 777.9 382.73 772.69C382.73 757.19 370.17 744.63 354.67 744.63H354.66ZM368.47 783.95C368.47 785.57 367.15 786.89 365.53 786.89H353.43C351.81 786.89 350.49 785.57 350.49 783.95C350.49 782.33 351.81 781.01 353.43 781.01H365.53C367.15 781.01 368.47 782.33 368.47 783.95ZM368.47 773.56C368.47 775.18 367.15 776.5 365.53 776.5H341.61C339.99 776.5 338.67 775.18 338.67 773.56C338.67 771.94 339.99 770.62 341.61 770.62H365.53C367.15 770.62 368.47 771.94 368.47 773.56ZM365.53 766.11H344.48C342.86 766.11 341.54 764.79 341.54 763.17C341.54 761.55 342.86 760.23 344.48 760.23H365.53C367.15 760.23 368.47 761.55 368.47 763.17C368.47 764.79 367.15 766.11 365.53 766.11Z" fill="#99C7FF"/>
</svg>
