<svg width="16" height="16" viewBox="0 0 16 16" fill="none" xmlns="http://www.w3.org/2000/svg">
<g clip-path="url(#clip0_1503_4160)">
<path d="M13.0418 16.0001H2.11061C0.946327 16.0001 0 15.0555 0 13.8916V2.98257C0 1.82045 0.946327 0.874023 2.11061 0.874023H7.76249C8.17418 0.874023 8.50763 1.20685 8.50763 1.61778C8.50763 2.0287 8.17418 2.36153 7.76249 2.36153H2.11061C1.76784 2.36153 1.49028 2.64044 1.49028 2.98071V13.8916C1.49028 14.2337 1.76971 14.5126 2.11061 14.5126H13.0418C13.3846 14.5126 13.6621 14.2337 13.6621 13.8916V8.2502C13.6621 7.83928 13.9956 7.50645 14.4073 7.50645C14.819 7.50645 15.1524 7.83928 15.1524 8.2502V13.8916C15.1524 15.0537 14.2061 16.0001 13.0418 16.0001Z" fill="#575757"/>
<path d="M4.90863 11.8127C4.71303 11.8127 4.52302 11.7364 4.38145 11.5951C4.20448 11.4185 4.1281 11.1675 4.1784 10.9239L4.66087 8.51226C4.68882 8.36909 4.76147 8.23521 4.86392 8.13295L12.5947 0.418361C12.8649 0.148751 13.2225 0 13.6044 0C13.9863 0 14.344 0.148751 14.6141 0.418361L15.5809 1.38338C15.851 1.65299 16 2.00999 16 2.39117C16 2.77234 15.851 3.12934 15.5809 3.39895L7.85193 11.1135C7.74761 11.2177 7.61535 11.2883 7.47191 11.3162L5.0558 11.7978C5.00736 11.8071 4.95893 11.8127 4.9105 11.8127H4.90863ZM6.0785 9.02545L5.85869 10.1225L6.95777 9.90308L14.4837 2.38931L13.6044 1.51168L6.0785 9.02359V9.02545Z" fill="#575757"/>
<path d="M14.0887 4.57975C13.8987 4.57975 13.7068 4.50723 13.5615 4.3622L11.6298 2.43402C11.3392 2.14396 11.3392 1.67353 11.6298 1.38161C11.9204 1.09155 12.3935 1.09155 12.6841 1.38161L14.6159 3.30979C14.9065 3.59986 14.9065 4.07028 14.6159 4.3622C14.4706 4.50723 14.2806 4.57975 14.0887 4.57975Z" fill="#575757"/>
</g>
<defs>
<clipPath id="clip0_1503_4160">
<rect width="16" height="16" fill="white"/>
</clipPath>
</defs>
</svg>
