<?xml version="1.0" encoding="utf-8"?>
<!-- Generator: Adobe Illustrator 28.0.0, SVG Export Plug-In . SVG Version: 6.00 Build 0)  -->
<svg version="1.1" id="Layer_2_00000080175277375445356510000017460235845223146629_"
	 xmlns="http://www.w3.org/2000/svg" xmlns:xlink="http://www.w3.org/1999/xlink" x="0px" y="0px" viewBox="0 0 52 52"
	 style="enable-background:new 0 0 52 52;" xml:space="preserve">
<style type="text/css">
	.st0{fill:#00338E;}
	.st1{fill:#FFFFFF;}
</style>
<path class="st0" d="M26,0C11.6,0,0,11.6,0,26s11.6,26,26,26s26-11.6,26-26C52,11.6,40.3,0,26,0z"/>
<path class="st1" d="M31.4,9l6.8,6.8h-4.3c-1.4,0-2.5-1.1-2.5-2.5V9z"/>
<path class="st1" d="M38.6,39.1c0,2.3-1.9,4.2-4.2,4.2H17.6c-2.3,0-4.2-1.9-4.2-4.2V12.9c0-2.3,1.9-4.2,4.2-4.2h12.5v4.7
	c0,2.1,1.7,3.7,3.7,3.7h4.7V39.1L38.6,39.1z"/>
<path class="st0" d="M35.3,35.3h-18c-0.3,0-0.6,0.3-0.6,0.6c0,0.3,0.3,0.6,0.6,0.6h18c0.3,0,0.6-0.3,0.6-0.6
	C35.9,35.6,35.6,35.3,35.3,35.3z"/>
<path class="st0" d="M17.2,31.6h18c0.3,0,0.6-0.3,0.6-0.6c0-0.3-0.3-0.6-0.6-0.6h-18c-0.3,0-0.6,0.3-0.6,0.6
	C16.6,31.3,16.9,31.6,17.2,31.6z"/>
<path class="st0" d="M17.2,26.6h14.9c0.3,0,0.6-0.3,0.6-0.6c0-0.3-0.3-0.6-0.6-0.6H17.2c-0.3,0-0.6,0.3-0.6,0.6
	C16.6,26.3,16.9,26.6,17.2,26.6z"/>
<path class="st0" d="M17.2,21.7h11.2c0.3,0,0.6-0.3,0.6-0.6c0-0.3-0.3-0.6-0.6-0.6H17.2c-0.3,0-0.6,0.3-0.6,0.6
	C16.6,21.4,16.9,21.7,17.2,21.7z"/>
</svg>
