<svg width="52" height="52" viewBox="0 0 52 52" fill="none" xmlns="http://www.w3.org/2000/svg">
<g clip-path="url(#clip0_1543_5195)">
<path fill-rule="evenodd" clip-rule="evenodd" d="M26 0C11.64 0 0 11.64 0 26C0 40.36 11.64 52 26 52C40.36 52 52 40.36 52 26C52 11.64 40.36 0 26 0ZM38.34 28.47C34.49 32.63 30.64 36.8 26.79 40.96C26.58 41.19 26.31 41.31 25.99 41.31C25.67 41.31 25.41 41.19 25.19 40.96C21.34 36.8 17.49 32.63 13.64 28.47C10.63 25.21 10.63 19.87 13.64 16.61C16.65 13.35 21.59 13.35 24.6 16.61L25.98 18.1L27.36 16.61C30.37 13.36 35.3 13.34 38.32 16.61C41.33 19.87 41.33 25.21 38.32 28.47H38.34Z" fill="#D9D9D9"/>
</g>
<defs>
<clipPath id="clip0_1543_5195">
<rect width="52" height="52" fill="white"/>
</clipPath>
</defs>
</svg>
