<?xml version="1.0" encoding="UTF-8"?>
<svg id="Layer_2" data-name="Layer 2" xmlns="http://www.w3.org/2000/svg" viewBox="0 0 52 52">
  <defs>
    <style>
      .cls-1 {
        fill: #f5f5f5;
      }

      .cls-1, .cls-2 {
        stroke-width: 0px;
      }

      .cls-2 {
        fill: #00338e;
      }
    </style>
  </defs>
  <g id="Layer_1-2" data-name="Layer 1">
    <g>
      <circle class="cls-1" cx="26" cy="26" r="26"/>
      <path class="cls-2" d="m26,0C11.64,0,0,11.64,0,26s11.64,26,26,26,26-11.64,26-26C51.98,11.65,40.35.02,26,0Zm5.39,9.03l6.81,6.8h-4.33c-1.37,0-2.48-1.11-2.48-2.48v-4.32Zm7.17,30.11c0,2.32-1.88,4.19-4.19,4.19h-16.72c-2.32,0-4.2-1.88-4.2-4.19V12.87c0-2.32,1.88-4.2,4.2-4.2h12.51v4.69c0,2.05,1.66,3.71,3.71,3.72h4.69v22.07h0Z"/>
      <path class="cls-2" d="m35.29,35.28h-18.04c-.34,0-.61.29-.61.63s.27.6.61.61h18.04c.34,0,.61-.29.61-.63s-.27-.6-.61-.61Z"/>
      <path class="cls-2" d="m17.25,31.57h18.04c.34,0,.61-.29.61-.63s-.27-.6-.61-.61h-18.04c-.34,0-.61.29-.61.63s.27.6.61.61Z"/>
      <path class="cls-2" d="m17.25,26.62h14.94c.34,0,.62-.28.62-.62s-.28-.62-.62-.62h-14.94c-.34,0-.62.28-.62.62s.28.62.62.62Z"/>
      <path class="cls-2" d="m17.25,21.67h11.22c.34,0,.62-.29.61-.63,0-.34-.28-.61-.61-.61h-11.22c-.34,0-.61.29-.61.63s.27.6.61.61Z"/>
    </g>
  </g>
</svg>