<svg width="17" height="16" viewBox="0 0 17 16" fill="none" xmlns="http://www.w3.org/2000/svg">
<g clip-path="url(#clip0_1472_3943)">
<path d="M11.38 10.6719H8.77338V11.8207H11.38V10.6719Z" fill="#00338E"/>
<path d="M8.26794 10.6719H5.66136V11.8207H8.26794V10.6719Z" fill="#00338E"/>
<path d="M8.06769 7.52734V8.43684L8.73523 7.94619L8.06769 7.52734Z" fill="#00338E"/>
<path d="M11.38 4.04492H8.77338V5.32839H11.38V4.04492Z" fill="#00338E"/>
<path d="M8.26794 4.04492H5.66136V5.32839H8.26794V4.04492Z" fill="#00338E"/>
<path d="M8.5 0C3.80497 0 0 3.58115 0 8C0 12.4188 3.80497 16 8.5 16C13.195 16 17 12.4188 17 8C17 3.58115 13.195 0 8.5 0ZM12.661 5.32835C13.0901 5.32835 13.4366 5.65744 13.4366 6.05834V9.97756C13.4366 10.3815 13.0869 10.7076 12.661 10.7076H11.8854V12.1735H13.1696C13.3254 12.1735 13.443 12.2842 13.443 12.4308C13.443 12.5774 13.3254 12.6492 13.1696 12.6492H3.8304C3.67464 12.6492 3.55703 12.5385 3.55703 12.3919C3.55703 12.2453 3.67464 12.1346 3.8304 12.1346H5.11462V10.6687H4.339C3.90987 10.6687 3.56339 10.3396 3.56339 9.93867V6.05834C3.56339 5.65445 3.91305 5.32835 4.339 5.32835H5.11462V3.86238H3.8304C3.67464 3.86238 3.55703 3.75168 3.55703 3.60509C3.55703 3.45849 3.67464 3.34779 3.8304 3.34779H13.1664C13.3222 3.34779 13.4398 3.45849 13.4398 3.60509C13.4398 3.75168 13.3222 3.86238 13.1664 3.86238H11.8822V5.32835H12.6578H12.661Z" fill="#00338E"/>
<path d="M4.44708 6.35463V9.67849C4.48205 9.77123 4.59013 9.86398 4.69503 9.86398H12.3018C12.4448 9.86398 12.5497 9.77123 12.5497 9.64558V6.35463C12.5497 6.22898 12.4448 6.13623 12.3018 6.13623H4.69503C4.55198 6.13623 4.44708 6.22898 4.44708 6.35463ZM7.35247 6.92007C7.35247 6.75852 7.40969 6.65082 7.58134 6.59995C7.6926 6.5461 7.86743 6.5461 7.98186 6.65381L9.52038 7.72785C9.63164 7.78171 9.69203 7.88941 9.69203 7.99711C9.69203 8.10482 9.63482 8.21252 9.52038 8.26637L7.98186 9.34042C7.86425 9.39427 7.80703 9.44513 7.75299 9.44513C7.69577 9.44513 7.64174 9.44513 7.58134 9.39128C7.40969 9.33743 7.35247 9.22972 7.35247 9.07116V6.92007Z" fill="#00338E"/>
</g>
<defs>
<clipPath id="clip0_1472_3943">
<rect width="17" height="16" fill="white"/>
</clipPath>
</defs>
</svg>
