<svg width="40" height="40" viewBox="0 0 40 40" fill="none" xmlns="http://www.w3.org/2000/svg">
<g clip-path="url(#clip0_1516_6556)">
<path d="M26.7767 26.6787H20.6436V29.5508H26.7767V26.6787Z" fill="#C1C1C1"/>
<path d="M19.4544 26.6787H13.3213V29.5508H19.4544V26.6787Z" fill="#C1C1C1"/>
<path d="M18.9824 18.8184V21.0921L20.5531 19.8655L18.9824 18.8184Z" fill="#C1C1C1"/>
<path d="M26.7767 10.1123H20.6436V13.321H26.7767V10.1123Z" fill="#C1C1C1"/>
<path d="M19.4544 10.1123H13.3213V13.321H19.4544V10.1123Z" fill="#C1C1C1"/>
<path d="M20 0C8.95288 0 0 8.95288 0 20C0 31.0471 8.95288 40 20 40C31.0471 40 40 31.0471 40 20C40 8.95288 31.0471 0 20 0ZM29.7906 13.3209C30.8003 13.3209 31.6156 14.1436 31.6156 15.1458V24.9439C31.6156 25.9536 30.7928 26.7689 29.7906 26.7689H27.9656V30.4338H30.9873C31.3538 30.4338 31.6305 30.7105 31.6305 31.077C31.6305 31.4435 31.3538 31.623 30.9873 31.623H9.01272C8.64622 31.623 8.36948 31.3463 8.36948 30.9798C8.36948 30.6133 8.64622 30.3366 9.01272 30.3366H12.0344V26.6717H10.2094C9.1997 26.6717 8.38444 25.8489 8.38444 24.8467V15.1458C8.38444 14.1361 9.20718 13.3209 10.2094 13.3209H12.0344V9.65595H9.01272C8.64622 9.65595 8.36948 9.37921 8.36948 9.01272C8.36948 8.64622 8.64622 8.36948 9.01272 8.36948H30.9798C31.3463 8.36948 31.623 8.64622 31.623 9.01272C31.623 9.37921 31.3463 9.65595 30.9798 9.65595H27.9581V13.3209H29.7831H29.7906Z" fill="#C1C1C1"/>
<path d="M10.4639 15.8858V24.1955C10.5461 24.4274 10.8004 24.6592 11.0473 24.6592H28.9455C29.2821 24.6592 29.5289 24.4274 29.5289 24.1132V15.8858C29.5289 15.5717 29.2821 15.3398 28.9455 15.3398H11.0473C10.7107 15.3398 10.4639 15.5717 10.4639 15.8858ZM17.3001 17.2995C17.3001 16.8956 17.4347 16.6263 17.8386 16.4992C18.1004 16.3645 18.5117 16.3645 18.781 16.6338L22.401 19.3189C22.6628 19.4535 22.8049 19.7228 22.8049 19.992C22.8049 20.2613 22.6703 20.5306 22.401 20.6652L18.781 23.3503C18.5043 23.4849 18.3696 23.6121 18.2425 23.6121C18.1078 23.6121 17.9807 23.6121 17.8386 23.4775C17.4347 23.3428 17.3001 23.0736 17.3001 22.6772V17.2995Z" fill="#C1C1C1"/>
</g>
<defs>
<clipPath id="clip0_1516_6556">
<rect width="40" height="40" fill="white"/>
</clipPath>
</defs>
</svg>
