<svg width="20" height="20" viewBox="0 0 20 20" fill="none" xmlns="http://www.w3.org/2000/svg">
<g clip-path="url(#clip0_1413_4830)">
<path d="M19.82 5.82037L14.41 0.190372C14.23 0.0103722 13.96 -0.0496278 13.73 0.0403722C13.49 0.140372 13.34 0.370372 13.34 0.620372V3.33037H13.13C8.64999 3.33037 5.00999 6.98037 5.00999 11.4504V12.7004C5.00999 12.9904 5.20999 13.2304 5.49999 13.3004C5.54999 13.3104 5.58999 13.3204 5.63999 13.3204C5.87999 13.3204 6.09999 13.1804 6.20999 12.9604C7.37999 10.6204 9.73999 9.16037 12.36 9.16037H13.35V11.8704C13.35 12.1204 13.51 12.3504 13.74 12.4504C13.97 12.5404 14.25 12.4904 14.42 12.3004L19.84 6.68037C20.07 6.44037 20.07 6.06037 19.84 5.81037L19.82 5.82037Z" fill="#313131"/>
<path d="M17.5 20.0001H2.5C1.12 20.0001 0 18.8801 0 17.5001V5.83008C0 4.45008 1.12 3.33008 2.5 3.33008H5C5.46 3.33008 5.83 3.70008 5.83 4.16008C5.83 4.62008 5.46 4.99008 5 4.99008H2.5C2.04 4.99008 1.67 5.36008 1.67 5.82008V17.4901C1.67 17.9501 2.04 18.3201 2.5 18.3201H17.5C17.96 18.3201 18.33 17.9501 18.33 17.4901V10.8201C18.33 10.3601 18.7 9.99008 19.16 9.99008C19.62 9.99008 19.99 10.3601 19.99 10.8201V17.4901C19.99 18.8701 18.87 19.9901 17.49 19.9901L17.5 20.0001Z" fill="#313131"/>
</g>
<defs>
<clipPath id="clip0_1413_4830">
<rect width="20" height="20" fill="white"/>
</clipPath>
</defs>
</svg>
