<svg width="52" height="52" viewBox="0 0 52 52" fill="none" xmlns="http://www.w3.org/2000/svg">
<path d="M26 0C11.64 0 0 11.64 0 26C0 40.36 11.64 52 26 52C40.36 52 52 40.36 52 26C51.98 11.65 40.35 0.02 26 0ZM41.41 26.59C40.63 25.81 39.36 25.81 38.58 26.59L29.99 35.18L15.4 20.59C14.62 19.81 13.35 19.81 12.57 20.59L4.21 28.95C4.07 27.97 4 26.99 3.99 26C3.97 13.85 13.81 3.98 25.96 3.97C38.11 3.96 47.98 13.79 47.99 25.94C47.99 28.08 47.68 30.21 47.07 32.26L41.4 26.59H41.41Z" fill="#BCBCBC"/>
<path d="M34 16.5C35.3807 16.5 36.5 15.3807 36.5 14C36.5 12.6193 35.3807 11.5 34 11.5C32.6193 11.5 31.5 12.6193 31.5 14C31.5 15.3807 32.6193 16.5 34 16.5Z" fill="#BCBCBC"/>
</svg>
