<svg width="20" height="20" viewBox="0 0 20 20" fill="none" xmlns="http://www.w3.org/2000/svg">
<g clip-path="url(#clip0_1366_6216)">
<path d="M11.6699 10C14.4313 10 16.6699 7.76142 16.6699 5C16.6699 2.23858 14.4313 0 11.6699 0C8.9085 0 6.66992 2.23858 6.66992 5C6.66992 7.76142 8.9085 10 11.6699 10Z" fill="#00338E"/>
<path d="M14.1698 11.6699H9.16984C5.94984 11.6699 3.33984 14.2799 3.33984 17.4999V19.1699C3.33984 19.6299 3.70984 19.9999 4.16984 19.9999H19.1698C19.6298 19.9999 19.9998 19.6299 19.9998 19.1699V17.4999C19.9998 14.2799 17.3898 11.6699 14.1698 11.6699Z" fill="#00338E"/>
<path d="M3.33 5.83008C2.87 5.83008 2.5 6.20008 2.5 6.66008V8.33008H0.83C0.37 8.33008 0 8.70008 0 9.16008C0 9.62008 0.37 9.99008 0.83 9.99008H2.5V11.6601C2.5 12.1201 2.87 12.4901 3.33 12.4901C3.79 12.4901 4.16 12.1201 4.16 11.6601V9.99008H5.83C6.29 9.99008 6.66 9.62008 6.66 9.16008C6.66 8.70008 6.29 8.33008 5.83 8.33008H4.16V6.66008C4.16 6.20008 3.79 5.83008 3.33 5.83008Z" fill="#00338E"/>
</g>
<defs>
<clipPath id="clip0_1366_6216">
<rect width="20" height="20" fill="white"/>
</clipPath>
</defs>
</svg>
