<svg width="24" height="32" viewBox="0 0 24 32" fill="none" xmlns="http://www.w3.org/2000/svg">
<g clip-path="url(#clip0_1745_4635)">
<path fill-rule="evenodd" clip-rule="evenodd" d="M4.17814 0H14.908L24 9.45533V27.833C24 30.1311 22.1261 32 19.8219 32H4.17814C1.87392 32 0 30.1311 0 27.833V4.16699C0 1.86892 1.87392 0 4.17814 0Z" fill="#0AC963"/>
<path opacity="0.3" fill-rule="evenodd" clip-rule="evenodd" d="M14.9011 0V9.37919H24.007L14.9011 0Z" fill="white"/>
<path fill-rule="evenodd" clip-rule="evenodd" d="M16.0809 15.9961H7.9259C7.31514 15.9961 6.81543 16.4945 6.81543 17.1036V22.2743C6.81543 22.8834 7.31514 23.3818 7.9259 23.3818H16.0809C16.6917 23.3818 17.1775 22.8834 17.1775 22.2743V17.1036C17.1775 16.4945 16.6917 15.9961 16.0809 15.9961ZM10.1538 17.3874C10.8201 17.3874 11.3475 17.9273 11.3475 18.578C11.3475 19.2286 10.8201 19.7824 10.1538 19.7824C9.48749 19.7824 8.94614 19.2425 8.94614 18.578C8.94614 17.9135 9.48749 17.3874 10.1538 17.3874ZM16.4487 22.2743C16.4487 22.475 16.2891 22.655 16.0809 22.655H7.9259C7.72463 22.655 7.55806 22.4819 7.55806 22.2743V22.0597L9.03637 20.5853L10.2579 21.8036C10.4106 21.9559 10.6396 21.9559 10.7854 21.8036L13.853 18.7441L16.4418 21.326V22.2743H16.4487Z" fill="white"/>
</g>
<defs>
<clipPath id="clip0_1745_4635">
<rect width="24" height="32" fill="white"/>
</clipPath>
</defs>
</svg>
