<svg width="52" height="52" viewBox="0 0 52 52" fill="none" xmlns="http://www.w3.org/2000/svg">
<path fill-rule="evenodd" clip-rule="evenodd" d="M26 52C11.64 52 0 40.36 0 26C0 11.64 11.65 0 26 0C40.35 0 52 11.64 52 26C52 40.36 40.36 52 26 52ZM26 9.09C33.11 9.09 38.88 14.86 38.88 21.97C38.88 29.08 26 42.91 26 42.91C26 42.91 13.12 29.08 13.12 21.97C13.12 14.86 18.89 9.09 26 9.09ZM26 16.85C28.7 16.85 30.88 19.04 30.88 21.73C30.88 24.42 28.69 26.61 26 26.61C23.31 26.61 21.12 24.42 21.12 21.73C21.12 19.04 23.31 16.85 26 16.85Z" fill="#BCBCBC"/>
</svg>
