<?xml version="1.0" encoding="utf-8"?>
<!-- Generator: Adobe Illustrator 27.9.0, SVG Export Plug-In . SVG Version: 6.00 Build 0)  -->
<svg version="1.1" id="Layer_1" xmlns="http://www.w3.org/2000/svg" xmlns:xlink="http://www.w3.org/1999/xlink" x="0px" y="0px"
	 viewBox="0 0 192 192" style="enable-background:new 0 0 192 192;" xml:space="preserve">
<style type="text/css">
	.st0{fill:#00338E;}
	.st1{clip-path:url(#SVGID_00000029029609300975714070000018255500266543033257_);}
	.st2{fill:#99C7FF;}
	.st3{clip-path:url(#SVGID_00000031887867368554427400000001738835157079767175_);}
	.st4{clip-path:url(#SVGID_00000154418804066815145960000018047350884625585071_);}
	.st5{fill:#9FC4E8;}
	.st6{clip-path:url(#SVGID_00000005946184279941670270000000909734373844942999_);}
	.st7{fill:#FFFFFF;}
	.st8{fill:#F5F5F5;}
	.st9{fill-rule:evenodd;clip-rule:evenodd;fill:#00338E;}
	.st10{fill:#ABA9A9;}
	.st11{clip-path:url(#SVGID_00000102502544155779779460000018320946272117235637_);}
	.st12{clip-path:url(#SVGID_00000021823419411055778920000005852725115631964824_);}
	.st13{clip-path:url(#SVGID_00000058548624556642816340000007683542256725053871_);}
	.st14{fill:#313131;}
	.st15{clip-path:url(#SVGID_00000054229269496934289400000004539910106853817232_);}
	.st16{clip-path:url(#SVGID_00000090282249106739372070000016950031496745792684_);}
	.st17{fill:#575757;}
	.st18{clip-path:url(#SVGID_00000178203225767912669750000000164336341477116588_);}
	.st19{clip-path:url(#SVGID_00000055703594198161856530000006739122561824783801_);}
	.st20{fill:#D9D9D9;}
	.st21{clip-path:url(#SVGID_00000077288963184887493010000016017103269019873442_);}
	.st22{clip-path:url(#SVGID_00000167385072473241477680000016152329558745651329_);}
	.st23{clip-path:url(#SVGID_00000157297752132135484270000010114237305140944530_);}
	.st24{clip-path:url(#SVGID_00000052104771144155085500000006670443289906022310_);}
</style>
<g>
	<circle class="st8" cx="96" cy="96" r="93.29"/>
	<path class="st9" d="M96,189.29c-51.52,0-93.29-41.76-93.29-93.29S44.51,2.71,96,2.71S189.29,44.48,189.29,96
		S147.52,189.29,96,189.29z M96,35.33c25.51,0,46.21,20.7,46.21,46.21S96,156.67,96,156.67s-46.21-49.62-46.21-75.13
		S70.49,35.33,96,35.33z M96,63.17c9.69,0,17.51,7.86,17.51,17.51c0,9.65-7.86,17.51-17.51,17.51s-17.51-7.86-17.51-17.51
		C78.49,71.03,86.35,63.17,96,63.17z"/>
</g>
</svg>
