<svg width="45" height="45" viewBox="0 0 45 45" fill="none" xmlns="http://www.w3.org/2000/svg">
<path d="M45 22.5C45 10.0774 34.9226 0 22.5 0C10.0774 0 0 10.0774 0 22.5C0 34.9226 10.0774 45 22.5 45C26.3938 45 30.0553 44.0155 33.2411 42.2788H39.2699C40.708 42.2788 41.8695 41.1173 41.8695 39.6792V33.9491C43.8496 30.5973 44.9889 26.6814 44.9889 22.5111L45 22.5Z" fill="#19AA33"/>
<path d="M14.7456 24.8122L11.073 18.4405C9.57965 15.8631 11.4491 12.644 14.4248 12.644H15.0996L21.4491 23.6396C21.7478 24.1595 21.3717 24.8122 20.7743 24.8122H14.7566H14.7456Z" fill="#9DF9AA"/>
<path d="M18.7831 19.0269H15.907C13.8938 19.0269 12.6438 21.2061 13.6615 22.9428L14.7455 24.8012H20.7743C21.3827 24.8012 21.7588 24.1485 21.4491 23.6286L18.7831 19.0269Z" fill="#037012"/>
<path d="M31.2832 19.0268H11.3827L11.0398 18.4405C9.54644 15.8631 11.4159 12.644 14.3916 12.644H31.2832C33.042 12.644 34.4801 14.071 34.4801 15.8409C34.4801 17.5998 33.0531 19.0378 31.2832 19.0378V19.0268Z" fill="#9DF9AA"/>
<path d="M30.2433 21.3721L33.9159 27.7438C35.4093 30.3212 33.5398 33.5402 30.5641 33.5402H29.8894L23.5398 22.5446C23.2411 22.0247 23.6172 21.3721 24.2146 21.3721H30.2323H30.2433Z" fill="#9DF9AA"/>
<path d="M26.2057 27.1464H29.0818C31.0951 27.1464 32.3451 24.9672 31.3274 23.2305L30.2433 21.3721H24.2146C23.6061 21.3721 23.23 22.0247 23.5398 22.5446L26.2057 27.1464Z" fill="#037012"/>
<path d="M13.9491 27.1463H33.6172L33.9602 27.7326C35.4535 30.31 33.5841 33.5291 30.6084 33.5291H13.9491C12.1902 33.5291 10.7522 32.1021 10.7522 30.3322C10.7522 28.5733 12.1792 27.1353 13.9491 27.1353V27.1463Z" fill="#9DF9AA"/>
</svg>
