<svg width="63" height="21" viewBox="0 0 63 21" fill="none" xmlns="http://www.w3.org/2000/svg">
<g clip-path="url(#clip0_2080_5485)">
<path d="M23.74 0.360234L15.56 19.8902H10.22L6.18 4.30023C5.94 3.34023 5.72 2.99023 4.98 2.58023C3.77 1.93023 1.76 1.31023 0 0.920234L0.12 0.360234H8.72C9.82 0.360234 10.8 1.09023 11.05 2.35023L13.18 13.6502L18.43 0.360234H23.74ZM44.66 13.5102C44.68 8.36024 37.53 8.07023 37.58 5.77023C37.6 5.07023 38.26 4.32023 39.72 4.13023C40.44 4.04023 42.44 3.96023 44.7 5.00023L45.59 0.860234C44.37 0.420234 42.81 -0.00976562 40.86 -0.00976562C35.87 -0.00976562 32.35 2.64023 32.32 6.45023C32.29 9.26023 34.83 10.8302 36.74 11.7602C38.71 12.7202 39.37 13.3302 39.36 14.1902C39.35 15.5002 37.79 16.0802 36.34 16.1002C33.8 16.1402 32.33 15.4102 31.15 14.8702L30.23 19.1502C31.41 19.6902 33.59 20.1602 35.85 20.1902C41.16 20.1902 44.63 17.5702 44.64 13.5102M57.82 19.8902H62.49L58.44 0.360234H54.13C53.16 0.360234 52.34 0.920234 51.98 1.79023L44.4 19.8902H49.7L50.75 16.9702H57.23L57.84 19.8902H57.82ZM52.18 12.9702L54.84 5.64023L56.37 12.9702H52.18ZM30.95 0.360234L26.77 19.8902H21.72L25.9 0.360234H30.95Z" fill="#1434CB"/>
</g>
<defs>
<clipPath id="clip0_2080_5485">
<rect width="62.52" height="20.19" fill="white"/>
</clipPath>
</defs>
</svg>
