<svg width="66" height="66" viewBox="0 0 66 66" fill="none" xmlns="http://www.w3.org/2000/svg">
<path d="M33 66C51.2254 66 66 51.2254 66 33C66 14.7746 51.2254 0 33 0C14.7746 0 0 14.7746 0 33C0 51.2254 14.7746 66 33 66Z" fill="#19AA33"/>
<path d="M52 34.3801C52 35.5101 51.27 36.5101 50.01 37.1401L24.7 49.8001C24.08 50.1101 23.48 50.2601 22.93 50.2601C22.13 50.2601 21.42 49.9201 20.97 49.3201C20.59 48.7901 20.22 47.8801 20.66 46.4001L23.51 36.8901C23.6 36.6101 23.66 36.2701 23.7 35.9201H39.32C40.17 35.9201 40.86 35.2301 40.86 34.3801C40.86 33.5301 40.17 32.8401 39.32 32.8401H23.7C23.67 32.4901 23.61 32.1501 23.51 31.8701L20.66 22.3601C20.21 20.8801 20.58 19.9701 20.97 19.4501C21.73 18.4301 23.16 18.2001 24.7 18.9701L50.02 31.6301C51.28 32.2601 52.01 33.2601 52.01 34.3901L52 34.3801Z" fill="#CFF9D4"/>
</svg>
