<svg width="5" height="24" viewBox="0 0 5 24" fill="none" xmlns="http://www.w3.org/2000/svg">
<g clip-path="url(#clip0_1413_4614)">
<path d="M2.25 4.8C3.49264 4.8 4.5 3.72548 4.5 2.4C4.5 1.07452 3.49264 0 2.25 0C1.00736 0 0 1.07452 0 2.4C0 3.72548 1.00736 4.8 2.25 4.8Z" fill="#9FC4E8"/>
<path d="M2.25 14.3996C3.49264 14.3996 4.5 13.3251 4.5 11.9996C4.5 10.6741 3.49264 9.59961 2.25 9.59961C1.00736 9.59961 0 10.6741 0 11.9996C0 13.3251 1.00736 14.3996 2.25 14.3996Z" fill="#9FC4E8"/>
<path d="M2.25 24.0002C3.49264 24.0002 4.5 22.9257 4.5 21.6002C4.5 20.2747 3.49264 19.2002 2.25 19.2002C1.00736 19.2002 0 20.2747 0 21.6002C0 22.9257 1.00736 24.0002 2.25 24.0002Z" fill="#9FC4E8"/>
</g>
<defs>
<clipPath id="clip0_1413_4614">
<rect width="4.5" height="24" fill="white"/>
</clipPath>
</defs>
</svg>
