<svg width="20" height="20" viewBox="0 0 20 20" fill="none" xmlns="http://www.w3.org/2000/svg">
<g clip-path="url(#clip0_1366_6232)">
<path d="M20 10C20 4.47734 15.5227 0 10 0C4.47734 0 0 4.47734 0 10C0 15.5227 4.47734 20 10 20C11.7295 20 13.3558 19.5603 14.7757 18.7887H17.454C18.0933 18.7887 18.6115 18.2705 18.6115 17.6312V15.0852C19.493 13.5958 20 11.8573 20 10Z" fill="#00338E"/>
<path d="M13.8742 5.56055H6.3708C5.79225 5.56055 5.32324 6.02955 5.32324 6.6081C5.32324 7.18665 5.79225 7.65566 6.3708 7.65566H13.8742C14.4527 7.65566 14.9217 7.18665 14.9217 6.6081C14.9217 6.02955 14.4527 5.56055 13.8742 5.56055Z" fill="white"/>
<path d="M13.8741 9.26367H5.34785C4.7693 9.26367 4.30029 9.73268 4.30029 10.3112C4.30029 10.8898 4.7693 11.3588 5.34785 11.3588H13.8741C14.4526 11.3588 14.9216 10.8898 14.9216 10.3112C14.9216 9.73268 14.4526 9.26367 13.8741 9.26367Z" fill="white"/>
<path d="M13.874 12.9648H9.56269C8.98414 12.9648 8.51514 13.4339 8.51514 14.0124C8.51514 14.5909 8.98414 15.06 9.56269 15.06H13.874C14.4526 15.06 14.9216 14.5909 14.9216 14.0124C14.9216 13.4339 14.4526 12.9648 13.874 12.9648Z" fill="white"/>
</g>
<defs>
<clipPath id="clip0_1366_6232">
<rect width="20" height="20" fill="white"/>
</clipPath>
</defs>
</svg>
