<svg width="40" height="40" viewBox="0 0 40 40" fill="none" xmlns="http://www.w3.org/2000/svg">
<g clip-path="url(#clip0_438_1183)">
<path d="M20 0C8.96923 0 0 8.96923 0 20C0 31.0308 8.96923 40 20 40C31.0308 40 40 31.0308 40 20C40 8.96923 31.0308 0 20 0ZM26.9231 9.28462C29.4308 9.28462 31.4692 11.3231 31.4692 13.8308C31.4692 16.3385 29.4308 18.3692 26.9231 18.3692C26.6385 18.3692 26.3615 18.3385 26.0923 18.2923C26.1231 18.0615 26.1385 17.8308 26.1385 17.5923C26.1385 15.2538 24.7538 13.2 22.6462 12.3077C23.2769 10.5077 24.9692 9.28462 26.9231 9.28462ZM20.3923 13.0462C20.8538 13.0462 21.3077 13.1154 21.7308 13.2462C23.6462 13.8385 24.9308 15.5769 24.9308 17.5846C24.9308 17.9308 24.8923 18.2692 24.8077 18.6154C24.7846 18.7154 24.7538 18.8308 24.7154 18.9538C24.1231 20.8538 22.3769 22.1308 20.3846 22.1308C18.3923 22.1308 16.6462 20.8538 16.0538 18.9462C16.0154 18.8308 15.9846 18.7231 15.9615 18.6C15.8846 18.2692 15.8462 17.9308 15.8462 17.5846C15.8462 15.5769 17.1308 13.8308 19.0538 13.2462C19.4769 13.1154 19.9308 13.0462 20.3923 13.0462ZM13.8615 9.28462C15.8154 9.28462 17.5077 10.5077 18.1385 12.3077C16.0308 13.2 14.6462 15.2538 14.6462 17.5923C14.6462 17.8308 14.6615 18.0615 14.6923 18.2923C14.4154 18.3462 14.1385 18.3692 13.8615 18.3692C11.3615 18.3692 9.32308 16.3308 9.32308 13.8308C9.32308 11.3308 11.3615 9.28462 13.8615 9.28462ZM6.60769 25.5462C7.27692 22.1154 10.3308 19.5692 13.8615 19.5692C14.2538 19.5692 14.6538 19.6 15.0385 19.6615C15.5308 20.9385 16.4462 21.9615 17.5923 22.6C15.1692 23.4462 13.1846 25.3538 12.3 27.8308C10.2385 27.5692 8.29231 26.7846 6.61539 25.5462H6.60769ZM20.3923 31.7C17.7462 31.7 15.2462 30.8769 13.1308 29.3077C13.1692 29.1 13.2154 28.8846 13.2769 28.6692C14.1846 25.5231 17.1077 23.3231 20.3846 23.3231C22.1692 23.3231 23.9 23.9692 25.2462 25.1462C26.3231 26.0846 27.0923 27.2923 27.4923 28.6538C27.5538 28.8615 27.6077 29.0846 27.6462 29.3077C25.5308 30.8692 23.0308 31.6923 20.3846 31.6923L20.3923 31.7ZM28.4923 27.8308C28 26.4538 27.1615 25.2154 26.0462 24.2385C25.2077 23.5077 24.2385 22.9538 23.2 22.5923C24.3462 21.9538 25.2538 20.9308 25.7462 19.6538C26.1308 19.5923 26.5308 19.5615 26.9231 19.5615C28.7077 19.5615 30.4385 20.2077 31.7846 21.3846C33.0308 22.4692 33.8692 23.9385 34.1769 25.5462C32.5 26.7846 30.5538 27.5692 28.4923 27.8308Z" fill="#00338E"/>
</g>
<defs>
<clipPath id="clip0_438_1183">
<rect width="40" height="40" fill="white"/>
</clipPath>
</defs>
</svg>
