<svg width="52" height="52" viewBox="0 0 52 52" fill="none" xmlns="http://www.w3.org/2000/svg">
<g clip-path="url(#clip0_2552_4722)">
<path d="M52 26C52 11.6411 40.3589 0 26 0C11.6411 0 0 11.6411 0 26C0 40.3589 11.6411 52 26 52C30.4966 52 34.725 50.8569 38.4168 48.8506H45.3804C47.0426 48.8506 48.3899 47.5034 48.3899 45.8412V39.2216C50.6819 35.349 52 30.8291 52 26Z" fill="#99C7FF"/>
<path d="M36.0722 14.458H16.5635C15.0593 14.458 13.8398 15.6774 13.8398 17.1816C13.8398 18.6859 15.0593 19.9053 16.5635 19.9053H36.0722C37.5765 19.9053 38.7959 18.6859 38.7959 17.1816C38.7959 15.6774 37.5765 14.458 36.0722 14.458Z" fill="#00338E"/>
<path d="M36.0722 24.0869H13.904C12.3998 24.0869 11.1804 25.3063 11.1804 26.8106C11.1804 28.3148 12.3998 29.5342 13.904 29.5342H36.0722C37.5765 29.5342 38.7959 28.3148 38.7959 26.8106C38.7959 25.3063 37.5765 24.0869 36.0722 24.0869Z" fill="#00338E"/>
<path d="M36.0722 33.71H24.8627C23.3585 33.71 22.1391 34.9294 22.1391 36.4336C22.1391 37.9378 23.3585 39.1572 24.8627 39.1572H36.0722C37.5765 39.1572 38.7959 37.9378 38.7959 36.4336C38.7959 34.9294 37.5765 33.71 36.0722 33.71Z" fill="#00338E"/>
<path d="M52 26C52 11.645 40.355 0 26 0C11.645 0 0 11.645 0 26C0 40.355 11.645 52 26 52C30.4995 52 34.7306 50.8623 38.412 48.8555H45.3786C47.0403 48.8555 48.3825 47.5133 48.3825 45.8515V39.2301C50.6706 35.3569 51.9872 30.8319 51.9872 26.0128L52 26Z" fill="#19AA33"/>
<path d="M17.0393 28.6723L12.7955 21.3095C11.0698 18.3311 13.2301 14.6113 16.6686 14.6113H17.4484L24.7856 27.3173C25.1308 27.9181 24.6962 28.6723 24.0059 28.6723H17.0521H17.0393Z" fill="#9DF9AA"/>
<path d="M21.705 21.9873H18.3815C16.0551 21.9873 14.6106 24.5055 15.7866 26.5124L17.0393 28.6599H24.0059C24.7089 28.6599 25.1436 27.9057 24.7856 27.3049L21.705 21.9873Z" fill="#037012"/>
<path d="M36.1495 21.9869H13.1534L12.7571 21.3095C11.0315 18.3311 13.1917 14.6113 16.6303 14.6113H36.1495C38.1819 14.6113 39.8437 16.2603 39.8437 18.3055C39.8437 20.338 38.1947 21.9997 36.1495 21.9997V21.9869Z" fill="#9DF9AA"/>
<path d="M34.9479 24.6973L39.1917 32.0601C40.9174 35.0385 38.7571 38.7582 35.3186 38.7582H34.5388L27.2016 26.0522C26.8564 25.4514 27.291 24.6973 27.9813 24.6973H34.9351H34.9479Z" fill="#9DF9AA"/>
<path d="M30.2822 31.3698H33.6057C35.9321 31.3698 37.3766 28.8516 36.2006 26.8448L34.9479 24.6973H27.9813C27.2783 24.6973 26.8436 25.4514 27.2016 26.0522L30.2822 31.3698Z" fill="#037012"/>
<path d="M16.119 31.3692H38.8466L39.2429 32.0467C40.9685 35.0251 38.8083 38.7448 35.3697 38.7448H16.119C14.0865 38.7448 12.4248 37.0959 12.4248 35.0506C12.4248 33.0182 14.0737 31.3564 16.119 31.3564V31.3692Z" fill="#9DF9AA"/>
</g>
<defs>
<clipPath id="clip0_2552_4722">
<rect width="52" height="52" fill="white"/>
</clipPath>
</defs>
</svg>
