<svg width="23" height="20" viewBox="0 0 23 20" fill="none" xmlns="http://www.w3.org/2000/svg">
<path d="M4.85939 11.1823L1.48437 5.32684C0.111993 2.95823 1.83 0 4.56458 0H5.18469L11.0198 10.1047C11.2943 10.5825 10.9487 11.1823 10.3997 11.1823H4.86956H4.85939Z" fill="#037012"/>
<path d="M8.56984 5.86523H5.92675C4.07659 5.86523 2.92786 7.86788 3.86311 9.4639L4.85935 11.1717H10.3997C10.9588 11.1717 11.3044 10.572 11.0198 10.0942L8.56984 5.86523Z" fill="#19AA33"/>
<path d="M20.0571 5.86563H1.76899L1.45385 5.32684C0.0814753 2.95823 1.79948 0 4.53407 0H20.0571C21.6735 0 22.995 1.31138 22.995 2.9379C22.995 4.55425 21.6837 5.87579 20.0571 5.87579V5.86563Z" fill="#037012"/>
<path d="M19.1016 8.02051L22.4767 13.876C23.849 16.2446 22.131 19.2028 19.3964 19.2028H18.7763L12.9412 9.09808C12.6667 8.62029 13.0124 8.02051 13.5613 8.02051H19.0915H19.1016Z" fill="#037012"/>
<path d="M15.3911 13.327H18.0342C19.8844 13.327 21.0331 11.3244 20.0979 9.72835L19.1016 8.02051H13.5613C13.0022 8.02051 12.6566 8.62029 12.9412 9.09808L15.3911 13.327Z" fill="#19AA33"/>
<path d="M4.12735 13.3275H22.202L22.5172 13.8663C23.8895 16.2349 22.1715 19.1932 19.4369 19.1932H4.12735C2.511 19.1932 1.18945 17.8818 1.18945 16.2553C1.18945 14.6389 2.50083 13.3174 4.12735 13.3174V13.3275Z" fill="#037012"/>
</svg>
