<svg width="40" height="40" viewBox="0 0 40 40" fill="none" xmlns="http://www.w3.org/2000/svg">
<g clip-path="url(#clip0_2218_3890)">
<path d="M40 20C40 8.95469 31.0453 0 20 0C8.95469 0 0 8.95469 0 20C0 31.0453 8.95469 40 20 40C23.459 40 26.7115 39.1207 29.5514 37.5774H34.908C36.1866 37.5774 37.223 36.541 37.223 35.2624V30.1705C38.9861 27.1916 40 23.7147 40 20Z" fill="#99C7FF"/>
<path d="M27.7479 11.1216H12.7412C11.5841 11.1216 10.6461 12.0596 10.6461 13.2167C10.6461 14.3738 11.5841 15.3118 12.7412 15.3118H27.7479C28.905 15.3118 29.843 14.3738 29.843 13.2167C29.843 12.0596 28.905 11.1216 27.7479 11.1216Z" fill="#00338E"/>
<path d="M27.7479 18.5286H10.6954C9.53829 18.5286 8.60028 19.4666 8.60028 20.6237C8.60028 21.7808 9.53829 22.7188 10.6954 22.7188H27.7479C28.905 22.7188 29.843 21.7808 29.843 20.6237C29.843 19.4666 28.905 18.5286 27.7479 18.5286Z" fill="#00338E"/>
<path d="M27.7479 25.9309H19.1252C17.9681 25.9309 17.0301 26.8689 17.0301 28.026C17.0301 29.1831 17.9681 30.1211 19.1252 30.1211H27.7479C28.905 30.1211 29.843 29.1831 29.843 28.026C29.843 26.8689 28.905 25.9309 27.7479 25.9309Z" fill="#00338E"/>
<path d="M40 20C40 8.95772 31.0423 0 20 0C8.95772 0 0 8.95772 0 20C0 31.0423 8.95772 40 20 40C23.4612 40 26.7158 39.1249 29.5477 37.5811H34.9066C36.1849 37.5811 37.2173 36.5487 37.2173 35.2704V30.177C38.9774 27.1976 39.9902 23.7168 39.9902 20.0098L40 20Z" fill="#19AA33"/>
<path d="M13.1071 22.0551L9.84264 16.3914C8.51521 14.1004 10.177 11.239 12.822 11.239H13.4218L19.0658 21.0129C19.3313 21.475 18.997 22.0551 18.466 22.0551H13.117H13.1071Z" fill="#9DF9AA"/>
<path d="M16.6961 16.9126H14.1396C12.35 16.9126 11.2389 18.8497 12.1435 20.3934L13.1072 22.0453H18.4661C19.0069 22.0453 19.3412 21.4652 19.0659 21.0031L16.6961 16.9126Z" fill="#037012"/>
<path d="M27.8073 16.9126H10.118L9.81316 16.3914C8.48573 14.1004 10.1475 11.239 12.7925 11.239H27.8073C29.3707 11.239 30.649 12.5074 30.649 14.0807C30.649 15.6441 29.3805 16.9224 27.8073 16.9224V16.9126Z" fill="#9DF9AA"/>
<path d="M26.883 18.9973L30.1475 24.661C31.4749 26.9521 29.8131 29.8134 27.1681 29.8134H26.5683L20.9243 20.0396C20.6588 19.5775 20.9931 18.9973 21.5241 18.9973H26.8731H26.883Z" fill="#9DF9AA"/>
<path d="M23.294 24.1301H25.8505C27.6401 24.1301 28.7512 22.193 27.8466 20.6492L26.883 18.9973H21.5241C20.9832 18.9973 20.6489 19.5775 20.9243 20.0396L23.294 24.1301Z" fill="#037012"/>
<path d="M12.3992 24.13H29.882L30.1868 24.6511C31.5142 26.9421 29.8525 29.8035 27.2074 29.8035H12.3992C10.8358 29.8035 9.5575 28.5351 9.5575 26.9618C9.5575 25.3984 10.8259 24.1201 12.3992 24.1201V24.13Z" fill="#9DF9AA"/>
</g>
<defs>
<clipPath id="clip0_2218_3890">
<rect width="40" height="40" fill="white"/>
</clipPath>
</defs>
</svg>
