<svg width="42" height="23" viewBox="0 0 42 23" fill="none" xmlns="http://www.w3.org/2000/svg">
<path d="M7.49023 0L7.47754 0.0126953C9.41992 0.0126953 10.9814 0.59668 12.1494 1.77734C13.3174 2.95801 13.9014 4.51953 13.9014 6.46191C13.9014 8.41699 13.3174 9.97852 12.1494 11.1592C10.9814 12.3398 9.43262 12.9238 7.49023 12.9238H4.68457V16.3262C4.68457 17.0498 4.31641 17.418 3.59277 17.418H1.0918C0.368164 17.418 0 17.0498 0 16.3262V1.0918C0 0.368164 0.368164 0 1.0918 0H7.49023ZM7.08398 8.62012C7.74414 8.62012 8.26465 8.42969 8.64551 8.04883C9.02637 7.66797 9.2168 7.13477 9.2168 6.46191C9.2168 5.80176 9.02637 5.28125 8.64551 4.8877C8.26465 4.49414 7.74414 4.30371 7.08398 4.30371H4.67188V8.62012H7.08398Z" fill="#19AA33"/>
<path d="M21.2266 4.10059V4.13867C22.9658 4.13867 24.3496 4.53223 25.3906 5.33203C26.4316 6.13184 26.9521 7.18555 26.9521 8.49316V16.4785C26.9521 17.126 26.6348 17.4434 25.9873 17.4434H23.626C22.9785 17.4434 22.6611 17.126 22.6611 16.4785V16.0342H22.4072C21.874 17.1768 20.7822 17.748 19.1318 17.7607C17.9258 17.7607 16.9482 17.418 16.1865 16.7197C15.4248 16.0215 15.0439 15.082 15.0439 13.9014C15.0439 12.7207 15.4375 11.7686 16.2119 11.0449C16.9863 10.3213 18.0146 9.95312 19.2969 9.95312H22.5215V8.75977C22.5215 8.37891 22.3945 8.07422 22.1406 7.8457C21.8867 7.61719 21.5566 7.50293 21.1377 7.50293C20.4775 7.50293 20.0586 7.75684 19.8682 8.27734C19.6777 8.72168 19.3604 8.9502 18.9287 8.9502H16.4658C15.8184 8.9502 15.501 8.63281 15.501 7.99805C15.501 6.86816 16.0342 5.94141 17.1133 5.20508C18.1924 4.46875 19.5635 4.10059 21.2266 4.10059ZM20.9346 14.6504V14.6631C21.4043 14.6631 21.7852 14.5615 22.0771 14.3584C22.3691 14.1553 22.5215 13.8887 22.5215 13.5586V12.5938H20.7061C20.3379 12.5938 20.0459 12.6826 19.8301 12.873C19.6143 13.0635 19.5 13.3047 19.5 13.5967C19.5 13.9268 19.627 14.1807 19.8936 14.3711C20.1602 14.5615 20.5029 14.6504 20.9346 14.6504Z" fill="#19AA33"/>
<path d="M30.6973 22.1025L30.6719 22.0898C30.0244 22.0898 29.707 21.7725 29.707 21.125V19.4111C29.707 18.7637 30.0244 18.4463 30.6719 18.4463H31.5605C32.2715 18.4463 32.7158 18.1543 32.8809 17.583L33.0967 16.9355H32.6523C32.1826 16.9355 31.8906 16.7197 31.7637 16.2881L28.5645 5.49707C28.4629 5.17969 28.4883 4.91309 28.6279 4.70996C28.7676 4.50684 28.9961 4.40527 29.3135 4.40527H32.2207C32.8174 4.40527 33.1602 4.69727 33.2617 5.26855L34.7471 12.416H35.1279L36.5879 5.26855C36.6895 4.69727 37.0322 4.40527 37.6289 4.40527H40.3584C40.6504 4.40527 40.8789 4.50684 41.0312 4.70996C41.1836 4.91309 41.209 5.17969 41.1201 5.50977L37.0703 18.9541C36.4482 21.0488 34.9883 22.1025 32.7031 22.1025H30.6973Z" fill="#19AA33"/>
</svg>
