<svg width="35" height="35" viewBox="0 0 35 35" fill="none" xmlns="http://www.w3.org/2000/svg">
<circle cx="17.0273" cy="17.0273" r="17.0273" fill="#9FC4E8"/>
<g clip-path="url(#clip0_1505_4685)">
<path d="M22.9486 20.3816L21.0686 18.3806C20.3973 17.666 19.2559 17.9518 18.9873 18.8809C18.7859 19.524 18.1145 19.8814 17.5102 19.7384C16.1675 19.3811 14.3547 17.523 14.019 16.0223C13.8176 15.3791 14.2204 14.6644 14.8247 14.45C15.6975 14.1642 15.966 12.9493 15.2946 12.2346L13.4147 10.2336C12.8776 9.73333 12.0719 9.73333 11.602 10.2336L10.3263 11.5914C9.05065 13.0207 10.4606 16.8084 13.6161 20.1672C16.7717 23.5261 20.3301 25.0983 21.6729 23.669L22.9486 22.3112C23.4185 21.7395 23.4185 20.8819 22.9486 20.3816Z" fill="#191919"/>
</g>
<defs>
<clipPath id="clip0_1505_4685">
<rect width="13.4426" height="14.3388" fill="white" transform="translate(9.8584 9.8584)"/>
</clipPath>
</defs>
</svg>
