<svg width="35" height="35" viewBox="0 0 35 35" fill="none" xmlns="http://www.w3.org/2000/svg">
<circle cx="17.0273" cy="17.0273" r="17.0273" fill="#00338E"/>
<g clip-path="url(#clip0_1413_4626)">
<path d="M22.948 20.3816L21.0681 18.3806C20.3967 17.666 19.2553 17.9518 18.9868 18.8809C18.7853 19.524 18.114 19.8814 17.5097 19.7384C16.1669 19.3811 14.3541 17.523 14.0184 16.0223C13.817 15.3791 14.2199 14.6644 14.8241 14.45C15.6969 14.1642 15.9655 12.9493 15.2941 12.2346L13.4142 10.2336C12.8771 9.73333 12.0714 9.73333 11.6014 10.2336L10.3258 11.5914C9.0501 13.0207 10.46 16.8084 13.6156 20.1672C16.7712 23.5261 20.3296 25.0983 21.6724 23.669L22.948 22.3112C23.418 21.7395 23.418 20.8819 22.948 20.3816Z" fill="#9FC4E8"/>
</g>
<defs>
<clipPath id="clip0_1413_4626">
<rect width="13.4426" height="14.3388" fill="white" transform="translate(9.85791 9.8584)"/>
</clipPath>
</defs>
</svg>
