<svg width="24" height="32" viewBox="0 0 24 32" fill="none" xmlns="http://www.w3.org/2000/svg">
<g clip-path="url(#clip0_1745_4521)">
<path fill-rule="evenodd" clip-rule="evenodd" d="M4.16696 0H14.8661L23.9304 9.45391V27.84C23.9304 30.1426 22.0661 32.007 19.7704 32.007H4.16696C1.86435 32 0 30.1356 0 27.833V4.16696C0 1.86435 1.86435 0 4.16696 0Z" fill="#E5252A"/>
<path opacity="0.3" fill-rule="evenodd" clip-rule="evenodd" d="M14.8591 0V9.37739H23.9374L14.8591 0Z" fill="white"/>
<path d="M4.63293 23.8747V18.0312H7.11641C7.73554 18.0312 8.2225 18.1982 8.58424 18.546C8.95293 18.8799 9.1338 19.3391 9.1338 19.9026C9.1338 20.466 8.95293 20.9252 8.58424 21.2591C8.21554 21.5999 7.72859 21.7739 7.11641 21.7739H6.12163V23.8747H4.62598H4.63293ZM6.12859 20.5008H6.94945C7.17206 20.5008 7.34598 20.4521 7.47119 20.3408C7.58945 20.2365 7.65206 20.0904 7.65206 19.9026C7.65206 19.7147 7.58945 19.5686 7.47119 19.4643C7.35293 19.353 7.17206 19.3043 6.94945 19.3043H6.12859V20.5008ZM9.75989 23.8747V18.0312H11.8329C12.2434 18.0312 12.626 18.0869 12.9877 18.2052C13.3495 18.3234 13.6764 18.4904 13.9616 18.7269C14.2468 18.9495 14.4834 19.2556 14.6503 19.6382C14.8103 20.0208 14.9008 20.4591 14.9008 20.9599C14.9008 21.4608 14.8103 21.8852 14.6503 22.2747C14.4834 22.6573 14.2538 22.9634 13.9616 23.186C13.6764 23.4156 13.3425 23.5826 12.9877 23.7078C12.626 23.826 12.2434 23.8817 11.8329 23.8817H9.75989V23.8747ZM11.2208 22.6017H11.6521C11.8816 22.6017 12.0973 22.5808 12.299 22.5252C12.4938 22.4695 12.6747 22.3791 12.8486 22.2608C13.0155 22.1426 13.1547 21.9756 13.2451 21.746C13.3355 21.5165 13.3912 21.2591 13.3912 20.953C13.3912 20.6469 13.3425 20.3756 13.2451 20.153C13.1477 19.9304 13.0155 19.7634 12.8486 19.6382C12.6747 19.5199 12.4868 19.4295 12.299 19.3739C12.0973 19.3182 11.8816 19.2973 11.6521 19.2973H11.2208V22.6017ZM15.6451 23.8747V18.0312H19.8051V19.3043H17.1408V20.2365H19.2695V21.5026H17.1408V23.8747H15.6451Z" fill="white"/>
</g>
<defs>
<clipPath id="clip0_1745_4521">
<rect width="23.9304" height="32" fill="white"/>
</clipPath>
</defs>
</svg>
