<svg width="35" height="35" viewBox="0 0 35 35" fill="none" xmlns="http://www.w3.org/2000/svg">
<circle cx="17.5078" cy="17.0273" r="17.0273" fill="#9FC4E8"/>
<path d="M22.4619 20.6123H17.0353C16.3066 20.6123 15.7158 21.2142 15.7158 21.9566C15.7158 22.699 16.3066 23.3008 17.0353 23.3008H22.4619C23.1906 23.3008 23.7814 22.699 23.7814 21.9566C23.7814 21.2142 23.1906 20.6123 22.4619 20.6123Z" fill="#191919"/>
<path d="M22.4552 16.1309H11.6652C10.9327 16.1309 10.3389 16.7327 10.3389 17.4751C10.3389 18.2175 10.9327 18.8194 11.6652 18.8194H22.4552C23.1877 18.8194 23.7815 18.2175 23.7815 17.4751C23.7815 16.7327 23.1877 16.1309 22.4552 16.1309Z" fill="#191919"/>
<path d="M22.4111 13.4424H12.6041C11.8483 13.4424 11.2344 12.8399 11.2344 12.0982C11.2344 11.3564 11.8483 10.7539 12.6041 10.7539H22.4111C23.1669 10.7539 23.7808 11.3564 23.7808 12.0982C23.7808 12.8399 23.1669 13.4424 22.4111 13.4424Z" fill="#191919"/>
</svg>
