<svg width="35" height="35" viewBox="0 0 35 35" fill="none" xmlns="http://www.w3.org/2000/svg">
<circle cx="17.0273" cy="17.0273" r="17.0273" fill="#00338E"/>
<path d="M21.9811 20.6123H16.5545C15.8257 20.6123 15.235 21.2142 15.235 21.9566C15.235 22.699 15.8257 23.3008 16.5545 23.3008H21.9811C22.7098 23.3008 23.3006 22.699 23.3006 21.9566C23.3006 21.2142 22.7098 20.6123 21.9811 20.6123Z" fill="#9FC4E8"/>
<path d="M21.9742 16.1309H11.1842C10.4517 16.1309 9.85791 16.7327 9.85791 17.4751C9.85791 18.2175 10.4517 18.8194 11.1842 18.8194H21.9742C22.7067 18.8194 23.3005 18.2175 23.3005 17.4751C23.3005 16.7327 22.7067 16.1309 21.9742 16.1309Z" fill="#9FC4E8"/>
<path d="M21.9308 13.4424H12.1238C11.368 13.4424 10.7541 12.8399 10.7541 12.0982C10.7541 11.3564 11.368 10.7539 12.1238 10.7539H21.9308C22.6866 10.7539 23.3005 11.3564 23.3005 12.0982C23.3005 12.8399 22.6866 13.4424 21.9308 13.4424Z" fill="#9FC4E8"/>
</svg>
