<svg width="35" height="35" viewBox="0 0 35 35" fill="none" xmlns="http://www.w3.org/2000/svg">
<circle cx="17.0273" cy="17.0273" r="17.0273" fill="#00338E"/>
<g clip-path="url(#clip0_1413_4632)">
<path d="M18.7106 10.9336H10.1246C8.99215 10.9336 8.06558 11.8798 8.06558 13.0364V20.1226C8.06558 21.2791 8.99215 22.2254 10.1246 22.2254H18.7106C19.8431 22.2254 20.7697 21.2791 20.7697 20.1226V13.0364C20.7697 11.8589 19.8431 10.9336 18.7106 10.9336Z" fill="#9FC4E8"/>
<path d="M25.3615 12.0904C25.238 12.1114 25.1146 12.1746 25.0116 12.2374L21.7996 14.1299V19.0082L25.0321 20.9008C25.6293 21.2581 26.3705 21.0478 26.7204 20.4383C26.8233 20.249 26.8852 20.0387 26.8852 19.8075V13.3102C26.8852 12.5323 26.1646 11.9015 25.3615 12.0904Z" fill="#9FC4E8"/>
</g>
<defs>
<clipPath id="clip0_1413_4632">
<rect width="18.8197" height="11.2918" fill="white" transform="translate(8.06558 10.9336)"/>
</clipPath>
</defs>
</svg>
