<svg width="35" height="35" viewBox="0 0 35 35" fill="none" xmlns="http://www.w3.org/2000/svg">
<circle cx="17.9726" cy="17.0273" r="17.0273" fill="#9FC4E8"/>
<g clip-path="url(#clip0_1505_4691)">
<path d="M19.6558 10.9336H11.0698C9.93731 10.9336 9.01074 11.8798 9.01074 13.0364V20.1226C9.01074 21.2791 9.93731 22.2254 11.0698 22.2254H19.6558C20.7883 22.2254 21.7148 21.2791 21.7148 20.1226V13.0364C21.7148 11.8589 20.7883 10.9336 19.6558 10.9336Z" fill="#191919"/>
<path d="M26.307 12.0904C26.1835 12.1114 26.0601 12.1746 25.9571 12.2374L22.7451 14.1299V19.0082L25.9776 20.9008C26.5748 21.2581 27.316 21.0478 27.6659 20.4383C27.7688 20.249 27.8308 20.0387 27.8308 19.8075V13.3102C27.8308 12.5323 27.1101 11.9015 26.307 12.0904Z" fill="#191919"/>
</g>
<defs>
<clipPath id="clip0_1505_4691">
<rect width="18.8197" height="11.2918" fill="white" transform="translate(9.01074 10.9336)"/>
</clipPath>
</defs>
</svg>
