<svg width="20" height="20" viewBox="0 0 20 20" fill="none" xmlns="http://www.w3.org/2000/svg">
<path d="M5.83361 9.16803H3.33442C1.49429 9.16803 0 7.67374 0 5.83361V3.33442C0 1.49429 1.49429 0 3.33442 0H5.83361C7.67374 0 9.16803 1.49429 9.16803 3.33442V5.83361C9.16803 7.67374 7.67374 9.16803 5.83361 9.16803ZM3.33442 2.49918C2.87765 2.49918 2.49918 2.87113 2.49918 3.33442V5.83361C2.49918 6.29038 2.87113 6.66884 3.33442 6.66884H5.83361C6.29038 6.66884 6.66884 6.2969 6.66884 5.83361V3.33442C6.66884 2.87765 6.2969 2.49918 5.83361 2.49918H3.33442ZM16.6656 9.16803H14.1664C12.3263 9.16803 10.832 7.67374 10.832 5.83361V3.33442C10.832 1.49429 12.3263 0 14.1664 0H16.6656C18.5057 0 20 1.49429 20 3.33442V5.83361C20 7.67374 18.5057 9.16803 16.6656 9.16803ZM14.1664 2.49918C13.7096 2.49918 13.3312 2.87113 13.3312 3.33442V5.83361C13.3312 6.29038 13.7031 6.66884 14.1664 6.66884H16.6656C17.1224 6.66884 17.5008 6.2969 17.5008 5.83361V3.33442C17.5008 2.87765 17.1289 2.49918 16.6656 2.49918H14.1664ZM5.83361 19.9935H3.33442C1.49429 19.9935 0 18.4992 0 16.6591V14.1599C0 12.3197 1.49429 10.8254 3.33442 10.8254H5.83361C7.67374 10.8254 9.16803 12.3197 9.16803 14.1599V16.6591C9.16803 18.4992 7.67374 19.9935 5.83361 19.9935ZM3.33442 13.3246C2.87765 13.3246 2.49918 13.6966 2.49918 14.1599V16.6591C2.49918 17.1158 2.87113 17.4943 3.33442 17.4943H5.83361C6.29038 17.4943 6.66884 17.1224 6.66884 16.6591V14.1599C6.66884 13.7031 6.2969 13.3246 5.83361 13.3246H3.33442ZM14.1664 12.907V12.0718C14.1664 11.3801 13.6052 10.8189 12.9135 10.8189H12.0783C11.3866 10.8189 10.8254 11.3801 10.8254 12.0718V12.907C10.8254 13.5987 11.3866 14.1599 12.0783 14.1599H12.9135C13.6052 14.1599 14.1664 13.5987 14.1664 12.907ZM16.6656 15.4062C16.6656 14.7145 16.1044 14.1533 15.4127 14.1533C14.721 14.1533 14.1599 14.7145 14.1599 15.4062C14.1599 16.0979 14.721 16.6591 15.4127 16.6591C16.1044 16.6591 16.6656 16.0979 16.6656 15.4062ZM14.1664 18.7406V17.9054C14.1664 17.2137 13.6052 16.6525 12.9135 16.6525H12.0783C11.3866 16.6525 10.8254 17.2137 10.8254 17.9054V18.7406C10.8254 19.4323 11.3866 19.9935 12.0783 19.9935H12.9135C13.6052 19.9935 14.1664 19.4323 14.1664 18.7406ZM20 12.907V12.0718C20 11.3801 19.4388 10.8189 18.7471 10.8189H17.9119C17.2202 10.8189 16.6591 11.3801 16.6591 12.0718V12.907C16.6591 13.5987 17.2202 14.1599 17.9119 14.1599H18.7471C19.4388 14.1599 20 13.5987 20 12.907Z" fill="#00338E"/>
</svg>
