<svg width="25" height="25" viewBox="0 0 25 25" fill="none" xmlns="http://www.w3.org/2000/svg">
<g clip-path="url(#clip0_1516_10846)">
<path d="M7.29201 11.46H4.16803C1.86786 11.46 0 9.59217 0 7.29201V4.16803C0 1.86786 1.86786 0 4.16803 0H7.29201C9.59217 0 11.46 1.86786 11.46 4.16803V7.29201C11.46 9.59217 9.59217 11.46 7.29201 11.46ZM4.16803 3.12398C3.59706 3.12398 3.12398 3.58891 3.12398 4.16803V7.29201C3.12398 7.86297 3.58891 8.33605 4.16803 8.33605H7.29201C7.86297 8.33605 8.33605 7.87113 8.33605 7.29201V4.16803C8.33605 3.59706 7.87113 3.12398 7.29201 3.12398H4.16803ZM20.832 11.46H17.708C15.4078 11.46 13.54 9.59217 13.54 7.29201V4.16803C13.54 1.86786 15.4078 0 17.708 0H20.832C23.1321 0 25 1.86786 25 4.16803V7.29201C25 9.59217 23.1321 11.46 20.832 11.46ZM17.708 3.12398C17.137 3.12398 16.6639 3.58891 16.6639 4.16803V7.29201C16.6639 7.86297 17.1289 8.33605 17.708 8.33605H20.832C21.4029 8.33605 21.876 7.87113 21.876 7.29201V4.16803C21.876 3.59706 21.4111 3.12398 20.832 3.12398H17.708ZM7.29201 24.9918H4.16803C1.86786 24.9918 0 23.124 0 20.8238V17.6998C0 15.3997 1.86786 13.5318 4.16803 13.5318H7.29201C9.59217 13.5318 11.46 15.3997 11.46 17.6998V20.8238C11.46 23.124 9.59217 24.9918 7.29201 24.9918ZM4.16803 16.6558C3.59706 16.6558 3.12398 17.1207 3.12398 17.6998V20.8238C3.12398 21.3948 3.58891 21.8679 4.16803 21.8679H7.29201C7.86297 21.8679 8.33605 21.4029 8.33605 20.8238V17.6998C8.33605 17.1289 7.87113 16.6558 7.29201 16.6558H4.16803ZM17.708 16.1338V15.0897C17.708 14.2251 17.0065 13.5237 16.1419 13.5237H15.0979C14.2333 13.5237 13.5318 14.2251 13.5318 15.0897V16.1338C13.5318 16.9984 14.2333 17.6998 15.0979 17.6998H16.1419C17.0065 17.6998 17.708 16.9984 17.708 16.1338ZM20.832 19.2577C20.832 18.3932 20.1305 17.6917 19.2659 17.6917C18.4013 17.6917 17.6998 18.3932 17.6998 19.2577C17.6998 20.1224 18.4013 20.8238 19.2659 20.8238C20.1305 20.8238 20.832 20.1224 20.832 19.2577ZM17.708 23.4258V22.3817C17.708 21.5171 17.0065 20.8157 16.1419 20.8157H15.0979C14.2333 20.8157 13.5318 21.5171 13.5318 22.3817V23.4258C13.5318 24.2904 14.2333 24.9918 15.0979 24.9918H16.1419C17.0065 24.9918 17.708 24.2904 17.708 23.4258ZM25 16.1338V15.0897C25 14.2251 24.2985 13.5237 23.4339 13.5237H22.3899C21.5253 13.5237 20.8238 14.2251 20.8238 15.0897V16.1338C20.8238 16.9984 21.5253 17.6998 22.3899 17.6998H23.4339C24.2985 17.6998 25 16.9984 25 16.1338Z" fill="black"/>
</g>
<defs>
<clipPath id="clip0_1516_10846">
<rect width="25" height="25" fill="white"/>
</clipPath>
</defs>
</svg>
