<svg width="20" height="20" viewBox="0 0 20 20" fill="none" xmlns="http://www.w3.org/2000/svg">
<path d="M17.07 2.93C15.18 1.04 12.67 0 10 0C8.24 0 6.54 0.45 5.05 1.31C5.38 1.55 5.64 1.87 5.81 2.24C6.9 1.65 8.12 1.28 9.42 1.2V3.98C6.55 4.26 4.26 6.55 3.98 9.42H1.19C1.29 7.9 1.78 6.48 2.55 5.27C2.19 5.08 1.89 4.79 1.68 4.45C0.59 6.08 0 8 0 10.01C0 12.02 0.63 14.07 1.8 15.74C2.02 15.41 2.33 15.14 2.69 14.95C1.84 13.69 1.3 12.2 1.19 10.59H3.97C4.25 13.46 6.54 15.75 9.41 16.03V18.81C8.17 18.73 7 18.39 5.95 17.84C5.81 18.22 5.57 18.55 5.27 18.81C6.71 19.58 8.32 20 10 20C12.67 20 15.18 18.96 17.07 17.07C18.96 15.18 20 12.67 20 10C20 7.33 18.96 4.82 17.07 2.93ZM16.64 4.19C17.88 5.61 18.68 7.42 18.81 9.42H16.03C15.91 8.19 15.42 7.07 14.68 6.16L16.65 4.19H16.64ZM10.59 18.81V16.03C10.87 16 11.14 15.96 11.41 15.89C11.13 15.59 10.93 15.22 10.84 14.81C10.76 14.82 10.67 14.84 10.59 14.85V12.27C10.4 12.32 10.21 12.34 10 12.34C9.79 12.34 9.6 12.31 9.41 12.27V14.85C7.19 14.58 5.42 12.81 5.15 10.59H7.73C7.68 10.4 7.66 10.21 7.66 10C7.66 9.79 7.69 9.6 7.73 9.41H5.15C5.42 7.19 7.19 5.42 9.41 5.15V7.73C9.6 7.68 9.79 7.66 10 7.66C10.86 7.66 11.61 8.12 12.02 8.81L13.84 6.99C14.38 7.68 14.74 8.51 14.85 9.42H12.27C12.32 9.61 12.34 9.8 12.34 10.01C12.34 10.22 12.31 10.41 12.27 10.6H14.85C14.78 11.21 14.59 11.78 14.32 12.29C14.67 12.5 14.97 12.8 15.17 13.16C15.64 12.4 15.94 11.53 16.03 10.6H18.81C18.52 15 14.99 18.53 10.59 18.82V18.81Z" fill="#00338E"/>
</svg>
