<svg width="66" height="66" viewBox="0 0 66 66" fill="none" xmlns="http://www.w3.org/2000/svg">
<path d="M33 66C51.2254 66 66 51.2254 66 33C66 14.7746 51.2254 0 33 0C14.7746 0 0 14.7746 0 33C0 51.2254 14.7746 66 33 66Z" fill="#19AA33"/>
<path d="M24.78 34.5602C25.26 34.0802 26.03 34.0802 26.51 34.5602L33 41.0502L39.49 34.5602C39.97 34.0802 40.74 34.0802 41.22 34.5602C41.7 35.0402 41.7 35.8102 41.22 36.2902L33.87 43.6402C33.39 44.1202 32.62 44.1202 32.14 43.6402L24.79 36.2902C24.31 35.8102 24.31 35.0402 24.79 34.5602H24.78Z" fill="#CFF9D4"/>
<path d="M33 43.6202C32.31 43.6202 31.75 43.0602 31.75 42.3702V26.1602C31.75 25.4702 32.31 24.9102 33 24.9102C33.69 24.9102 34.25 25.4702 34.25 26.1602V42.3702C34.25 43.0602 33.69 43.6202 33 43.6202Z" fill="#CFF9D4"/>
</svg>
