<svg width="26" height="26" viewBox="0 0 26 26" fill="none" xmlns="http://www.w3.org/2000/svg">
<g clip-path="url(#clip0_2080_6221)">
<path d="M13 26C20.1797 26 26 20.1797 26 13C26 5.8203 20.1797 0 13 0C5.8203 0 0 5.8203 0 13C0 20.1797 5.8203 26 13 26Z" fill="#19AA33"/>
<path d="M9.7619 13.6145C9.95099 13.4254 10.2543 13.4254 10.4434 13.6145L13.0001 16.1711L15.5568 13.6145C15.7458 13.4254 16.0492 13.4254 16.2383 13.6145C16.4274 13.8036 16.4274 14.1069 16.2383 14.296L13.3428 17.1914C13.1537 17.3805 12.8504 17.3805 12.6613 17.1914L9.76584 14.296C9.57675 14.1069 9.57675 13.8036 9.76584 13.6145H9.7619Z" fill="#CFF9D4"/>
<path d="M13 17.1836C12.7282 17.1836 12.5076 16.963 12.5076 16.6912V10.3054C12.5076 10.0336 12.7282 9.81299 13 9.81299C13.2718 9.81299 13.4924 10.0336 13.4924 10.3054V16.6912C13.4924 16.963 13.2718 17.1836 13 17.1836Z" fill="#CFF9D4"/>
</g>
<defs>
<clipPath id="clip0_2080_6221">
<rect width="26" height="26" fill="white"/>
</clipPath>
</defs>
</svg>
