<svg width="40" height="40" viewBox="0 0 40 40" fill="none" xmlns="http://www.w3.org/2000/svg">
<g clip-path="url(#clip0_1516_6547)">
<path d="M20 0C8.96923 0 0 8.96923 0 20C0 31.0308 8.96923 40 20 40C31.0308 40 40 31.0308 40 20C40 8.96923 31.0308 0 20 0ZM10.6615 13.9462C10.6615 12.2538 12.0385 10.8846 13.7231 10.8846H15.7769C16.4154 10.8846 16.9308 11.4 16.9308 12.0385C16.9308 12.6769 16.4154 13.1923 15.7769 13.1923H13.7231C13.3077 13.1923 12.9692 13.5308 12.9692 13.9462V16C12.9692 16.6385 12.4538 17.1538 11.8154 17.1538C11.1769 17.1538 10.6615 16.6385 10.6615 16V13.9462ZM15.7769 29.1154H13.7231C12.0308 29.1154 10.6615 27.7385 10.6615 26.0538V24C10.6615 23.3615 11.1769 22.8462 11.8154 22.8462C12.4538 22.8462 12.9692 23.3615 12.9692 24V26.0538C12.9692 26.4692 13.3077 26.8077 13.7231 26.8077H15.7769C16.4154 26.8077 16.9308 27.3231 16.9308 27.9615C16.9308 28.6 16.4154 29.1154 15.7769 29.1154ZM29.3308 26.0538C29.3308 27.7462 27.9538 29.1154 26.2692 29.1154H24.2154C23.5769 29.1154 23.0615 28.6 23.0615 27.9615C23.0615 27.3231 23.5769 26.8077 24.2154 26.8077H26.2692C26.6846 26.8077 27.0231 26.4692 27.0231 26.0538V24C27.0231 23.3615 27.5385 22.8462 28.1769 22.8462C28.8154 22.8462 29.3308 23.3615 29.3308 24V26.0538ZM28.1769 21.1538H11.8154C11.1769 21.1538 10.6615 20.6385 10.6615 20C10.6615 19.3615 11.1769 18.8462 11.8154 18.8462H28.1846C28.8231 18.8462 29.3385 19.3615 29.3385 20C29.3385 20.6385 28.8231 21.1538 28.1846 21.1538H28.1769ZM29.3308 16C29.3308 16.6385 28.8154 17.1538 28.1769 17.1538C27.5385 17.1538 27.0231 16.6385 27.0231 16V13.9462C27.0231 13.5308 26.6846 13.1923 26.2692 13.1923H24.2154C23.5769 13.1923 23.0615 12.6769 23.0615 12.0385C23.0615 11.4 23.5769 10.8846 24.2154 10.8846H26.2692C27.9615 10.8846 29.3308 12.2615 29.3308 13.9462V16Z" fill="#C1C1C1"/>
</g>
<defs>
<clipPath id="clip0_1516_6547">
<rect width="40" height="40" fill="white"/>
</clipPath>
</defs>
</svg>
