<svg width="40" height="40" viewBox="0 0 40 40" fill="none" xmlns="http://www.w3.org/2000/svg">
<g clip-path="url(#clip0_438_1172)">
<path d="M20 0C8.95385 0 0 8.95385 0 20C0 31.0462 8.95385 40 20 40C31.0462 40 40 31.0462 40 20C40 8.95385 31.0462 0 20 0ZM30.2385 30.2385C29.3077 31.1692 27.8 31.1692 26.8769 30.2385L21.9769 25.3385C17.7846 27.6692 12.4923 26.1692 10.1615 21.9769C7.83077 17.7846 9.33077 12.4923 13.5231 10.1615C17.7154 7.83077 23.0077 9.33077 25.3385 13.5231C26.8 16.1538 26.8 19.3462 25.3385 21.9769L30.2385 26.8769C31.1692 27.8077 31.1692 29.3154 30.2385 30.2462V30.2385Z" fill="#00338E"/>
<path d="M14.1692 14.1692C12.1923 16.1461 12.1923 19.3538 14.1692 21.3308C16.1461 23.3077 19.3538 23.3077 21.3308 21.3308C23.3077 19.3538 23.3077 16.1461 21.3308 14.1692C19.3538 12.1923 16.1461 12.1923 14.1692 14.1692Z" fill="#00338E"/>
</g>
<defs>
<clipPath id="clip0_438_1172">
<rect width="40" height="40" fill="white"/>
</clipPath>
</defs>
</svg>
