<svg width="47" height="34" viewBox="0 0 47 34" fill="none" xmlns="http://www.w3.org/2000/svg">
<g clip-path="url(#clip0_2078_4623)">
<path d="M45.8047 34.0002H1.18778C0.526232 34.0002 0 33.4705 0 32.8214V7.47621C0 6.81964 0.533749 6.29736 1.18778 6.29736H45.8047C46.4662 6.29736 46.9925 6.8271 46.9925 7.47621V32.8214C46.9925 33.478 46.4587 34.0002 45.8047 34.0002ZM2.38308 31.6351H44.6169V8.65506H2.38308V31.6351Z" fill="black"/>
<path d="M38.1217 30.4189H8.87828C8.21673 30.4189 7.6905 29.8892 7.6905 29.2401C7.6905 27.9269 6.61548 26.8674 5.29991 26.8674C4.63836 26.8674 4.11213 26.3377 4.11213 25.6886V14.6239C4.11213 13.9673 4.64587 13.445 5.29991 13.445C6.623 13.445 7.6905 12.3781 7.6905 11.0724C7.6905 10.4158 8.22425 9.89355 8.87828 9.89355H38.1217C38.7833 9.89355 39.3095 10.4233 39.3095 11.0724C39.3095 12.3781 40.377 13.4376 41.6926 13.445C42.3541 13.445 42.8804 13.9747 42.8804 14.6239V25.6886C42.8804 26.3452 42.3466 26.8674 41.6926 26.8674C40.3695 26.8674 39.302 27.9269 39.302 29.2401C39.302 29.8892 38.7758 30.4189 38.1217 30.4189ZM9.92323 28.0537H37.0843C37.5203 26.3899 38.8284 25.0843 40.5048 24.644V15.646C38.8209 15.2133 37.5128 13.9076 37.0693 12.2363H9.92323C9.48721 13.9076 8.17163 15.2058 6.48769 15.646V24.644C8.17163 25.0768 9.48721 26.3825 9.92323 28.0537Z" fill="black"/>
<path d="M14.0805 18.6526C19.2703 18.6526 23.4774 14.4771 23.4774 9.32631C23.4774 4.17553 19.2703 0 14.0805 0C8.89064 0 4.68346 4.17553 4.68346 9.32631C4.68346 14.4771 8.89064 18.6526 14.0805 18.6526Z" fill="#19AA33"/>
<path d="M11.7425 9.76674C11.8778 9.63244 12.1033 9.63244 12.2386 9.76674L14.088 11.6022L15.9373 9.76674C16.0726 9.63244 16.2981 9.63244 16.4335 9.76674C16.5688 9.90104 16.5688 10.1249 16.4335 10.2592L14.3436 12.3333C14.2083 12.4676 13.9827 12.4676 13.8474 12.3333L11.7575 10.2592C11.6222 10.1249 11.6222 9.90104 11.7575 9.76674H11.7425Z" fill="#CFF9D4"/>
<path d="M14.0805 12.3259C13.885 12.3259 13.7271 12.1692 13.7271 11.9752V7.39413C13.7271 7.20014 13.885 7.04346 14.0805 7.04346C14.2759 7.04346 14.4338 7.20014 14.4338 7.39413V11.9752C14.4338 12.1692 14.2759 12.3259 14.0805 12.3259Z" fill="#CFF9D4"/>
</g>
<defs>
<clipPath id="clip0_2078_4623">
<rect width="47" height="34" fill="white"/>
</clipPath>
</defs>
</svg>
