<svg width="52" height="52" viewBox="0 0 52 52" fill="none" xmlns="http://www.w3.org/2000/svg">
<path d="M26 0C11.64 0 0 11.64 0 26C0 40.36 11.64 52 26 52C40.36 52 52 40.36 52 26C51.98 11.65 40.35 0.02 26 0ZM31.39 9.03L38.2 15.83H33.87C32.5 15.83 31.39 14.72 31.39 13.35V9.03ZM38.56 39.14C38.56 41.46 36.68 43.33 34.37 43.33H17.65C15.33 43.33 13.45 41.45 13.45 39.14V12.87C13.45 10.55 15.33 8.67 17.65 8.67H30.16V13.36C30.16 15.41 31.82 17.07 33.87 17.08H38.56V39.15V39.14Z" fill="#00338E"/>
<path d="M35.29 35.2803H17.25C16.91 35.2803 16.64 35.5703 16.64 35.9103C16.64 36.2403 16.91 36.5103 17.25 36.5203H35.29C35.63 36.5203 35.9 36.2303 35.9 35.8903C35.9 35.5603 35.63 35.2903 35.29 35.2803Z" fill="#00338E"/>
<path d="M17.25 31.5701H35.29C35.63 31.5701 35.9 31.2801 35.9 30.9401C35.9 30.6101 35.63 30.3401 35.29 30.3301H17.25C16.91 30.3301 16.64 30.6201 16.64 30.9601C16.64 31.2901 16.91 31.5601 17.25 31.5701Z" fill="#00338E"/>
<path d="M17.25 26.6199H32.19C32.53 26.6199 32.81 26.3399 32.81 25.9999C32.81 25.6599 32.53 25.3799 32.19 25.3799H17.25C16.91 25.3799 16.63 25.6599 16.63 25.9999C16.63 26.3399 16.91 26.6199 17.25 26.6199Z" fill="#00338E"/>
<path d="M17.25 21.6697H28.47C28.81 21.6697 29.09 21.3797 29.08 21.0397C29.08 20.6997 28.8 20.4297 28.47 20.4297H17.25C16.91 20.4297 16.64 20.7197 16.64 21.0597C16.64 21.3897 16.91 21.6597 17.25 21.6697Z" fill="#00338E"/>
</svg>
