<svg width="52" height="52" viewBox="0 0 52 52" fill="none" xmlns="http://www.w3.org/2000/svg">
<path d="M26 0C11.64 0 0 11.64 0 26C0 40.36 11.64 52 26 52C40.36 52 52 40.36 52 26C51.98 11.65 40.35 0.02 26 0ZM31.39 9.03L38.2 15.83H33.87C32.5 15.83 31.39 14.72 31.39 13.35V9.03ZM38.56 39.14C38.56 41.46 36.68 43.33 34.37 43.33H17.65C15.33 43.33 13.45 41.45 13.45 39.14V12.87C13.45 10.55 15.33 8.67 17.65 8.67H30.16V13.36C30.16 15.41 31.82 17.07 33.87 17.08H38.56V39.15V39.14Z" fill="#BCBCBC"/>
<path d="M35.2896 35.2803H17.2496C16.9096 35.2803 16.6396 35.5703 16.6396 35.9103C16.6396 36.2403 16.9096 36.5103 17.2496 36.5203H35.2896C35.6296 36.5203 35.8996 36.2303 35.8996 35.8903C35.8996 35.5603 35.6296 35.2903 35.2896 35.2803Z" fill="#BCBCBC"/>
<path d="M17.2496 31.5701H35.2896C35.6296 31.5701 35.8996 31.2801 35.8996 30.9401C35.8996 30.6101 35.6296 30.3401 35.2896 30.3301H17.2496C16.9096 30.3301 16.6396 30.6201 16.6396 30.9601C16.6396 31.2901 16.9096 31.5601 17.2496 31.5701Z" fill="#BCBCBC"/>
<path d="M17.2499 26.6199H32.1899C32.5299 26.6199 32.8099 26.3399 32.8099 25.9999C32.8099 25.6599 32.5299 25.3799 32.1899 25.3799H17.2499C16.9099 25.3799 16.6299 25.6599 16.6299 25.9999C16.6299 26.3399 16.9099 26.6199 17.2499 26.6199Z" fill="#BCBCBC"/>
<path d="M17.2496 21.6697H28.4697C28.8097 21.6697 29.0897 21.3797 29.0797 21.0397C29.0797 20.6997 28.7997 20.4297 28.4697 20.4297H17.2496C16.9096 20.4297 16.6396 20.7197 16.6396 21.0597C16.6396 21.3897 16.9096 21.6597 17.2496 21.6697Z" fill="#BCBCBC"/>
</svg>
