<svg width="26" height="26" viewBox="0 0 26 26" fill="none" xmlns="http://www.w3.org/2000/svg">
<g clip-path="url(#clip0_2080_5237)">
<path d="M13 26C20.1797 26 26 20.1797 26 13C26 5.8203 20.1797 0 13 0C5.8203 0 0 5.8203 0 13C0 20.1797 5.8203 26 13 26Z" fill="#19AA33"/>
<path d="M20.4849 13.5438C20.4849 13.9889 20.1973 14.3829 19.7009 14.6311L9.73031 19.6183C9.48607 19.7404 9.2497 19.7995 9.03304 19.7995C8.71789 19.7995 8.43819 19.6656 8.26092 19.4292C8.11122 19.2204 7.96546 18.862 8.1388 18.2789L9.26152 14.5326C9.29698 14.4223 9.32061 14.2883 9.33637 14.1504H15.4897C15.8246 14.1504 16.0964 13.8786 16.0964 13.5438C16.0964 13.2089 15.8246 12.9371 15.4897 12.9371H9.33637C9.32455 12.7992 9.30092 12.6653 9.26152 12.555L8.1388 8.80863C7.96152 8.2256 8.10728 7.86712 8.26092 7.66227C8.56031 7.26045 9.12364 7.16984 9.73031 7.47318L19.7049 12.4604C20.2012 12.7086 20.4888 13.1026 20.4888 13.5477L20.4849 13.5438Z" fill="#CFF9D4"/>
</g>
<defs>
<clipPath id="clip0_2080_5237">
<rect width="26" height="26" fill="white"/>
</clipPath>
</defs>
</svg>
