<svg width="139" height="126" viewBox="0 0 139 126" fill="none" xmlns="http://www.w3.org/2000/svg">
<path d="M8.29099 120.342L8.30466 120.369C6.24021 120.369 4.55857 119.932 3.25974 119.07C1.96091 118.209 1.16795 116.992 0.880836 115.42C0.826149 115.051 0.90818 114.75 1.11326 114.531C1.31834 114.312 1.61912 114.203 2.0156 114.203H5.06443C5.37888 114.203 5.6113 114.271 5.7617 114.408C5.91209 114.545 6.0488 114.764 6.18552 115.064C6.4863 115.953 7.19724 116.404 8.30466 116.404C8.87888 116.404 9.37107 116.268 9.78123 115.994C10.1914 115.721 10.3965 115.365 10.3965 114.941C10.3965 114.572 10.2187 114.244 9.87693 113.971C9.53513 113.697 9.08396 113.465 8.52341 113.273C7.96287 113.082 7.34763 112.891 6.67771 112.686C6.00779 112.48 5.33787 112.221 4.66795 111.92C3.99802 111.619 3.38279 111.264 2.82224 110.854C2.2617 110.443 1.81052 109.883 1.46873 109.172C1.12693 108.461 0.949196 107.641 0.949196 106.725C0.949196 104.879 1.60545 103.443 2.91795 102.432C4.23045 101.42 5.98045 100.914 8.15427 100.914C10.1504 100.914 11.7636 101.311 12.9941 102.117C14.2246 102.924 14.9765 104.059 15.25 105.535C15.3047 105.904 15.2363 106.191 15.0312 106.41C14.8261 106.629 14.5254 106.738 14.1289 106.738H11.1347C10.6562 106.738 10.2871 106.506 10.041 106.041C9.6992 105.262 9.05662 104.865 8.11326 104.865C7.55271 104.865 7.10154 104.988 6.74607 105.234C6.3906 105.48 6.21287 105.809 6.21287 106.219C6.21287 106.643 6.44529 107.012 6.91013 107.312C7.37498 107.613 7.96287 107.846 8.66013 108.01C9.3574 108.174 10.1094 108.406 10.916 108.707C11.7226 109.008 12.4746 109.35 13.1719 109.746C13.8691 110.143 14.457 110.73 14.9219 111.51C15.3867 112.289 15.6191 113.219 15.6191 114.299C15.6191 116.172 14.9629 117.648 13.6367 118.729C12.3105 119.809 10.5332 120.342 8.29099 120.342Z" fill="#9DF9AA"/>
<path d="M26.0371 110.252H24.2187V114.518C24.2187 115.27 24.5879 115.639 25.3125 115.639H25.873C26.5703 115.639 26.9121 115.98 26.9121 116.664V118.961C26.9121 119.658 26.5703 120 25.873 120H23.9726C22.6054 120 21.5117 119.617 20.6914 118.852C19.8711 118.086 19.4609 117.074 19.4609 115.803V110.252H18.2578C17.5605 110.252 17.2187 109.91 17.2187 109.227V106.93C17.2187 106.314 17.5332 106 18.1484 106H18.5312C19.3515 106 19.7617 105.59 19.7754 104.77V103.402C19.7754 102.705 20.1172 102.363 20.8008 102.363H23.1797C23.8769 102.363 24.2187 102.705 24.2187 103.402V106H26.0371C26.7344 106 27.0761 106.342 27.0761 107.039V109.227C27.0761 109.91 26.7344 110.252 26.0371 110.252Z" fill="#9DF9AA"/>
<path d="M40.6933 114.395L33.7207 114.408V115.174C33.7207 115.639 33.8711 116.008 34.1855 116.281C34.5 116.555 34.9101 116.691 35.4297 116.691C36.0449 116.691 36.4961 116.486 36.7832 116.076C37.0703 115.707 37.3847 115.516 37.7402 115.516H40.707C41.0078 115.516 41.2539 115.598 41.4316 115.775C41.6094 115.953 41.664 116.213 41.582 116.555C41.3769 117.717 40.7207 118.633 39.6269 119.316C38.5332 120 37.1386 120.342 35.4433 120.342C33.4883 120.342 31.916 119.809 30.7402 118.729C29.5644 117.648 28.9765 116.227 28.9765 114.449V111.551C28.9765 109.773 29.5644 108.352 30.7265 107.271C31.8886 106.191 33.4336 105.658 35.3613 105.658C37.289 105.658 38.834 106.205 39.9961 107.299C41.1582 108.393 41.7324 109.842 41.7324 111.66V113.369C41.7324 114.053 41.3906 114.395 40.6933 114.395ZM35.334 109.322H35.3476C34.8554 109.322 34.459 109.459 34.1582 109.732C33.8574 110.006 33.707 110.375 33.707 110.84V111.578H36.9199V110.84C36.9199 110.375 36.7832 110.006 36.4961 109.732C36.209 109.459 35.8261 109.322 35.334 109.322Z" fill="#9DF9AA"/>
<path d="M48.6504 120C47.2832 120 46.1894 119.617 45.3691 118.852C44.5488 118.086 44.1386 117.074 44.1386 115.83V101.434C44.1386 100.736 44.4804 100.395 45.1777 100.395H47.8711C48.5683 100.395 48.9101 100.736 48.9101 101.434V114.545C48.9101 115.27 49.2656 115.639 49.9902 115.639H50.25C50.6738 115.639 50.8926 115.844 50.8926 116.254V118.961C50.8926 119.658 50.5508 120 49.8535 120H48.6504Z" fill="#9DF9AA"/>
<path d="M57.2363 120C55.8691 120 54.7754 119.617 53.9551 118.852C53.1347 118.086 52.7246 117.074 52.7246 115.83V101.434C52.7246 100.736 53.0664 100.395 53.7636 100.395H56.457C57.1543 100.395 57.4961 100.736 57.4961 101.434V114.545C57.4961 115.27 57.8515 115.639 58.5761 115.639H58.8359C59.2597 115.639 59.4785 115.844 59.4785 116.254V118.961C59.4785 119.658 59.1367 120 58.4394 120H57.2363Z" fill="#9DF9AA"/>
<path d="M67.7226 105.658V105.699C69.5957 105.699 71.0859 106.123 72.207 106.984C73.3281 107.846 73.8886 108.98 73.8886 110.389V118.988C73.8886 119.686 73.5469 120.027 72.8496 120.027H70.3066C69.6094 120.027 69.2676 119.686 69.2676 118.988V118.51H68.9941C68.4199 119.74 67.2441 120.355 65.4668 120.369C64.1679 120.369 63.1152 120 62.2949 119.248C61.4746 118.496 61.0644 117.484 61.0644 116.213C61.0644 114.941 61.4883 113.916 62.3222 113.137C63.1562 112.357 64.2636 111.961 65.6445 111.961H69.1172V110.676C69.1172 110.266 68.9804 109.938 68.707 109.691C68.4336 109.445 68.0781 109.322 67.6269 109.322C66.916 109.322 66.4648 109.596 66.2597 110.156C66.0547 110.635 65.7129 110.881 65.248 110.881H62.5957C61.8984 110.881 61.5566 110.539 61.5566 109.855C61.5566 108.639 62.1308 107.641 63.2929 106.848C64.4551 106.055 65.9316 105.658 67.7226 105.658ZM67.4082 117.02V117.033C67.914 117.033 68.3242 116.924 68.6386 116.705C68.9531 116.486 69.1172 116.199 69.1172 115.844V114.805H67.1621C66.7656 114.805 66.4511 114.9 66.2187 115.105C65.9863 115.311 65.8633 115.57 65.8633 115.885C65.8633 116.24 66 116.514 66.2871 116.719C66.5742 116.924 66.9433 117.02 67.4082 117.02Z" fill="#9DF9AA"/>
<path d="M84.334 105.727V105.74C84.6758 105.699 84.9492 105.768 85.1406 105.945C85.332 106.123 85.4277 106.396 85.4277 106.752V109.527C85.4277 110.225 85.0859 110.566 84.3886 110.566C82.4062 110.566 81.4219 111.496 81.4219 113.342V118.961C81.4219 119.658 81.0801 120 80.3828 120H77.6894C76.9922 120 76.6504 119.658 76.664 118.961V107.039C76.664 106.342 77.0058 106 77.6894 106H80.3828C81.0801 106 81.4219 106.342 81.4219 107.039V108.242H81.6679C82.1191 106.67 83.0078 105.836 84.334 105.727Z" fill="#9DF9AA"/>
<path d="M102.23 101.242L102.217 101.256C104.309 101.256 105.99 101.885 107.248 103.156C108.506 104.428 109.135 106.109 109.135 108.201C109.135 110.307 108.506 111.988 107.248 113.26C105.99 114.531 104.322 115.16 102.23 115.16H99.209V118.824C99.209 119.604 98.8125 120 98.0332 120H95.3398C94.5605 120 94.164 119.604 94.164 118.824V102.418C94.164 101.639 94.5605 101.242 95.3398 101.242H102.23ZM101.793 110.525C102.504 110.525 103.064 110.32 103.475 109.91C103.885 109.5 104.09 108.926 104.09 108.201C104.09 107.49 103.885 106.93 103.475 106.506C103.064 106.082 102.504 105.877 101.793 105.877H99.1953V110.525H101.793Z" fill="#9DF9AA"/>
<path d="M117.023 105.658V105.699C118.896 105.699 120.387 106.123 121.508 106.984C122.629 107.846 123.189 108.98 123.189 110.389V118.988C123.189 119.686 122.848 120.027 122.15 120.027H119.607C118.91 120.027 118.568 119.686 118.568 118.988V118.51H118.295C117.721 119.74 116.545 120.355 114.768 120.369C113.469 120.369 112.416 120 111.596 119.248C110.775 118.496 110.365 117.484 110.365 116.213C110.365 114.941 110.789 113.916 111.623 113.137C112.457 112.357 113.564 111.961 114.945 111.961H118.418V110.676C118.418 110.266 118.281 109.938 118.008 109.691C117.734 109.445 117.379 109.322 116.928 109.322C116.217 109.322 115.766 109.596 115.561 110.156C115.355 110.635 115.014 110.881 114.549 110.881H111.896C111.199 110.881 110.857 110.539 110.857 109.855C110.857 108.639 111.432 107.641 112.594 106.848C113.756 106.055 115.232 105.658 117.023 105.658ZM116.709 117.02V117.033C117.215 117.033 117.625 116.924 117.939 116.705C118.254 116.486 118.418 116.199 118.418 115.844V114.805H116.463C116.066 114.805 115.752 114.9 115.52 115.105C115.287 115.311 115.164 115.57 115.164 115.885C115.164 116.24 115.301 116.514 115.588 116.719C115.875 116.924 116.244 117.02 116.709 117.02Z" fill="#9DF9AA"/>
<path d="M127.223 125.045L127.195 125.031C126.498 125.031 126.156 124.689 126.156 123.992V122.146C126.156 121.449 126.498 121.107 127.195 121.107H128.152C128.918 121.107 129.396 120.793 129.574 120.178L129.807 119.48H129.328C128.822 119.48 128.508 119.248 128.371 118.783L124.926 107.162C124.816 106.82 124.844 106.533 124.994 106.314C125.145 106.096 125.391 105.986 125.732 105.986H128.863C129.506 105.986 129.875 106.301 129.984 106.916L131.584 114.613H131.994L133.566 106.916C133.676 106.301 134.045 105.986 134.687 105.986H137.627C137.941 105.986 138.187 106.096 138.352 106.314C138.516 106.533 138.543 106.82 138.447 107.176L134.086 121.654C133.416 123.91 131.844 125.045 129.383 125.045H127.223Z" fill="#9DF9AA"/>
<path d="M112.25 45C112.25 20.1472 92.1032 0 67.2504 0C42.3976 0 22.2504 20.1472 22.2504 45C22.2504 69.8528 42.3976 90 67.2504 90C75.0352 90 82.354 88.0264 88.7408 84.5452H100.802C103.68 84.5452 106.01 82.2152 106.01 79.3371V67.8792C109.975 61.1726 112.26 53.3513 112.26 44.9909L112.25 45Z" fill="#9DF9AA"/>
<path d="M51.754 49.6233L44.3987 36.8863C41.42 31.733 45.1388 25.2822 51.0962 25.2822H52.4484L65.1489 47.2751C65.752 48.3167 65.0028 49.6233 63.7967 49.6233H51.7632H51.754Z" fill="#19AA33"/>
<path d="M59.8312 38.0649H54.0748C50.0545 38.0649 47.551 42.4233 49.5794 45.8954L51.754 49.6233H63.8149C65.021 49.6233 65.7703 48.3167 65.1672 47.266L59.8312 38.0649Z" fill="#037012"/>
<path d="M84.821 38.0646H45.0109L44.3347 36.8951C41.3561 31.7418 45.0748 25.291 51.0322 25.291H84.821C88.3479 25.291 91.2078 28.1509 91.2078 31.6778C91.2078 35.2047 88.3479 38.0646 84.821 38.0646Z" fill="#19AA33"/>
<path d="M82.7469 42.7432L90.1023 55.4802C93.0809 60.6335 89.3622 67.0843 83.4048 67.0843H82.0525L69.352 45.0914C68.749 44.0498 69.4982 42.7432 70.7043 42.7432H82.7378H82.7469Z" fill="#19AA33"/>
<path d="M74.6697 54.3015H80.4261C84.4464 54.3015 86.9499 49.9432 84.9215 46.4711L82.7469 42.7432H70.686C69.4799 42.7432 68.7307 44.0498 69.3337 45.1005L74.6697 54.3015Z" fill="#037012"/>
<path d="M50.1459 54.3013H89.4809L90.1571 55.4708C93.1357 60.6241 89.417 67.0749 83.4596 67.0749H50.1459C46.619 67.0749 43.7591 64.215 43.7591 60.6881C43.7591 57.1612 46.619 54.3013 50.1459 54.3013Z" fill="#19AA33"/>
</svg>
