<svg width="62" height="26" viewBox="0 0 62 26" fill="none" xmlns="http://www.w3.org/2000/svg">
<path d="M35.8054 6.71191L35.7958 6.72147C37.2572 6.72147 38.4321 7.16085 39.3109 8.04917C40.1896 8.93748 40.629 10.1124 40.629 11.5738C40.629 13.0448 40.1896 14.2196 39.3109 15.1079C38.4321 15.9963 37.2668 16.4356 35.8054 16.4356H33.6944V18.9955C33.6944 19.54 33.4174 19.817 32.873 19.817H30.9913C30.4468 19.817 30.1698 19.54 30.1698 18.9955V7.53337C30.1698 6.98892 30.4468 6.71191 30.9913 6.71191H35.8054ZM35.4997 13.1976C35.9964 13.1976 36.388 13.0543 36.6746 12.7678C36.9611 12.4812 37.1044 12.08 37.1044 11.5738C37.1044 11.0771 36.9611 10.6855 36.6746 10.3894C36.388 10.0932 35.9964 9.94997 35.4997 9.94997H33.6849V13.1976H35.4997Z" fill="#9DF9AA"/>
<path d="M46.1404 9.79714V9.8258C47.449 9.8258 48.4901 10.1219 49.2734 10.7237C50.0566 11.3254 50.4483 12.1182 50.4483 13.1021V19.1101C50.4483 19.5973 50.2095 19.8361 49.7223 19.8361H47.9457C47.4585 19.8361 47.2197 19.5973 47.2197 19.1101V18.7758H47.0287C46.6275 19.6355 45.8061 20.0653 44.5644 20.0749C43.6569 20.0749 42.9214 19.817 42.3483 19.2916C41.7752 18.7663 41.4887 18.0594 41.4887 17.1711C41.4887 16.2828 41.7848 15.5664 42.3674 15.022C42.9501 14.4775 43.7238 14.2005 44.6885 14.2005H47.1147V13.3027C47.1147 13.0161 47.0192 12.7869 46.8281 12.6149C46.6371 12.443 46.3887 12.357 46.0735 12.357C45.5768 12.357 45.2616 12.5481 45.1184 12.9397C44.9751 13.274 44.7363 13.4459 44.4115 13.4459H42.5585C42.0713 13.4459 41.8325 13.2071 41.8325 12.7295C41.8325 11.8794 42.2337 11.1822 43.0456 10.6281C43.8575 10.0741 44.8891 9.79714 46.1404 9.79714ZM45.9207 17.7347V17.7442C46.2741 17.7442 46.5607 17.6678 46.7804 17.515C47.0001 17.3622 47.1147 17.1616 47.1147 16.9132V16.1873H45.7488C45.4718 16.1873 45.2521 16.2542 45.0897 16.3974C44.9273 16.5407 44.8414 16.7222 44.8414 16.9419C44.8414 17.1902 44.9369 17.3813 45.1375 17.5245C45.338 17.6678 45.5959 17.7347 45.9207 17.7347Z" fill="#9DF9AA"/>
<path d="M53.266 23.3416L53.2469 23.332C52.7598 23.332 52.521 23.0932 52.521 22.6061V21.3166C52.521 20.8295 52.7598 20.5907 53.2469 20.5907H53.9156C54.4505 20.5907 54.7848 20.371 54.9089 19.9411L55.0713 19.454H54.737C54.3836 19.454 54.1639 19.2916 54.0684 18.9669L51.6613 10.8478C51.5849 10.609 51.604 10.4085 51.7091 10.2556C51.8142 10.1028 51.9861 10.0264 52.2249 10.0264H54.4123C54.8612 10.0264 55.1191 10.2461 55.1955 10.6759L56.3131 16.0536H56.5996L57.6981 10.6759C57.7745 10.2461 58.0324 10.0264 58.4813 10.0264H60.5349C60.7546 10.0264 60.9266 10.1028 61.0412 10.2556C61.1558 10.4085 61.1749 10.609 61.1081 10.8574L58.061 20.9727C57.593 22.5488 56.4945 23.3416 54.7752 23.3416H53.266Z" fill="#9DF9AA"/>
<path d="M26.6741 13C26.6741 5.8203 20.8538 0 13.6741 0C6.49438 0 0.674072 5.8203 0.674072 13C0.674072 20.1797 6.49438 26 13.6741 26C15.923 26 18.0373 25.4298 19.8824 24.4242H23.3667C24.1981 24.4242 24.8712 23.7511 24.8712 22.9196V19.6095C26.0168 17.6721 26.6767 15.4126 26.6767 12.9974L26.6741 13Z" fill="#9DF9AA"/>
<path d="M9.19733 14.3346L7.07246 10.655C6.21195 9.16629 7.28627 7.30273 9.00728 7.30273H9.39794L13.067 13.6562C13.2412 13.9572 13.0247 14.3346 12.6763 14.3346H9.19997H9.19733Z" fill="#19AA33"/>
<path d="M11.5307 10.9951H9.86777C8.70635 10.9951 7.9831 12.2542 8.56909 13.2572L9.19731 14.3342H12.6816C13.03 14.3342 13.2464 13.9567 13.0722 13.6532L11.5307 10.9951Z" fill="#037012"/>
<path d="M18.7501 10.9958H7.24936L7.05403 10.6579C6.19352 9.16922 7.26784 7.30566 8.98885 7.30566H18.7501C19.769 7.30566 20.5951 8.13186 20.5951 9.15074C20.5951 10.1696 19.769 10.9958 18.7501 10.9958Z" fill="#19AA33"/>
<path d="M18.1509 12.3477L20.2758 16.0273C21.1363 17.516 20.0619 19.3795 18.3409 19.3795H17.9503L14.2812 13.026C14.107 12.7251 14.3235 12.3477 14.6719 12.3477H18.1482H18.1509Z" fill="#19AA33"/>
<path d="M15.8176 15.6867H17.4806C18.642 15.6867 19.3652 14.4277 18.7793 13.4246L18.151 12.3477H14.6668C14.3183 12.3477 14.1019 12.7251 14.2761 13.0287L15.8176 15.6867Z" fill="#037012"/>
<path d="M8.73289 15.6846H20.0963L20.2917 16.0224C21.1522 17.5112 20.0779 19.3747 18.3569 19.3747H8.73289C7.71401 19.3747 6.88782 18.5485 6.88782 17.5296C6.88782 16.5108 7.71401 15.6846 8.73289 15.6846Z" fill="#19AA33"/>
</svg>
