<svg width="52" height="52" viewBox="0 0 52 52" fill="none" xmlns="http://www.w3.org/2000/svg">
<g clip-path="url(#clip0_1516_10867)">
<path d="M51.1895 19.5695C47.6395 5.65953 33.4795 -2.74047 19.5695 0.809529C5.65953 4.36953 -2.74047 18.5195 0.809529 32.4295C3.74953 43.9395 14.1195 51.9995 25.9995 51.9995C26.8495 51.9995 27.6995 51.9595 28.5395 51.8695C28.8995 51.7695 29.2295 51.5795 29.5095 51.3195L50.9995 20.6595C51.1895 20.3295 51.2595 19.9495 51.1895 19.5795V19.5695ZM29.1195 47.2395C29.0095 46.3095 28.9495 45.3595 28.9495 44.4195C28.9095 33.5295 36.4395 24.0795 47.0595 21.6895L29.1195 47.2395ZM44.1395 19.7595L39.8395 15.4695C39.3195 14.9795 38.4995 14.9795 37.9795 15.4695L27.0595 26.3795L22.9895 22.3095C22.4795 21.8195 21.6695 21.8195 21.1695 22.3095L5.37953 36.8895C-0.620471 25.4695 3.78953 11.3595 15.2095 5.36953C26.6395 -0.620471 40.7495 3.78953 46.7395 15.2195C47.3495 16.3795 47.8595 17.5795 48.2595 18.8295C46.8595 19.0295 45.4795 19.3395 44.1395 19.7695V19.7595Z" fill="#D9D9D9"/>
<path d="M25.9999 16.9198C28.6675 16.9198 30.8299 14.7573 30.8299 12.0898C30.8299 9.42223 28.6675 7.25977 25.9999 7.25977C23.3324 7.25977 21.1699 9.42223 21.1699 12.0898C21.1699 14.7573 23.3324 16.9198 25.9999 16.9198Z" fill="#D9D9D9"/>
</g>
<defs>
<clipPath id="clip0_1516_10867">
<rect width="51.21" height="52" fill="white"/>
</clipPath>
</defs>
</svg>
