<svg width="96" height="96" viewBox="0 0 96 96" fill="none" xmlns="http://www.w3.org/2000/svg">
<g clip-path="url(#clip0_2080_6136)">
<path d="M48 96C21.53 96 0 74.47 0 48C0 21.53 21.53 0 48 0C74.47 0 96 21.53 96 48C96 74.47 74.47 96 48 96ZM48 9C26.5 9 9 26.5 9 48C9 69.5 26.5 87 48 87C69.5 87 87 69.5 87 48C87 26.5 69.5 9 48 9Z" fill="white"/>
<path d="M44.44 65.28C43.25 65.28 42.1 64.81 41.26 63.96L29.32 52.02C27.56 50.26 27.56 47.41 29.32 45.66C31.08 43.9 33.93 43.9 35.68 45.66L44.43 54.41L62.81 36.03C64.57 34.27 67.42 34.27 69.17 36.03C70.93 37.79 70.93 40.64 69.17 42.39L47.61 63.95C46.77 64.79 45.62 65.27 44.43 65.27L44.44 65.28Z" fill="white"/>
</g>
<defs>
<clipPath id="clip0_2080_6136">
<rect width="96" height="96" fill="white"/>
</clipPath>
</defs>
</svg>
