<svg width="154" height="27" viewBox="0 0 154 27" fill="none" xmlns="http://www.w3.org/2000/svg">
<path d="M15.3393 7.86612C15.2399 6.86352 14.8132 6.08463 14.0591 5.52947C13.3051 4.97431 12.2818 4.69673 10.9892 4.69673C10.1109 4.69673 9.36926 4.82102 8.76438 5.0696C8.15951 5.3099 7.69549 5.64548 7.37234 6.07635C7.05747 6.50722 6.90004 6.99609 6.90004 7.54297C6.88346 7.9987 6.97875 8.39643 7.1859 8.73615C7.40134 9.07588 7.69549 9.37003 8.06836 9.61861C8.44123 9.8589 8.8721 10.0702 9.36097 10.2525C9.84985 10.4265 10.3719 10.5756 10.927 10.6999L13.214 11.2468C14.3243 11.4954 15.3435 11.8268 16.2715 12.2411C17.1995 12.6554 18.0033 13.165 18.6827 13.7699C19.3622 14.3748 19.8883 15.0874 20.2612 15.9077C20.6423 16.728 20.8371 17.6684 20.8453 18.729C20.8371 20.2868 20.4393 21.6374 19.6522 22.7809C18.8733 23.9161 17.7464 24.7985 16.2715 25.4283C14.8049 26.0497 13.0358 26.3604 10.9643 26.3604C8.90939 26.3604 7.11961 26.0456 5.59499 25.4158C4.07866 24.7861 2.89376 23.8539 2.04031 22.6193C1.19514 21.3764 0.751835 19.8394 0.710405 18.0082H5.91815C5.97615 18.8616 6.22058 19.5742 6.65146 20.146C7.09061 20.7094 7.67478 21.1361 8.40394 21.4261C9.14139 21.7079 9.97414 21.8487 10.9022 21.8487C11.8136 21.8487 12.6049 21.7161 13.2761 21.451C13.9556 21.1858 14.4817 20.8171 14.8546 20.3448C15.2275 19.8725 15.4139 19.3298 15.4139 18.7166C15.4139 18.1449 15.244 17.6643 14.9043 17.2749C14.5729 16.8854 14.084 16.554 13.4377 16.2805C12.7997 16.0071 12.0166 15.7585 11.0886 15.5348L8.31694 14.8388C6.17087 14.3168 4.47639 13.5006 3.23349 12.3903C1.99059 11.2799 1.37328 9.78433 1.38157 7.90341C1.37328 6.36221 1.78344 5.01574 2.61204 3.86399C3.44892 2.71224 4.59653 1.81321 6.05487 1.1669C7.5132 0.520596 9.1704 0.197442 11.0265 0.197442C12.9157 0.197442 14.5646 0.520596 15.9732 1.1669C17.3901 1.81321 18.4921 2.71224 19.2793 3.86399C20.0665 5.01574 20.4725 6.34979 20.4973 7.86612H15.3393ZM36.6084 17.8714V6.90909H41.9031V26H36.8197V22.5323H36.6208C36.19 23.6509 35.4732 24.55 34.4706 25.2294C33.4763 25.9089 32.2624 26.2486 30.8289 26.2486C29.5529 26.2486 28.4301 25.9586 27.4607 25.3786C26.4912 24.7985 25.733 23.9741 25.1862 22.9052C24.6476 21.8363 24.3741 20.5561 24.3659 19.0646V6.90909H29.6606V18.12C29.6689 19.2469 29.9713 20.1377 30.5679 20.7923C31.1645 21.4469 31.9641 21.7741 32.9667 21.7741C33.6047 21.7741 34.2013 21.6291 34.7565 21.3391C35.3116 21.0408 35.7591 20.6017 36.0988 20.0217C36.4468 19.4416 36.6167 18.7249 36.6084 17.8714ZM54.764 26.3729C52.8085 26.3729 51.1265 25.9586 49.7179 25.13C48.3175 24.2931 47.2404 23.133 46.4863 21.6499C45.7406 20.1667 45.3677 18.4598 45.3677 16.5291C45.3677 14.5736 45.7447 12.8584 46.4988 11.3835C47.2611 9.90033 48.3424 8.74444 49.7427 7.91584C51.1431 7.07895 52.8085 6.66051 54.7392 6.66051C56.4047 6.66051 57.863 6.96295 59.1142 7.56783C60.3654 8.1727 61.3555 9.02202 62.0847 10.1158C62.8139 11.2095 63.2157 12.4938 63.2903 13.9688H58.2939C58.153 13.0159 57.7801 12.2494 57.1752 11.6694C56.5787 11.0811 55.7956 10.7869 54.8262 10.7869C54.0059 10.7869 53.2891 11.0107 52.676 11.4581C52.0711 11.8973 51.5988 12.5394 51.2591 13.3846C50.9193 14.2298 50.7495 15.2531 50.7495 16.4545C50.7495 17.6726 50.9152 18.7083 51.2466 19.5618C51.5864 20.4152 52.0628 21.0657 52.676 21.5131C53.2891 21.9606 54.0059 22.1843 54.8262 22.1843C55.431 22.1843 55.9738 22.06 56.4544 21.8114C56.9432 21.5629 57.3451 21.2024 57.66 20.7301C57.9831 20.2495 58.1944 19.6737 58.2939 19.0025H63.2903C63.2074 20.4608 62.8097 21.7451 62.0971 22.8555C61.3928 23.9575 60.4192 24.8192 59.1763 25.4407C57.9334 26.0621 56.4627 26.3729 54.764 26.3729ZM75.306 26.3729C73.3505 26.3729 71.6685 25.9586 70.2599 25.13C68.8595 24.2931 67.7823 23.133 67.0283 21.6499C66.2826 20.1667 65.9097 18.4598 65.9097 16.5291C65.9097 14.5736 66.2867 12.8584 67.0407 11.3835C67.8031 9.90033 68.8844 8.74444 70.2847 7.91584C71.685 7.07895 73.3505 6.66051 75.2812 6.66051C76.9466 6.66051 78.405 6.96295 79.6562 7.56783C80.9073 8.1727 81.8975 9.02202 82.6267 10.1158C83.3559 11.2095 83.7577 12.4938 83.8323 13.9688H78.8358C78.695 13.0159 78.3221 12.2494 77.7172 11.6694C77.1207 11.0811 76.3376 10.7869 75.3682 10.7869C74.5479 10.7869 73.8311 11.0107 73.218 11.4581C72.6131 11.8973 72.1408 12.5394 71.801 13.3846C71.4613 14.2298 71.2915 15.2531 71.2915 16.4545C71.2915 17.6726 71.4572 18.7083 71.7886 19.5618C72.1283 20.4152 72.6048 21.0657 73.218 21.5131C73.8311 21.9606 74.5479 22.1843 75.3682 22.1843C75.973 22.1843 76.5158 22.06 76.9964 21.8114C77.4852 21.5629 77.8871 21.2024 78.202 20.7301C78.5251 20.2495 78.7364 19.6737 78.8358 19.0025H83.8323C83.7494 20.4608 83.3517 21.7451 82.6391 22.8555C81.9348 23.9575 80.9612 24.8192 79.7183 25.4407C78.4754 26.0621 77.0046 26.3729 75.306 26.3729ZM95.9226 26.3729C93.9588 26.3729 92.2685 25.9751 90.8516 25.1797C89.4429 24.3759 88.3575 23.2408 87.5952 21.7741C86.8329 20.2992 86.4517 18.555 86.4517 16.5415C86.4517 14.5778 86.8329 12.8543 87.5952 11.3711C88.3575 9.8879 89.4305 8.73201 90.8143 7.90341C92.2063 7.07481 93.8387 6.66051 95.7113 6.66051C96.9708 6.66051 98.1432 6.86352 99.2287 7.26953C100.322 7.66726 101.275 8.26799 102.087 9.07173C102.908 9.87547 103.546 10.8864 104.001 12.1044C104.457 13.3142 104.685 14.7311 104.685 16.3551V17.8093H88.5646V14.5281H99.701C99.701 13.7657 99.5353 13.0904 99.2038 12.5021C98.8724 11.9138 98.4125 11.454 97.8242 11.1225C97.2442 10.7828 96.5689 10.6129 95.7983 10.6129C94.9946 10.6129 94.282 10.7994 93.6605 11.1722C93.0473 11.5368 92.5668 12.0298 92.2188 12.6513C91.8707 13.2644 91.6926 13.948 91.6843 14.7021V17.8217C91.6843 18.7663 91.8583 19.5825 92.2063 20.2702C92.5626 20.958 93.0639 21.4883 93.7102 21.8612C94.3565 22.234 95.123 22.4205 96.0096 22.4205C96.5979 22.4205 97.1365 22.3376 97.6254 22.1719C98.1142 22.0062 98.5327 21.7576 98.8807 21.4261C99.2287 21.0947 99.4938 20.6887 99.6761 20.2081L104.573 20.5312C104.325 21.7079 103.815 22.7353 103.044 23.6136C102.282 24.4837 101.296 25.1631 100.086 25.652C98.8848 26.1326 97.4969 26.3729 95.9226 26.3729ZM124.025 12.353L119.177 12.6513C119.094 12.237 118.916 11.8641 118.643 11.5327C118.369 11.1929 118.009 10.9237 117.561 10.7248C117.122 10.5176 116.596 10.4141 115.983 10.4141C115.163 10.4141 114.471 10.5881 113.907 10.9361C113.344 11.2758 113.062 11.7315 113.062 12.3033C113.062 12.759 113.244 13.1443 113.609 13.4592C113.974 13.774 114.599 14.0268 115.486 14.2173L118.941 14.9134C120.797 15.2945 122.181 15.9077 123.092 16.7528C124.004 17.598 124.46 18.7083 124.46 20.0838C124.46 21.335 124.091 22.4329 123.353 23.3775C122.624 24.3221 121.622 25.0595 120.346 25.5898C119.078 26.1119 117.615 26.3729 115.958 26.3729C113.431 26.3729 111.417 25.8467 109.918 24.7944C108.426 23.7338 107.552 22.292 107.295 20.4691L112.503 20.1957C112.66 20.9663 113.041 21.5546 113.646 21.9606C114.251 22.3583 115.026 22.5572 115.971 22.5572C116.899 22.5572 117.644 22.379 118.208 22.0227C118.779 21.6581 119.069 21.19 119.078 20.6183C119.069 20.1377 118.866 19.7441 118.469 19.4375C118.071 19.1226 117.458 18.8823 116.629 18.7166L113.323 18.0579C111.459 17.685 110.071 17.0387 109.159 16.119C108.256 15.1992 107.805 14.0268 107.805 12.6016C107.805 11.3752 108.136 10.3188 108.799 9.43217C109.47 8.54557 110.411 7.86198 111.62 7.38139C112.838 6.9008 114.264 6.66051 115.896 6.66051C118.307 6.66051 120.205 7.1701 121.588 8.18927C122.98 9.20845 123.792 10.5964 124.025 12.353ZM143.678 12.353L138.831 12.6513C138.748 12.237 138.57 11.8641 138.296 11.5327C138.023 11.1929 137.662 10.9237 137.215 10.7248C136.776 10.5176 136.249 10.4141 135.636 10.4141C134.816 10.4141 134.124 10.5881 133.561 10.9361C132.997 11.2758 132.715 11.7315 132.715 12.3033C132.715 12.759 132.898 13.1443 133.262 13.4592C133.627 13.774 134.253 14.0268 135.139 14.2173L138.594 14.9134C140.45 15.2945 141.834 15.9077 142.746 16.7528C143.657 17.598 144.113 18.7083 144.113 20.0838C144.113 21.335 143.744 22.4329 143.007 23.3775C142.277 24.3221 141.275 25.0595 139.999 25.5898C138.731 26.1119 137.269 26.3729 135.611 26.3729C133.084 26.3729 131.071 25.8467 129.571 24.7944C128.079 23.7338 127.205 22.292 126.948 20.4691L132.156 20.1957C132.314 20.9663 132.695 21.5546 133.3 21.9606C133.905 22.3583 134.679 22.5572 135.624 22.5572C136.552 22.5572 137.298 22.379 137.861 22.0227C138.433 21.6581 138.723 21.19 138.731 20.6183C138.723 20.1377 138.52 19.7441 138.122 19.4375C137.724 19.1226 137.111 18.8823 136.283 18.7166L132.976 18.0579C131.112 17.685 129.724 17.0387 128.813 16.119C127.91 15.1992 127.458 14.0268 127.458 12.6016C127.458 11.3752 127.789 10.3188 128.452 9.43217C129.123 8.54557 130.064 7.86198 131.274 7.38139C132.492 6.9008 133.917 6.66051 135.549 6.66051C137.96 6.66051 139.858 7.1701 141.242 8.18927C142.634 9.20845 143.446 10.5964 143.678 12.353ZM153.773 0.545454L153.289 18.3686H148.74L148.242 0.545454H153.773ZM151.014 26.3232C150.194 26.3232 149.489 26.0331 148.901 25.4531C148.313 24.8648 148.023 24.1605 148.031 23.3402C148.023 22.5282 148.313 21.8321 148.901 21.2521C149.489 20.6721 150.194 20.3821 151.014 20.3821C151.801 20.3821 152.493 20.6721 153.09 21.2521C153.686 21.8321 153.989 22.5282 153.997 23.3402C153.989 23.8871 153.844 24.3884 153.562 24.8441C153.289 25.2915 152.928 25.652 152.481 25.9254C152.033 26.1906 151.544 26.3232 151.014 26.3232Z" fill="white"/>
</svg>
