<svg width="24" height="32" viewBox="0 0 24 32" fill="none" xmlns="http://www.w3.org/2000/svg">
<g clip-path="url(#clip0_921_1487)">
<path d="M4.17088 0H14.9119L24 9.45391V27.84C24 30.1357 22.1308 32 19.8221 32H4.17088C1.86922 32 0 30.1357 0 27.84V4.16C0 1.86435 1.86922 0 4.17088 0Z" fill="#0263D1"/>
<path opacity="0.3" fill-rule="evenodd" clip-rule="evenodd" d="M14.8979 0V9.37739H24L14.8979 0Z" fill="white"/>
<path d="M16.2303 16.6474H7.77002C7.37943 16.6474 7.05859 16.3344 7.05859 15.9448C7.05859 15.5552 7.37943 15.2422 7.77002 15.2422H16.2303C16.6209 15.2422 16.9348 15.5552 16.9348 15.9448C16.9348 16.3344 16.6209 16.6474 16.2303 16.6474ZM13.4126 25.0857H7.77002C7.37943 25.0857 7.05859 24.7726 7.05859 24.3831C7.05859 23.9935 7.37943 23.6804 7.77002 23.6804H13.4126C13.8031 23.6804 14.117 23.9935 14.117 24.3831C14.117 24.7726 13.8031 25.0857 13.4126 25.0857ZM16.2303 22.2752H7.77002C7.37943 22.2752 7.05859 21.9622 7.05859 21.5726C7.05859 21.1831 7.37943 20.87 7.77002 20.87H16.2303C16.6209 20.87 16.9348 21.1831 16.9348 21.5726C16.9348 21.9622 16.6209 22.2752 16.2303 22.2752ZM16.2303 19.4648H7.77002C7.37943 19.4648 7.05859 19.1518 7.05859 18.7622C7.05859 18.3726 7.37943 18.0596 7.77002 18.0596H16.2303C16.6209 18.0596 16.9348 18.3726 16.9348 18.7622C16.9348 19.1518 16.6209 19.4648 16.2303 19.4648Z" fill="white"/>
</g>
<defs>
<clipPath id="clip0_921_1487">
<rect width="24" height="32" fill="white"/>
</clipPath>
</defs>
</svg>
