<svg width="35" height="35" viewBox="0 0 35 35" fill="none" xmlns="http://www.w3.org/2000/svg">
<circle cx="17.9726" cy="17.0273" r="17.0273" fill="#00338E"/>
<g clip-path="url(#clip0_1413_4632)">
<path d="M19.656 10.9336H11.0699C9.93746 10.9336 9.01089 11.8798 9.01089 13.0364V20.1226C9.01089 21.2791 9.93746 22.2254 11.0699 22.2254H19.656C20.7884 22.2254 21.715 21.2791 21.715 20.1226V13.0364C21.715 11.8589 20.7884 10.9336 19.656 10.9336Z" fill="#9FC4E8"/>
<path d="M26.3068 12.0904C26.1833 12.1114 26.0599 12.1746 25.9569 12.2374L22.7449 14.1299V19.0082L25.9774 20.9008C26.5746 21.2581 27.3158 21.0478 27.6657 20.4383C27.7686 20.249 27.8306 20.0387 27.8306 19.8075V13.3102C27.8306 12.5323 27.1099 11.9015 26.3068 12.0904Z" fill="#9FC4E8"/>
</g>
<defs>
<clipPath id="clip0_1413_4632">
<rect width="18.8197" height="11.2918" fill="white" transform="translate(9.01089 10.9336)"/>
</clipPath>
</defs>
</svg>
