<svg width="21" height="19" viewBox="0 0 21 19" fill="none" xmlns="http://www.w3.org/2000/svg">
<g clip-path="url(#clip0_2080_6516)">
<path d="M18.0385 4.34286H17.7585V2.99657C17.7585 2.19314 17.4569 1.444 16.8969 0.879429C16.3369 0.314857 15.5938 0 14.7969 0H2.96154C1.32462 0 0 1.33543 0 2.98571V16.0143C0 17.6646 1.32462 19 2.96154 19H18.0385C19.6754 19 21 17.6646 21 16.0143V7.32857C21 5.67829 19.6754 4.34286 18.0385 4.34286ZM2.96154 1.62857H14.7969C15.1523 1.62857 15.4969 1.76971 15.7446 2.03029C15.9923 2.29086 16.1431 2.62743 16.1323 2.99657V4.35371H2.96154C2.21846 4.35371 1.61538 3.74571 1.61538 2.99657C1.61538 2.24743 2.21846 1.63943 2.96154 1.63943V1.62857ZM19.3846 16.0143C19.3846 16.7634 18.7815 17.3714 18.0385 17.3714H2.96154C2.21846 17.3714 1.61538 16.7634 1.61538 16.0143V5.64571C2.02462 5.852 2.47692 5.97143 2.96154 5.97143H18.0385C18.7815 5.97143 19.3846 6.57943 19.3846 7.32857V16.0143ZM16.9615 11.6714C16.9615 12.2686 16.4769 12.7571 15.8846 12.7571C15.2923 12.7571 14.8077 12.2686 14.8077 11.6714C14.8077 11.0743 15.2923 10.5857 15.8846 10.5857C16.4769 10.5857 16.9615 11.0743 16.9615 11.6714Z" fill="black"/>
</g>
<defs>
<clipPath id="clip0_2080_6516">
<rect width="21" height="19" fill="white"/>
</clipPath>
</defs>
</svg>
